<svg width="38" height="37" viewBox="0 0 38 37" fill="none" xmlns="http://www.w3.org/2000/svg">
<g filter="url(#filter0_d_122_3428)">
<path d="M7.75781 13.6389C7.75781 10.3197 7.75781 8.66004 8.40378 7.39226C8.97199 6.27709 9.87865 5.37042 10.9938 4.80222C12.2616 4.15625 13.9212 4.15625 17.2405 4.15625H20.5001C23.8193 4.15625 25.479 4.15625 26.7467 4.80222C27.8619 5.37042 28.7686 6.27709 29.3368 7.39226C29.9828 8.66004 29.9828 10.3197 29.9828 13.6389V16.8985C29.9828 20.2178 29.9828 21.8774 29.3368 23.1452C28.7686 24.2604 27.8619 25.167 26.7467 25.7352C25.479 26.3812 23.8193 26.3812 20.5001 26.3812H17.2405C13.9212 26.3812 12.2616 26.3812 10.9938 25.7352C9.87865 25.167 8.97199 24.2604 8.40378 23.1452C7.75781 21.8774 7.75781 20.2178 7.75781 16.8986V13.6389Z" fill="#FF3B3B"/>
</g>
<path d="M21.8443 14.3634C21.8109 14.3291 21.6848 14.1825 21.5673 14.0619C20.8786 13.3035 19.082 12.0623 18.1417 11.6834C17.9989 11.6225 17.6378 11.4936 17.4449 11.4854C17.2601 11.4854 17.0839 11.5279 16.9157 11.6142C16.7061 11.7348 16.538 11.9245 16.4459 12.1486C16.3865 12.304 16.2944 12.7692 16.2944 12.7775C16.2023 13.2864 16.1516 14.1133 16.1516 15.0272C16.1516 15.8978 16.2023 16.6911 16.2777 17.2077C16.2864 17.216 16.3785 17.794 16.4793 17.9921C16.6641 18.3538 17.0251 18.5784 17.4115 18.5784H17.4449C17.6966 18.5696 18.2257 18.3449 18.2257 18.3367C19.1154 17.9572 20.8705 16.7768 21.5759 15.9924C21.5759 15.9924 21.7746 15.7908 21.861 15.6649C21.9957 15.4841 22.0625 15.26 22.0625 15.036C22.0625 14.786 21.9871 14.5531 21.8443 14.3634Z" fill="white"/>
<defs>
<filter id="filter0_d_122_3428" x="0.65324" y="0.448474" width="36.4338" height="36.4342" filterUnits="userSpaceOnUse" color-interpolation-filters="sRGB">
<feFlood flood-opacity="0" result="BackgroundImageFix"/>
<feColorMatrix in="SourceAlpha" type="matrix" values="0 0 0 0 0 0 0 0 0 0 0 0 0 0 0 0 0 0 127 0" result="hardAlpha"/>
<feOffset dy="3.3968"/>
<feGaussianBlur stdDeviation="3.55229"/>
<feComposite in2="hardAlpha" operator="out"/>
<feColorMatrix type="matrix" values="0 0 0 0 0 0 0 0 0 0 0 0 0 0 0 0 0 0 0.17 0"/>
<feBlend mode="normal" in2="BackgroundImageFix" result="effect1_dropShadow_122_3428"/>
<feBlend mode="normal" in="SourceGraphic" in2="effect1_dropShadow_122_3428" result="shape"/>
</filter>
</defs>
</svg>
