<svg width="7" height="6" viewBox="0 0 7 6" fill="none" xmlns="http://www.w3.org/2000/svg">
<path fill-rule="evenodd" clip-rule="evenodd" d="M3.14734 0.0244141C3.4114 0.0244141 3.68186 0.0317266 3.94425 0.0432564L4.25431 0.0589184L4.55105 0.0774406L4.8289 0.0976342L5.0823 0.118311C5.64965 0.166961 6.10561 0.630917 6.16108 1.23489L6.17335 1.37337L6.19651 1.67017C6.21816 1.97783 6.23414 2.31332 6.23414 2.63384C6.23414 2.95437 6.21816 3.28985 6.19651 3.59751L6.17335 3.89432C6.16931 3.94171 6.1652 3.98793 6.16108 4.03279C6.10561 4.63677 5.64965 5.10073 5.0823 5.14936L4.8289 5.17004L4.55105 5.19023L4.25431 5.20876L3.94425 5.22442C3.68186 5.23596 3.4114 5.24327 3.14734 5.24327C2.8833 5.24327 2.61283 5.23596 2.35044 5.22442L2.04037 5.20876L1.74363 5.19023L1.46578 5.17004L1.21238 5.14936C0.645035 5.10073 0.189081 4.63677 0.133605 4.03279L0.121333 3.89432L0.098182 3.59751C0.0765351 3.28985 0.0605469 2.95437 0.0605469 2.63384C0.0605469 2.31332 0.0765351 1.97783 0.098182 1.67017L0.121333 1.37337C0.125378 1.32597 0.129485 1.27975 0.133605 1.23489C0.189081 0.630917 0.645035 0.166961 1.21238 0.118311L1.46578 0.0976342L1.74363 0.0774406L2.04037 0.0589184L2.35044 0.0432564C2.61283 0.0317266 2.8833 0.0244141 3.14734 0.0244141ZM2.52998 1.8429V3.42479C2.52998 3.57545 2.68432 3.66959 2.8078 3.59428L4.10425 2.80332C4.22772 2.72801 4.22772 2.53967 4.10425 2.46436L2.8078 1.67341C2.68432 1.59809 2.52998 1.69225 2.52998 1.8429Z" fill="white"/>
</svg>
