<svg width="46" height="46" viewBox="0 0 46 46" fill="none" xmlns="http://www.w3.org/2000/svg">
<g clip-path="url(#clip0_103_6580)">
<path d="M45.1741 22.69C45.1741 35.1088 35.1069 45.1746 22.6895 45.1746C10.2715 45.1746 0.205078 35.1088 0.205078 22.69C0.205078 10.2725 10.2715 0.205566 22.6895 0.205566C35.1069 0.205566 45.1741 10.2725 45.1741 22.69Z" fill="#DBA111"/>
<path d="M44.4243 22.6893C44.4243 34.6932 34.6938 44.4238 22.6898 44.4238C10.6857 44.4238 0.955078 34.6933 0.955078 22.6893C0.955078 10.6852 10.6857 0.95459 22.6898 0.95459C34.6936 0.95459 44.4243 10.6852 44.4243 22.6893Z" fill="#034694"/>
<path d="M38.1784 22.6896C38.1784 31.2439 31.2438 38.1773 22.6896 38.1773C14.135 38.1773 7.2002 31.2439 7.2002 22.6896C7.2002 14.1346 14.135 7.2002 22.6896 7.2002C31.244 7.2001 38.1784 14.1346 38.1784 22.6896Z" fill="#DBA111"/>
<path d="M37.7091 22.6886C37.7091 30.9841 30.9833 37.7086 22.689 37.7086C14.3936 37.7086 7.66895 30.984 7.66895 22.6886C7.66895 14.3933 14.3936 7.66846 22.689 7.66846C30.9835 7.66846 37.7091 14.3932 37.7091 22.6886Z" fill="white"/>
<path d="M9.81967 35.6482C9.98589 35.8068 10.3948 36.1962 10.3948 36.1962L10.7867 35.7835L9.6176 34.6689L9.46719 34.8267L7.89746 36.4723L8.49345 37.0396C8.49345 37.0396 8.99683 36.5117 9.18102 36.3194C9.33493 36.4655 9.70426 36.8176 9.70426 36.8176L10.0965 36.4058C10.0965 36.4058 9.72772 36.054 9.57399 35.9068C9.67152 35.804 9.7211 35.7519 9.81967 35.6482Z" fill="#DBA111"/>
<path d="M12.6392 37.5272C12.5863 37.2116 12.4091 36.9328 12.141 36.7423C11.8742 36.5527 11.5538 36.4779 11.2383 36.5296C10.8984 36.5874 10.593 36.7855 10.3779 37.0866C10.1635 37.3896 10.0769 37.7427 10.1346 38.0839C10.1877 38.3986 10.3637 38.6756 10.6309 38.8661C10.8984 39.0563 11.221 39.1323 11.5362 39.0793C11.8759 39.0221 12.1814 38.8236 12.3958 38.5217C12.5674 38.2822 12.6569 38.008 12.6569 37.7338C12.657 37.6655 12.6512 37.5953 12.6392 37.5272H12.6392ZM10.9604 38.4013C10.6872 38.2081 10.9127 37.804 11.0719 37.5819C11.2306 37.358 11.5383 37.0117 11.8115 37.2048C12.0967 37.4088 11.8303 37.8494 11.7024 38.0283C11.5741 38.2092 11.2461 38.6052 10.9604 38.4013Z" fill="#DBA111"/>
<path d="M14.4766 38.1518C13.8475 37.8334 13.1198 38.0943 12.7856 38.7567C12.6181 39.0878 12.5854 39.4513 12.6932 39.7783C12.7929 40.0823 13.0088 40.3302 13.3016 40.4775C13.5944 40.6266 13.9239 40.6525 14.2284 40.5526C14.5553 40.4459 14.8279 40.2044 14.9943 39.8735C15.33 39.2099 15.1069 38.4701 14.4766 38.1518ZM13.7808 39.9926C13.707 40.0168 13.637 40.0093 13.5575 39.9697C13.4327 39.9061 13.3889 39.7925 13.3889 39.6656C13.3889 39.4899 13.4733 39.2829 13.5449 39.1418C13.6691 38.8964 13.9211 38.5088 14.2201 38.6597C14.299 38.7 14.3462 38.7523 14.3702 38.8252C14.4202 38.9762 14.3699 39.2242 14.2351 39.4896C14.1009 39.7552 13.9312 39.9428 13.7808 39.9926Z" fill="#DBA111"/>
<path d="M15.7757 39.0612L15.6599 39.3931C15.6599 39.3931 15.956 39.497 16.0459 39.5267C15.9325 39.8508 15.4102 41.3419 15.4102 41.3419L16.1858 41.6139C16.1858 41.6139 16.709 40.1241 16.8221 39.8C16.9125 39.8316 17.2087 39.9345 17.2087 39.9345L17.3967 39.3989L15.8478 38.8555L15.7757 39.0612Z" fill="#DBA111"/>
<path d="M18.997 39.7819L17.9489 39.5605L17.904 39.7738L17.4355 41.9984L18.5023 42.2246C18.8432 42.295 19.0677 42.2113 19.1957 42.1285C19.3582 42.0225 19.4721 41.8486 19.5159 41.6407C19.528 41.5842 19.5337 41.5293 19.5337 41.4756C19.5337 41.3253 19.4861 41.1899 19.4001 41.0735C19.5202 40.9782 19.6059 40.8434 19.6416 40.6753C19.6507 40.6319 19.656 40.5829 19.656 40.5317C19.656 40.247 19.4934 39.8854 18.9971 39.7819H18.997ZM18.7085 41.4803C18.6974 41.5311 18.6769 41.5984 18.6384 41.6235C18.6028 41.6466 18.5344 41.6495 18.4459 41.6303C18.4459 41.6303 18.4056 41.6214 18.3579 41.6121C18.392 41.4515 18.4148 41.3447 18.448 41.184C18.4936 41.1947 18.5519 41.2061 18.5519 41.2061C18.6894 41.2352 18.7158 41.337 18.7158 41.4108C18.7159 41.4406 18.7121 41.4657 18.7085 41.4803L18.7085 41.4803ZM18.6369 40.2896C18.7289 40.3106 18.7966 40.3443 18.8226 40.3837C18.8345 40.4018 18.8404 40.4271 18.8404 40.457C18.8404 40.4751 18.8379 40.496 18.8332 40.5211C18.8191 40.5863 18.8 40.6768 18.6186 40.6396C18.6186 40.6396 18.596 40.6336 18.5649 40.627C18.5938 40.4924 18.6076 40.4251 18.6369 40.2896L18.6369 40.2896Z" fill="#DBA111"/>
<path d="M20.9305 40.1445L19.792 42.476L20.4422 42.5258C20.4422 42.5258 20.6181 42.1544 20.6884 42.0065C20.826 42.0179 20.9638 42.0276 21.0986 42.0385C21.1491 42.1942 21.2761 42.5894 21.2761 42.5894L22.1411 42.6567L21.1746 39.6606L20.9305 40.1445Z" fill="#DBA111"/>
<path d="M23.498 42.0066C23.4837 41.6658 23.4182 40.1147 23.4182 40.1147L22.5967 40.1493L22.7006 42.6386L24.3469 42.5702L24.3222 41.9729C24.3222 41.973 23.7342 41.9981 23.498 42.0066Z" fill="#DBA111"/>
<path d="M25.7519 41.7678C25.6989 41.431 25.4585 39.8975 25.4585 39.8975L25.2432 39.932L24.6455 40.0251L25.0313 42.4873L26.6599 42.2316L26.5666 41.6409C26.5666 41.6409 25.9856 41.7325 25.7519 41.7678Z" fill="#DBA111"/>
<path d="M30.4665 40.1096C30.4599 40.323 30.3341 40.5068 30.1378 40.5845C30.029 40.6277 29.9251 40.6277 29.821 40.5836C29.6613 40.5152 29.5134 40.3423 29.4246 40.1201C29.32 39.858 29.2987 39.6353 29.3673 39.4788C29.4144 39.3692 29.5069 39.2874 29.648 39.2308C29.801 39.17 29.9462 39.226 30.1452 39.3432L30.3278 39.451L30.631 38.9728L30.4511 38.8545C30.1204 38.6372 29.7109 38.5928 29.3567 38.7344C29.028 38.8654 28.7731 39.1106 28.6384 39.4241C28.5017 39.7421 28.5017 40.1059 28.6403 40.451C28.902 41.1051 29.6414 41.4273 30.2879 41.1685C30.7552 40.9818 31.0196 40.6269 31.0533 40.142L31.0686 39.9257L30.4735 39.8815L30.4665 40.1097" fill="#DBA111"/>
<path d="M32.384 39.4302C32.2157 39.1311 31.4596 37.7749 31.4596 37.7749L31.2702 37.8817L30.7412 38.1771L31.957 40.3524L33.3945 39.5494L33.1035 39.0272C33.1036 39.0272 32.5891 39.3141 32.384 39.4302Z" fill="#DBA111"/>
<path d="M33.9833 36.0767L33.807 36.2056L33.4982 36.4326L34.5073 37.8079C34.5534 37.8701 34.5534 37.9117 34.5494 37.936C34.5397 38.0069 34.4658 38.0838 34.4005 38.1309C34.3696 38.1529 34.2983 38.1829 34.2253 38.1714C34.1731 38.1639 34.132 38.1356 34.0954 38.0861L33.0982 36.7262L32.4336 37.2127L33.426 38.5658C33.5733 38.7661 33.7561 38.8845 33.9695 38.9171C34.209 38.9544 34.4812 38.8729 34.7341 38.686C35.2544 38.3056 35.2459 37.8004 35.0189 37.4909L33.9833 36.0767Z" fill="#DBA111"/>
<path d="M37.0111 35.5757C36.8581 35.417 36.6695 35.3457 36.4714 35.3564C36.4597 35.2025 36.4 35.0554 36.281 34.9322C36.0732 34.7177 35.6085 34.5505 35.1807 34.967L34.4111 35.7112L36.1452 37.5014L36.928 36.7425C37.1782 36.5002 37.2333 36.2655 37.2357 36.1137C37.2398 35.919 37.1598 35.7285 37.0111 35.5757ZM35.701 35.5154C35.7269 35.5429 35.7585 35.5751 35.7585 35.6198C35.7585 35.6565 35.7385 35.7018 35.6784 35.7593C35.6784 35.7593 35.6622 35.7757 35.6402 35.7978C35.543 35.697 35.497 35.6497 35.3985 35.5485C35.5721 35.3893 35.6442 35.4573 35.701 35.5154ZM36.1116 36.1317C36.2522 35.996 36.3875 36.1152 36.4261 36.1557C36.4634 36.1932 36.5059 36.2461 36.5059 36.2919C36.5059 36.2919 36.5059 36.2919 36.5059 36.2934C36.505 36.3357 36.4693 36.3942 36.4049 36.4567C36.4049 36.4567 36.375 36.4858 36.3395 36.5192C36.2261 36.4019 36.1494 36.3232 36.0357 36.2065C36.0693 36.1731 36.1116 36.1317 36.1116 36.1317V36.1317Z" fill="#DBA111"/>
<path d="M9.81433 35.4183C9.88216 35.4836 10.3885 35.9666 10.3885 35.9666L10.5554 35.7905L9.62257 34.9009L9.58501 34.9402L8.12891 36.4677L8.48764 36.81C8.48764 36.81 9.10803 36.1598 9.17482 36.0887C9.24265 36.1532 9.6991 36.5879 9.6991 36.5879L9.86636 36.4124C9.86636 36.4124 9.40991 35.978 9.34208 35.9135C9.40262 35.8501 9.75435 35.4811 9.81433 35.4183Z" fill="white"/>
<path d="M12.0454 36.8762C11.8142 36.7116 11.5375 36.6459 11.2659 36.6913C10.9677 36.7424 10.7002 36.9165 10.5109 37.1829C10.3211 37.4502 10.2449 37.76 10.2955 38.057C10.341 38.3294 10.4941 38.5698 10.7255 38.7338C10.9581 38.8994 11.236 38.9641 11.5088 38.9184C11.8054 38.8685 12.0732 38.6937 12.2622 38.4291C12.4133 38.2157 12.4931 37.974 12.4931 37.7345C12.4931 37.6748 12.4879 37.6144 12.4782 37.5548C12.4319 37.2828 12.2786 37.0418 12.0454 36.8762H12.0454ZM11.8349 38.1247C11.6784 38.3435 11.2712 38.8243 10.8658 38.536C10.4619 38.2493 10.7826 37.7071 10.9384 37.4869C11.0946 37.2666 11.5021 36.7866 11.9055 37.0734C12.3109 37.3627 11.9912 37.9051 11.8349 38.1247Z" fill="white"/>
<path d="M14.4024 38.2985C13.8566 38.0225 13.2242 38.2522 12.9309 38.8322C12.7832 39.1237 12.7541 39.441 12.8478 39.7287C12.9339 39.99 13.121 40.2037 13.3749 40.3314C13.6292 40.4615 13.9145 40.4846 14.1772 40.3981C14.463 40.3037 14.7016 40.092 14.8492 39.8006C15.1416 39.2207 14.9498 38.5744 14.4024 38.2985ZM13.4835 40.115C13.0415 39.8926 13.2767 39.3079 13.3988 39.0677C13.5205 38.8264 13.8514 38.2904 14.2927 38.5147C14.4102 38.5734 14.4886 38.6608 14.526 38.7752C14.6126 39.04 14.472 39.3822 14.3803 39.564C14.289 39.7445 14.0962 40.061 13.8311 40.1479C13.7177 40.1863 13.6004 40.1747 13.4835 40.115Z" fill="white"/>
<path d="M15.9308 39.1169L15.8682 39.2941C15.8682 39.2941 16.1771 39.4027 16.2545 39.4299C16.2202 39.5269 15.6182 41.2436 15.6182 41.2436L16.0861 41.4081C16.0861 41.4081 16.6886 39.6914 16.7223 39.5942C16.7996 39.6211 17.1085 39.7291 17.1085 39.7291L17.1892 39.5011L15.948 39.0654L15.9308 39.1169" fill="white"/>
<path d="M18.9634 39.9409L18.075 39.7534L18.0631 39.8073L17.6289 41.8732L18.5354 42.0636C18.7658 42.1118 18.9576 42.0878 19.1059 41.9906C19.2342 41.9069 19.3203 41.7733 19.3555 41.607C19.3645 41.5616 19.3699 41.5183 19.3699 41.476C19.3699 41.2953 19.2803 41.1424 19.1203 41.0327C19.3055 40.9795 19.4382 40.8431 19.4808 40.6408C19.4881 40.6092 19.4925 40.5718 19.4925 40.5295C19.4924 40.3228 19.3837 40.0296 18.9634 39.9409H18.9634ZM18.6529 40.1238C18.8022 40.1554 18.9056 40.2125 18.9582 40.2938C18.9885 40.3399 19.0035 40.394 19.0035 40.4568C19.0035 40.4874 18.9995 40.5192 18.9923 40.5537C18.9346 40.8288 18.7124 40.8259 18.5846 40.798C18.5846 40.798 18.4493 40.7701 18.3709 40.7536C18.3891 40.6689 18.4922 40.1785 18.51 40.094C18.5668 40.1055 18.6529 40.1238 18.6529 40.1238ZM18.5846 41.046C18.837 41.099 18.8768 41.2982 18.8768 41.4192C18.8768 41.4711 18.8687 41.5082 18.8676 41.5143C18.8422 41.6337 18.7967 41.7144 18.7268 41.7595C18.6529 41.8088 18.5465 41.8183 18.4118 41.7904C18.4118 41.7904 18.2503 41.7558 18.1637 41.7386C18.1823 41.6498 18.3031 41.0776 18.3214 40.9903C18.3954 41.0057 18.5846 41.046 18.5846 41.046H18.5846Z" fill="white"/>
<path d="M21.0792 40.2155L20.0459 42.3307L20.3435 42.3529C20.3435 42.3529 20.5622 41.8932 20.5912 41.8344C20.6541 41.8393 21.1599 41.8786 21.222 41.8836C21.2418 41.9443 21.3996 42.4346 21.3996 42.4346L21.9121 42.4741L21.1446 40.0947L21.0792 40.2155ZM20.9658 41.066C21.0158 41.2258 21.1119 41.5338 21.1437 41.6344C21.0416 41.6268 20.8065 41.6085 20.7055 41.6009C20.7518 41.5058 20.8927 41.2162 20.9658 41.066Z" fill="white"/>
<path d="M23.3408 42.1746C23.3367 42.0714 23.2608 40.2827 23.2608 40.2827L23.208 40.2846L22.7656 40.3027L22.8565 42.4667L24.1767 42.4107L24.1651 42.1406C24.1653 42.1407 23.4363 42.1715 23.3408 42.1746" fill="white"/>
<path d="M25.6167 41.9556C25.6002 41.8537 25.3225 40.083 25.3225 40.083L25.2695 40.0915L24.833 40.1606L25.1686 42.2998L26.4738 42.0938L26.4317 41.8264C26.4316 41.8266 25.7101 41.9399 25.6167 41.9557" fill="white"/>
<path d="M30.6286 40.1135C30.6209 40.3953 30.4555 40.634 30.1977 40.7379C30.0477 40.7976 29.8995 40.7955 29.7563 40.734C29.5545 40.6487 29.3783 40.4465 29.2715 40.1811C29.1512 39.8781 29.1318 39.6128 29.2158 39.4144C29.2812 39.2644 29.4054 39.1521 29.5871 39.08C29.8247 38.9848 30.0428 39.0933 30.2275 39.2029L30.2737 39.2298L30.4065 39.0212L30.362 38.9912C30.0755 38.8036 29.7216 38.7644 29.417 38.8863C29.1283 39.002 28.9042 39.2154 28.7879 39.4887C28.6685 39.7655 28.6696 40.0867 28.7917 40.3895C29.0195 40.961 29.6627 41.2417 30.2276 41.0167C30.6372 40.8522 30.8595 40.5551 30.8893 40.1309L30.8931 40.0762L30.6317 40.0582L30.6286 40.1135" fill="white"/>
<path d="M32.3209 39.6532C32.2699 39.5638 31.3966 37.999 31.3966 37.999L31.3485 38.0258L30.9639 38.2412L32.0189 40.1305L33.1722 39.4865L33.0409 39.25C33.0411 39.2502 32.4026 39.6059 32.3209 39.6532Z" fill="white"/>
<path d="M33.9482 36.3037L33.9036 36.3364L33.7268 36.4663L34.6395 37.7099C34.7006 37.7936 34.7246 37.8771 34.7116 37.959C34.6898 38.1071 34.5549 38.2208 34.4984 38.2612C34.4336 38.31 34.3152 38.3504 34.2018 38.332C34.1055 38.3178 34.0266 38.2669 33.9633 38.1821L33.0622 36.9531L32.6631 37.2474L33.5583 38.4677C33.6787 38.6323 33.8258 38.7294 33.9949 38.7545C34.2615 38.7948 34.5117 38.6463 34.6375 38.5546C35.0695 38.237 35.0752 37.8397 34.8886 37.5869L33.9482 36.3037Z" fill="white"/>
<path d="M36.8933 35.6884C36.7258 35.5151 36.5114 35.4756 36.2891 35.5611C36.3067 35.5092 36.3172 35.4564 36.3172 35.4035C36.3172 35.2749 36.266 35.1495 36.1631 35.0436C36.0237 34.9003 35.6629 34.7232 35.2939 35.082L34.6416 35.714L36.1475 37.2686L36.8143 36.622C36.9824 36.4606 37.0702 36.2865 37.0723 36.1104C37.0749 35.9567 37.0125 35.8113 36.8933 35.6884ZM35.9209 35.6209C35.9209 35.7298 35.85 35.8192 35.7928 35.875C35.7928 35.875 35.6928 35.9721 35.6363 36.0278C35.5755 35.9653 35.2265 35.6057 35.1668 35.542C35.2073 35.5028 35.2711 35.4421 35.2711 35.4421C35.4749 35.2436 35.6537 35.2305 35.818 35.4006C35.8932 35.4788 35.9209 35.5526 35.9209 35.6209ZM36.3356 36.749C36.274 36.6854 35.8671 36.2644 35.8046 36.2008C35.8584 36.149 35.9977 36.0135 35.9977 36.0135C36.2635 35.7574 36.5328 36.0288 36.5442 36.0414C36.628 36.1278 36.6691 36.2097 36.6691 36.291C36.6691 36.2925 36.6691 36.2934 36.6691 36.2941C36.668 36.3835 36.6162 36.4771 36.5179 36.5743C36.5182 36.5743 36.3883 36.699 36.3356 36.749V36.749Z" fill="white"/>
<path d="M12.6996 7.87688L11.7908 8.12199L11.8951 8.44752C12.0207 8.8422 11.9071 9.25542 11.5994 9.52522C11.4283 9.67526 11.2307 9.74413 11.0127 9.72918C10.6815 9.70695 10.3076 9.49258 10.013 9.15542C9.66586 8.75772 9.49264 8.37486 9.51468 8.05038C9.53001 7.81378 9.64504 7.60594 9.86575 7.41258C10.1095 7.19906 10.4187 7.20738 10.8381 7.29054L11.1491 7.35203L11.3502 6.4816L11.0371 6.40526C10.3638 6.23866 9.66169 6.40231 9.16078 6.8408C8.17976 7.69922 8.09972 9.10112 8.97469 10.1017C9.7878 11.0313 11.1986 11.1326 12.1181 10.3283C12.7804 9.7498 13.0112 9.00964 12.7862 8.19011L12.6996 7.87688Z" fill="#DBA111"/>
<path d="M15.1674 3.31845L14.2391 3.75561C14.2391 3.75561 14.7573 4.85384 14.9355 5.23234C14.6707 5.35684 14.4142 5.47802 14.1491 5.60318C13.9704 5.22496 13.4518 4.12626 13.4518 4.12626L12.2295 4.70333L14.0911 8.652L15.3145 8.07521C15.3145 8.07521 14.7377 6.85391 14.5522 6.4579C14.8171 6.33388 15.0734 6.21279 15.339 6.08773C15.525 6.4826 16.1011 7.70409 16.1011 7.70409L17.3242 7.12693L15.4632 3.1792L15.1674 3.31845Z" fill="#DBA111"/>
<path d="M19.3069 5.76601C19.2473 5.47199 19.1867 5.17286 19.1279 4.87921C19.5055 4.80325 20.5091 4.60061 20.5091 4.60061L20.3326 3.72356C20.3326 3.72356 19.3285 3.92648 18.9506 4.00282C18.8962 3.73397 18.8512 3.50815 18.7964 3.23967C19.1886 3.16058 20.2625 2.94357 20.2625 2.94357L20.0855 2.06689L19.7643 2.13141L17.2939 2.631L18.1576 6.9105L20.9718 6.34157L20.795 5.46536C20.795 5.46536 19.7017 5.68569 19.3069 5.76601Z" fill="#DBA111"/>
<path d="M23.2992 1.96608L21.9458 1.93799L21.9391 2.26436L21.8545 6.30253L24.6954 6.36213L24.7157 5.41659C24.7157 5.41659 23.625 5.39312 23.2265 5.38499C23.2378 4.85049 23.2991 1.96608 23.2991 1.96608" fill="#DBA111"/>
<path d="M27.6842 4.16778C27.3331 3.90989 27.2304 3.80649 27.2659 3.66563C27.2833 3.5926 27.3628 3.35941 27.615 3.42185C27.7668 3.46082 27.9178 3.54076 27.985 3.86732L28.0589 4.22984L28.9525 3.92787L28.8969 3.64652C28.787 3.09396 28.3196 2.6236 27.733 2.47706C27.3129 2.37271 26.8917 2.42853 26.546 2.63618C26.2288 2.82623 26.0056 3.12622 25.9173 3.48125C25.693 4.37619 26.2963 4.8071 26.6951 5.09261C27.1041 5.38502 27.2081 5.49949 27.1456 5.74375C27.1261 5.82009 27.0811 5.88035 27.0107 5.92302C26.9289 5.97117 26.8262 5.98858 26.7426 5.96682C26.5278 5.91394 26.4348 5.81243 26.3443 5.53458L26.2345 5.20149L25.3379 5.56817L25.4247 5.85282C25.5928 6.40596 25.9941 6.75457 26.6509 6.91908C27.3889 7.10374 28.2844 6.76431 28.5074 5.87808C28.7401 4.94427 28.1046 4.47637 27.6842 4.16778Z" fill="#DBA111"/>
<path d="M30.9133 6.49454C31.2578 6.66861 32.1707 7.13026 32.1707 7.13026L32.5744 6.33201C32.5744 6.33201 31.6608 5.87035 31.3175 5.69686C31.4404 5.45203 31.5445 5.24617 31.6672 5.00182C32.0235 5.18175 33.0027 5.67661 33.0027 5.67661L33.4053 4.87836L30.8642 3.59424L30.7173 3.88514L28.8945 7.49031L31.4569 8.78447L31.861 7.98669C31.861 7.98669 30.8653 7.48369 30.5055 7.30253C30.6402 7.03462 30.7786 6.76254 30.9133 6.49454Z" fill="#DBA111"/>
<path d="M35.9731 6.90298L31.9014 9.00985L32.6803 9.68729C32.6803 9.68729 33.3524 9.32998 33.5966 9.2017C33.7783 9.35988 34.046 9.59279 34.2247 9.74803C34.1371 10.0078 33.8882 10.7382 33.8882 10.7382L34.9613 11.6719L36.7022 6.53857L35.9731 6.90298Z" fill="#DBA111"/>
<path d="M12.5474 8.14443L12.0675 8.27489L12.1027 8.38349C12.2551 8.86255 12.1176 9.36365 11.7425 9.69164C11.5271 9.88065 11.2759 9.96721 10.9985 9.94933C10.6051 9.92294 10.1868 9.68681 9.84914 9.30065C9.46307 8.85867 9.27169 8.42171 9.29705 8.03687C9.31693 7.74464 9.46014 7.47995 9.72276 7.25025C10.0676 6.94876 10.5017 7.00391 10.8808 7.07893L10.9849 7.09909L11.0899 6.64415L10.9856 6.61813C10.3805 6.46961 9.75265 6.61483 9.30443 7.00723C8.41763 7.78391 8.3464 9.05242 9.13935 9.95984C9.87327 10.799 11.1453 10.8909 11.9757 10.1657C12.5778 9.63763 12.7802 8.99377 12.5762 8.24992L12.5474 8.14444" fill="white"/>
<path d="M15.2616 3.51551L14.5313 3.86081C14.5313 3.86081 15.1461 5.16546 15.227 5.33697C15.0707 5.41105 14.2032 5.82039 14.0458 5.89389C13.9651 5.7221 13.3506 4.41754 13.3506 4.41754L12.5205 4.80862L14.1964 8.36234L15.0259 7.97182C15.0259 7.97182 14.3456 6.52962 14.2636 6.35508C14.421 6.281 15.2874 5.8727 15.4447 5.79835C15.5265 5.97241 16.207 7.41547 16.207 7.41547L17.0356 7.02401L15.3598 3.46973L15.2616 3.51551Z" fill="white"/>
<path d="M19.1358 6.02169C19.1018 5.85094 18.9054 4.87862 18.8713 4.70786C19.0531 4.67135 20.2523 4.42898 20.2523 4.42898L20.1616 3.98C20.1616 3.98 18.9627 4.22133 18.7799 4.25832C18.7467 4.09087 18.5737 3.23539 18.5405 3.06813C18.7237 3.03058 20.0058 2.77241 20.0058 2.77241L19.9149 2.32324L17.5508 2.80032L18.3284 6.65212L20.7151 6.17031L20.6244 5.72115C20.6242 5.72124 19.3205 5.98433 19.1358 6.02169Z" fill="white"/>
<path d="M23.0758 2.17953L22.1593 2.15967L22.1573 2.26789L22.0762 6.08857L24.4822 6.13956L24.4929 5.62956C24.4929 5.62956 23.1904 5.60203 23.0038 5.59806C23.0086 5.39419 23.0758 2.17954 23.0758 2.17954" fill="white"/>
<path d="M27.6676 3.21125C27.9589 3.28418 28.1272 3.47887 28.1986 3.82369L28.2234 3.94422L28.7014 3.78264L28.6833 3.68832C28.5889 3.21749 28.1861 2.81524 27.6801 2.688C27.3164 2.59728 26.9541 2.64487 26.6586 2.82224C26.3914 2.98288 26.2029 3.23593 26.1287 3.5344C25.9404 4.28507 26.4297 4.63472 26.8221 4.91521C27.2193 5.1993 27.4588 5.39323 27.3568 5.79614C27.3163 5.96387 27.2068 6.0597 27.1223 6.11012C26.9914 6.18855 26.8307 6.21305 26.6896 6.17843C26.3998 6.10577 26.2506 5.94996 26.1375 5.6024L26.1006 5.49133L25.6045 5.69369L25.6333 5.78895C25.7775 6.263 26.128 6.56355 26.7048 6.70791C27.3384 6.86618 28.1063 6.57944 28.2955 5.82461C28.4927 5.03346 27.9733 4.65061 27.553 4.34334C27.1963 4.07997 26.9808 3.90392 27.0541 3.61292C27.1183 3.35277 27.3337 3.12762 27.6676 3.21125" fill="white"/>
<path d="M31.5706 4.70956C31.7379 4.79367 32.9047 5.38332 32.9047 5.38332L33.1123 4.97398L30.9601 3.88672L30.9109 3.98378L29.1875 7.39427L31.3598 8.49212L31.5668 8.08297C31.5668 8.08297 30.3808 7.48329 30.2128 7.39805C30.2911 7.24234 30.7387 6.35809 30.8164 6.20228C30.982 6.28591 32.0734 6.83744 32.0734 6.83744L32.2814 6.4281C32.2814 6.4281 31.1889 5.87704 31.0233 5.79294C31.1003 5.64101 31.4938 4.86149 31.5706 4.70956Z" fill="white"/>
<path d="M36.0745 7.0974L32.2881 9.05698L32.7112 9.42488C32.7112 9.42488 33.5142 8.99918 33.6278 8.93901C33.7221 9.02131 34.3876 9.60028 34.4798 9.68059C34.4397 9.80026 34.1423 10.6698 34.1423 10.6698L34.8609 11.2946L36.3239 6.98047L36.0745 7.0974ZM34.0662 8.71357C34.2453 8.62096 34.7029 8.38322 34.982 8.23801C34.8781 8.53468 34.7069 9.0232 34.6412 9.21335C34.496 9.08621 34.2116 8.83911 34.0662 8.71357Z" fill="white"/>
<path d="M33.4313 22.1007C33.1207 21.2782 32.0514 20.9209 31.0406 21.3024C30.6191 21.461 30.2739 21.7261 30.0386 22.039C30.706 20.1341 33.4246 19.7299 33.4246 17.9577C33.4246 14.9873 29.2063 15.8193 29.8201 17.9581C29.8201 16.9877 31.3646 16.8098 31.3646 17.9581C31.3646 19.1066 28.6716 19.8597 28.6716 21.7999C28.6716 23.9387 30.8108 24.1366 30.5942 26.0928C30.5574 26.4301 30.1947 26.8733 29.6697 26.8733C26.3932 26.8733 27.5628 22.8398 26.418 21.6125L26.4778 20.7838C27.1397 21.1896 28.8956 20.2389 27.7396 18.7896C27.7396 19.5023 26.2555 19.4629 26.2555 18.1163C26.2555 16.2943 27.9589 17.245 28.0417 17.6474C27.9601 16.9838 27.9292 16.5627 28.0388 16.1804C27.1205 16.4765 27.0346 15.9457 27.1507 15.7403C27.2837 15.5027 27.4617 15.2253 27.8195 15.2253C28.0128 15.2253 28.1289 15.2522 28.1973 15.2993C28.3117 15.3776 28.3953 15.1989 28.379 15.3651C28.4772 15.2155 28.4379 15.4023 28.5327 15.2522C28.6293 15.1032 28.7593 14.9347 28.9879 14.7103L28.9781 14.3741L29.2456 14.4722L29.5024 14.0568C29.2253 13.4821 28.8491 13.7589 28.5721 13.0464C28.3405 12.9862 24.7323 13.3786 24.8369 11.9393C24.5427 11.9393 23.8457 12.1005 24.277 12.6865C23.9417 12.7269 23.7 12.3461 23.1944 13.3762C23.8277 13.2575 23.4999 13.9654 23.4999 14.1668C23.4999 15.4719 21.7624 15.4499 21.7624 14.8385C21.3437 15.2454 21.5813 16.1351 22.2145 16.3543C22.2145 16.3543 21.9737 17.306 21.3792 17.9094C20.4967 17.8742 19.081 17.7209 18.2666 16.951C17.9153 16.6192 17.6365 16.4384 17.3989 16.3455V15.9142C17.7467 15.744 18.128 15.4428 18.5243 14.9394C18.8335 14.5618 19.0008 14.0777 18.9558 13.5635C18.9499 13.5021 18.9408 13.4415 18.93 13.3823C18.9267 13.3635 18.9221 13.3452 18.9177 13.3265C18.9091 13.2851 18.899 13.2453 18.887 13.2044C18.8812 13.1846 18.8758 13.1644 18.8696 13.1448C18.8562 13.1037 18.8414 13.0645 18.8254 13.0255C18.8187 13.0091 18.814 12.9917 18.8061 12.9764C18.7841 12.9239 18.7595 12.8745 18.7329 12.8248C18.7215 12.8046 18.7095 12.7858 18.6985 12.7672C18.6802 12.7373 18.6629 12.7071 18.6437 12.6782C18.6282 12.6553 18.6119 12.6321 18.5955 12.6091C18.5787 12.587 18.5609 12.5644 18.5436 12.5423C18.5244 12.5186 18.5055 12.4935 18.4849 12.4701C18.4713 12.4546 18.4566 12.4396 18.4422 12.4253C18.3907 12.3685 18.3349 12.3156 18.2766 12.2651C18.2718 12.2609 18.266 12.2555 18.2604 12.2512C18.2278 12.2234 18.1931 12.1968 18.1589 12.1714C18.1502 12.1648 18.1412 12.1584 18.1314 12.1516C18.0949 12.1258 18.0575 12.1007 18.0186 12.0766C18.0162 12.0751 18.014 12.0742 18.0123 12.0725C17.6415 11.8454 17.1933 11.7266 16.72 11.7642C15.5805 11.8549 14.7334 12.8071 14.8286 13.891C14.9027 14.7355 15.5255 15.41 16.3353 15.6252C16.0512 15.7837 15.8112 15.8752 15.757 15.8752C15.766 15.881 15.7777 15.8877 15.7905 15.8959C15.7938 15.8974 15.7977 15.8998 15.8017 15.9018C15.8126 15.9088 15.8257 15.9161 15.839 15.9233C15.8423 15.9253 15.8464 15.9271 15.8496 15.9291C15.8679 15.9383 15.8867 15.9478 15.9079 15.958C15.9112 15.9595 15.9152 15.9607 15.9185 15.9623C15.9373 15.971 15.9563 15.9801 15.9766 15.9879C15.9824 15.9905 15.9886 15.9929 15.9948 15.995C16.0444 16.0157 16.1002 16.0343 16.1612 16.0517C16.1699 16.0541 16.1791 16.0561 16.1866 16.0584C16.2113 16.0647 16.2364 16.0705 16.2623 16.0767C16.2708 16.0782 16.2795 16.08 16.2887 16.0819C16.3214 16.0877 16.3557 16.0935 16.39 16.0977C16.3929 16.0977 16.3959 16.0992 16.3987 16.0992V16.3445C16.3858 16.3473 16.3742 16.3487 16.3622 16.3505C15.9915 16.4116 15.7507 16.5257 15.6418 16.8556C15.5336 17.1868 15.6447 17.3065 15.8183 17.5388C15.6717 17.801 15.2874 17.899 15.7889 18.4781C15.7524 18.6969 15.7986 19.0452 16.117 19.1508C16.2208 19.186 16.3074 19.2048 16.3987 19.2206L16.3983 23.5624C16.0808 23.7306 15.9241 23.9404 15.8375 24.136C15.8375 24.136 15.5826 23.5702 15.5994 24.691C15.889 24.4663 15.775 24.9512 15.775 24.9512C15.3807 25.462 15.8815 25.4343 15.8815 25.4343C16.2212 25.095 16.1519 25.588 16.1519 25.588C16.1519 26.1892 16.3961 26.4245 16.3982 26.4254V29.7332L16.1097 29.734L16.1125 30.6467L16.6169 30.6459C16.3338 30.7634 16.1471 31.0429 16.1743 31.3519C16.2086 31.7414 16.5684 32.0308 16.9781 31.9992C17.3874 31.9662 17.6917 31.6248 17.6567 31.2344C17.6336 30.965 17.4551 30.7451 17.2123 30.6441L17.6778 30.6428L17.6758 29.7301L17.3983 29.7314L17.3987 26.7966C17.4559 26.8281 17.5178 26.8498 17.585 26.8645C17.6117 26.8695 17.6383 26.8732 17.6657 26.875C17.6777 26.8769 17.6902 26.8769 17.7022 26.8772C17.6275 26.4915 17.858 26.2358 17.858 26.2358C17.9763 26.0576 18.1475 25.9187 18.3422 25.8207C18.9247 25.5285 19.7195 25.6024 19.9571 26.0781C21.4623 25.6814 22.7558 24.1684 22.7558 24.1684L23.4967 25.4295C21.9258 25.9547 18.5043 28.9292 20.8794 29.9594C20.8785 30.2593 20.8383 32.4849 19.4111 32.308C17.3558 32.0549 16.8433 32.9053 17.238 33.8612C17.0524 34.6673 17.6732 34.9471 17.6732 34.9471C17.58 34.4815 17.804 34.0957 18.6534 34.1007C18.649 34.9501 19.1976 35.1032 19.1976 35.1032C19.2015 34.3758 19.707 34.1064 20.156 34.1084C20.1527 34.7078 20.8491 34.9356 20.8491 34.9356C20.8491 34.9356 20.6726 34.2448 21.4597 34.1084C23.4524 33.7612 21.5809 31.7118 24.6113 31.147C24.6113 31.147 23.1023 30.9195 23.1023 30.0946C23.1023 29.3437 24.4683 28.8303 24.9385 28.8303C25.903 30.673 26.9508 30.6876 27.2254 30.7008C27.6526 31.1778 27.5094 32.7859 26.8928 32.7543C24.6355 32.6331 24.7181 34.0061 24.9711 34.287C24.9422 34.82 25.3569 35.1278 25.3569 35.1278C25.3569 34.5565 25.9004 34.3959 26.5976 34.4337C26.561 35.1315 27.0056 35.2358 27.0056 35.2358C27.0178 34.5335 27.5373 34.4144 27.9065 34.4337C27.8795 34.9259 28.368 35.0708 28.368 35.0708C28.368 35.0708 28.32 34.446 28.9776 34.446C30.2253 34.4452 28.4133 31.7715 30.8483 29.1272C28.7094 30.1173 27.5714 27.6423 27.5714 27.1673C28.6708 28.4538 32.2352 28.7106 32.2352 26.513C32.2352 24.4136 29.9277 23.6314 31.0073 22.8284C31.6352 22.3615 32.8699 23.3047 32.1635 24.279C33.1765 23.9036 33.741 22.9226 33.4311 22.1006L33.4313 22.1007ZM19.7592 22.1668C18.9528 22.641 18.4122 23.2409 17.677 23.5033C17.5654 23.5424 17.4764 23.5536 17.399 23.5486V19.4508C17.5938 19.4691 18.0992 19.5382 18.6902 19.7826C19.2755 20.102 19.2755 20.7621 18.5368 20.9186C19.0037 21.8125 20.6209 21.3748 20.9734 20.6468C21.146 20.6315 21.2986 20.9397 21.4421 21.231C21.2152 21.3489 20.7508 21.5832 19.7592 22.1668ZM28.785 15.3738C28.6963 15.4941 28.6089 15.6138 28.5323 15.7163C28.7368 16.0562 29.1215 16.2687 29.5431 16.2297C30.1256 16.1746 30.5545 15.6575 30.5009 15.0744C30.4978 15.0532 30.4949 15.0341 30.492 15.0134C30.4296 15.3153 30.0737 15.571 29.621 15.6128C29.2783 15.645 28.968 15.5466 28.785 15.3738H28.785Z" fill="#D1D3D4"/>
<path d="M27.8809 15.062C28.0839 15.402 28.4696 15.6144 28.891 15.5752C29.4745 15.5207 29.9022 15.0033 29.8489 14.4195C29.8467 14.3989 29.8429 14.379 29.8402 14.3584C29.7783 14.66 29.4207 14.9164 28.969 14.9583C28.6253 14.9904 28.3155 14.8919 28.1325 14.7192C28.0443 14.8399 27.9559 14.9595 27.8809 15.062" fill="#FF3B3B"/>
<path d="M24.7586 10.6108C24.7418 10.6108 24.7249 10.6174 24.7049 10.6243C24.3387 10.7016 23.2144 11.4752 23.6249 12.033C23.288 12.0729 22.5059 11.8421 22.0014 12.8716C22.6352 12.7523 22.8467 13.3139 22.8467 13.5156C22.8467 14.2796 22.2531 14.5861 21.7599 14.589C21.4297 14.5898 21.1466 14.4554 21.1159 14.2267C21.1173 14.22 21.1143 14.2134 21.1159 14.2066C21.1154 14.206 21.1092 14.2075 21.1092 14.2066H21.0957C20.7024 14.6216 20.9413 15.4866 21.5653 15.7026C21.5653 15.7026 21.3212 16.6555 20.7268 17.259C20.1349 17.236 19.3087 17.1555 18.58 16.8766C18.3761 16.799 18.183 16.7017 18.0031 16.5881C17.8642 16.5021 17.731 16.4099 17.614 16.2997C17.2629 15.9679 16.9858 15.7878 16.7486 15.6959V15.2599C17.0964 15.0893 17.4794 14.7905 17.8756 14.2871C18.1853 13.9099 18.3502 13.4264 18.305 12.9119C18.3002 12.8504 18.2904 12.7909 18.2782 12.7307C18.2754 12.712 18.2687 12.6958 18.2647 12.6771C18.2557 12.6356 18.2498 12.5894 18.2379 12.5496C18.2325 12.5293 18.2249 12.5094 18.2178 12.4892C18.2047 12.4482 18.1861 12.4142 18.1708 12.3752C18.164 12.3586 18.1642 12.3379 18.1574 12.3215C18.1348 12.2701 18.1097 12.2225 18.0836 12.1739C18.0732 12.1532 18.0609 12.1333 18.0501 12.1136C18.0318 12.0838 18.0087 12.0552 17.9897 12.0263C17.9739 12.0033 17.9597 11.9822 17.9427 11.9593C17.926 11.9372 17.9069 11.9134 17.8891 11.8922C17.87 11.8671 17.8561 11.8418 17.8354 11.8184C17.822 11.8029 17.8029 11.7862 17.7884 11.7714C17.7364 11.7151 17.6855 11.66 17.6274 11.6104C17.6216 11.6057 17.6131 11.6012 17.6073 11.597C17.5747 11.5696 17.5418 11.5415 17.5067 11.5165C17.4974 11.5104 17.4889 11.5026 17.4798 11.4964C17.4428 11.47 17.405 11.4469 17.3658 11.4226C17.3635 11.4215 17.3613 11.4234 17.3591 11.4226C16.9884 11.1944 16.5442 11.077 16.071 11.114C15.9692 11.1221 15.8661 11.1402 15.7692 11.1609C14.7842 11.3792 14.0923 12.2539 14.1792 13.2406C14.2529 14.0764 14.8582 14.7425 15.6551 14.9647C15.6633 14.967 15.6734 14.9693 15.682 14.9714C15.3973 15.1299 15.1595 15.2196 15.105 15.2196C15.1143 15.2255 15.1256 15.2377 15.1386 15.2464C15.1419 15.2479 15.1482 15.2444 15.152 15.2464C15.1634 15.2531 15.1711 15.2656 15.1855 15.2733C15.189 15.2752 15.195 15.272 15.1989 15.2733C15.216 15.2823 15.232 15.2967 15.2526 15.3068C15.2564 15.3079 15.2631 15.3114 15.266 15.3135C15.2841 15.322 15.3053 15.325 15.3264 15.3336C15.3322 15.3361 15.3336 15.338 15.3398 15.3404C15.3904 15.3603 15.4459 15.3835 15.5075 15.4007C15.5161 15.4027 15.5257 15.405 15.5344 15.4074C15.5583 15.4137 15.5822 15.4155 15.6082 15.4209C15.6169 15.4232 15.6258 15.4256 15.635 15.4276C15.6676 15.4338 15.7003 15.4434 15.7356 15.4477C15.7381 15.4477 15.7466 15.446 15.749 15.4477V15.6892C15.7375 15.6909 15.7213 15.6935 15.7088 15.6959C15.339 15.7565 15.0996 15.8752 14.991 16.2058C14.8827 16.537 14.9919 16.6577 15.1654 16.89C15.0177 17.1512 14.638 17.2497 15.1386 17.8292C15.103 18.0475 15.1493 18.3942 15.4673 18.5001C15.5714 18.5353 15.6581 18.5509 15.749 18.5672V22.9076C15.4312 23.0761 15.2715 23.2888 15.1855 23.4845C15.1855 23.4845 14.5779 23.4029 14.5952 24.5243C14.8846 24.2985 15.1251 24.2962 15.1251 24.2962C14.7313 24.8066 15.0111 25.2757 15.0111 25.2757C15.3506 24.9356 15.5008 24.9336 15.5008 24.9336C15.5008 25.5372 15.749 25.7721 15.749 25.7721C15.749 25.6811 15.7538 25.5985 15.7692 25.5172C15.7538 25.5985 15.749 25.6811 15.749 25.7721V29.0794H15.4606V29.5021V29.9918H15.9637C15.9021 30.0175 15.8466 30.0521 15.796 30.0924C15.6217 30.225 15.5146 30.4299 15.5209 30.6559V30.6962C15.5556 31.0866 15.9158 31.3806 16.326 31.3469C16.7349 31.3149 17.0373 30.9716 17.0035 30.5821C16.9796 30.3138 16.8035 30.0928 16.5608 29.9918H17.0237V29.0794H16.7486V26.1411C16.8063 26.171 16.864 26.1952 16.9297 26.2082C16.9579 26.2146 16.9896 26.2185 17.017 26.2216C17.029 26.2218 17.0385 26.2212 17.0505 26.2216C16.9759 25.836 17.2048 25.5843 17.2048 25.5843C17.3241 25.4058 17.4939 25.2665 17.6878 25.1684C18.271 24.8759 19.067 24.9477 19.3046 25.4233C20.8099 25.0271 22.102 23.5181 22.102 23.5181L22.8467 24.7725C21.2754 25.2984 17.8554 28.2765 20.2303 29.3075C20.2293 29.6065 20.1876 31.8304 18.7612 31.6555C16.7063 31.4012 16.1932 32.2492 16.5876 33.2052C16.4014 34.0122 17.0237 34.292 17.0237 34.292C16.9309 33.8269 17.1539 33.4426 18.0031 33.4467C17.9986 34.2959 18.5465 34.453 18.5465 34.453C18.5494 33.7246 19.0562 33.4507 19.5058 33.4534C19.5029 34.0528 20.1968 34.2852 20.1968 34.2852C20.1968 34.2852 20.0192 33.5898 20.8073 33.4534C22.7993 33.1062 20.9297 31.0605 23.9603 30.4949C23.9603 30.4949 22.4509 30.2675 22.4509 29.4417C22.4509 28.6921 23.8128 28.1805 24.2823 28.1805C24.2827 28.1816 24.2885 28.1794 24.289 28.1805C25.2534 30.015 26.3028 30.0314 26.5766 30.0455C27.0034 30.5216 26.8578 32.1306 26.2412 32.0983C23.9839 31.978 24.063 33.3536 24.3158 33.6345C24.2877 34.1684 24.7049 34.4731 24.7049 34.4731C24.7049 33.9014 25.2489 33.7453 25.946 33.7821C25.9085 34.4793 26.3552 34.5804 26.3552 34.5804C26.3656 33.878 26.8845 33.7626 27.2542 33.7821C27.2283 34.2755 27.7171 34.4194 27.7171 34.4194C27.7171 34.4194 27.6702 33.7963 28.3275 33.7955C29.5756 33.7955 27.7628 31.1199 30.1992 28.4757C28.0604 29.4662 26.9187 26.9919 26.9187 26.5168C28.0183 27.8037 31.5879 28.0564 31.5879 25.8593C31.5879 24.0867 29.9422 23.2519 30.0785 22.552C30.1034 22.4235 30.1862 22.3014 30.3535 22.1763C30.9822 21.709 32.217 22.6526 31.5141 23.6254C32.5262 23.2499 33.0908 22.2669 32.782 21.4451C32.4705 20.6226 31.3971 20.2655 30.3871 20.6468C29.9639 20.8065 29.6226 21.0712 29.3875 21.3847C30.0538 19.4799 32.7753 19.0789 32.7753 17.306C32.7753 14.3356 28.5523 15.1671 29.1661 17.306C29.1661 17.2738 29.1689 17.243 29.1728 17.212C29.1788 17.1566 29.1905 17.1072 29.2063 17.0577C29.4436 16.3163 30.7158 16.264 30.7158 17.306C30.7158 18.4544 28.0189 19.2089 28.0189 21.1499C28.0189 23.2888 30.1606 23.4813 29.9443 25.4367C29.9077 25.7752 29.5435 26.2216 29.0185 26.2216C27.8926 26.2216 27.2888 25.743 26.9389 25.0677C26.2712 23.778 26.5166 21.7671 25.7649 20.9621L25.8252 20.1302C26.4874 20.5366 28.2469 19.5871 27.0931 18.1378C27.0931 18.8513 25.6039 18.8062 25.6039 17.4602C25.6039 15.6382 27.3055 16.5954 27.3883 16.9974C27.3066 16.3342 27.2765 15.9092 27.3883 15.5282C26.4691 15.8234 26.3817 15.2914 26.4961 15.0854C26.6306 14.8474 26.8098 14.5689 27.1669 14.5689C27.6832 14.5689 27.6503 14.7581 27.6231 15.0251C27.8203 14.7269 27.8754 14.5077 28.3342 14.059L28.3275 13.7236L28.5959 13.8175L28.8508 13.4016C28.574 12.8269 28.1965 13.1084 27.9183 12.3953C27.6877 12.3348 24.6536 12.0507 24.7586 10.6108ZM24.0945 11.7177C24.1062 11.7939 24.1315 11.8711 24.175 11.9391C24.1315 11.8711 24.1062 11.7939 24.0945 11.7177ZM16.1985 12.5831C16.4813 12.5605 16.7312 12.7624 16.7553 13.0326C16.7788 13.3015 16.569 13.5402 16.2857 13.5626C16.0019 13.5854 15.7515 13.383 15.7289 13.1131C15.7227 13.0415 15.7316 12.9756 15.7557 12.9119C15.7557 12.9104 15.7551 12.9057 15.7557 12.9052C15.7585 12.8955 15.766 12.8878 15.7692 12.8783C15.8433 12.7197 16.0038 12.5989 16.1985 12.5831ZM23.0748 12.8649C23.1086 12.9214 23.1333 12.9862 23.1553 13.0527C23.1333 12.9862 23.1086 12.9214 23.0748 12.8649ZM21.0957 14.5555C21.1133 14.6597 21.1515 14.7523 21.2031 14.8372C21.1516 14.7522 21.1131 14.6598 21.0957 14.5555ZM22.2094 15.9508C22.1362 16.1489 22.0331 16.3868 21.9209 16.6284C22.0331 16.3868 22.1362 16.1489 22.2094 15.9508ZM29.7498 16.3869C29.6273 16.4525 29.5122 16.5394 29.421 16.6418C29.5129 16.5377 29.6257 16.4532 29.7498 16.3869ZM31.1787 16.5479C31.2252 16.5991 31.2636 16.6581 31.2994 16.7223C31.2636 16.6581 31.2252 16.5991 31.1787 16.5479ZM16.7486 18.7952C16.9434 18.814 17.4466 18.8873 18.0366 19.1307C18.0435 19.134 18.0509 19.1335 18.0568 19.1374C18.6242 19.4609 18.6129 20.111 17.8824 20.2644C18.3484 21.1591 19.9719 20.7241 20.3243 19.9961C20.4961 19.9807 20.6434 20.2888 20.7871 20.5797C20.5606 20.6978 20.1012 20.9284 19.11 21.5122C18.3035 21.9869 17.759 22.5852 17.0237 22.8472C16.9117 22.8878 16.8254 22.8984 16.7486 22.8942V18.7952ZM21.3171 18.8422C21.2841 18.9357 21.2407 19.0242 21.183 19.1038C21.2407 19.0242 21.2841 18.9357 21.3171 18.8422ZM17.2115 23.2967C17.1172 23.3157 17.0367 23.3302 16.9633 23.3302C17.0367 23.3302 17.1172 23.3157 17.2115 23.2967ZM15.4472 23.5315C15.4266 23.5463 15.4082 23.5681 15.3935 23.5851C15.4099 23.5652 15.4229 23.5485 15.4472 23.5315ZM14.8568 24.0078C14.7825 24.0914 14.7151 24.1788 14.669 24.2694C14.7144 24.1802 14.7839 24.0904 14.8568 24.0078ZM30.7158 25.3428C30.7194 25.3991 30.7225 25.4583 30.7225 25.5172C30.7225 25.5463 30.7151 25.5882 30.7091 25.6379C30.7151 25.5882 30.7158 25.5463 30.7158 25.5172C30.7158 25.456 30.7196 25.4011 30.7158 25.3428H30.7158ZM30.4877 26.2216C30.4617 26.2579 30.4324 26.2941 30.4005 26.3289C30.4311 26.2953 30.4626 26.2566 30.4877 26.2216ZM15.957 30.0589C15.9886 30.0589 16.0211 30.0662 16.0509 30.0723C16.0211 30.0662 15.9886 30.0656 15.957 30.0656C15.9287 30.0656 15.9031 30.0671 15.8765 30.0723C15.9031 30.067 15.9288 30.0589 15.957 30.0589Z" fill="#034694"/>
<path d="M26.4632 13.0947L26.8296 13.114L26.6463 13.3655C26.6462 13.3655 26.4015 13.4429 26.4632 13.0947ZM25.5892 13.0947H26.1171C26.1171 13.0947 26.098 13.5207 26.4835 13.5588L26.4016 13.6945C26.4015 13.6945 25.3657 13.4238 25.5892 13.0947Z" fill="white"/>
<path d="M16.5232 16.7354C16.5414 16.6667 15.9011 16.2921 15.5527 16.2009C15.406 16.1629 15.293 16.3393 15.2747 16.4082C15.2569 16.4773 15.2689 16.6866 15.4152 16.725C15.7638 16.8163 16.5054 16.8043 16.5232 16.7354V16.7354ZM16.4707 17.3746C16.476 17.3097 15.8374 17.08 15.5079 17.0553C15.37 17.0451 15.2973 17.2236 15.293 17.2879C15.2883 17.3535 15.3338 17.54 15.4719 17.5498C15.8009 17.5742 16.4665 17.4405 16.4707 17.3746ZM15.7455 15.4473V15.6922C15.8392 15.7859 16.1807 15.8959 16.2197 15.8959V15.4111C16.2198 15.4112 15.9629 15.465 15.7455 15.4473ZM15.6119 17.8357C15.5119 17.8397 15.4743 17.9723 15.4768 18.02C15.4776 18.0671 15.5253 18.1974 15.6254 18.1935C15.8633 18.185 16.3298 18.0353 16.3279 17.9886C16.326 17.9418 15.8499 17.8275 15.6119 17.8357ZM15.1218 24.2988C14.728 24.8092 15.0116 25.2747 15.0116 25.2747C15.0116 24.9193 15.4171 24.4618 15.5075 24.3725C15.5075 24.3726 15.3686 24.2988 15.1218 24.2988ZM16.3783 25.3816C16.3178 25.6965 16.4744 26.0031 16.7457 26.144C16.8034 26.1739 16.866 26.1976 16.9317 26.2105C16.9599 26.217 16.9863 26.2204 17.0137 26.2235C17.0257 26.2237 17.0378 26.2239 17.0498 26.2244C17.0498 26.2244 16.651 25.851 16.8113 25.498C16.7073 25.4266 16.552 25.3816 16.3783 25.3816V25.3816ZM15.6576 14.965C15.0603 14.6735 14.6357 13.9431 14.6357 13.0866C14.6357 12.1778 15.1131 11.4097 15.7692 11.1583C14.7842 11.3765 14.0893 12.2519 14.1763 13.2386C14.25 14.0744 14.8606 14.7427 15.6576 14.965ZM21.9981 12.8687C22.632 12.7494 22.847 13.3129 22.847 13.5146C22.847 14.2786 22.252 14.5865 21.7587 14.5894V14.5898C24.0467 14.5898 23.2404 11.6267 21.9981 12.8687V12.8687ZM20.4688 19.4439C21.5623 19.4439 21.4888 18.0157 21.2523 17.779C21.6032 17.4284 22.3252 15.8199 22.3252 15.5227C22.3252 15.5227 20.8819 15.2115 21.1124 14.2099C21.112 14.2093 21.112 14.2089 21.112 14.208L21.0927 14.2045C20.6993 14.6195 20.9385 15.4851 21.5624 15.7011C21.5624 15.7011 21.3216 16.6528 20.7271 17.2563C20.1353 17.2333 19.3057 17.1554 18.5771 16.8765C19.7034 17.4743 20.8632 18.3778 20.4688 19.4439L20.4688 19.4439ZM16.1971 12.5865C16.4798 12.5639 16.7288 12.7643 16.7529 13.0345C16.7764 13.3034 16.5658 13.541 16.2826 13.5634C15.9988 13.5862 15.7493 13.3858 15.7267 13.1159C15.7267 13.5342 16.0663 13.8742 16.4855 13.8742C16.4918 13.8742 16.498 13.8738 16.5043 13.8738C16.5419 14.0593 16.5548 14.2564 16.4942 14.4008C16.9036 14.0448 17.244 13.5995 17.244 13.1158C17.244 12.6965 16.9036 12.3565 16.4855 12.3565C16.1364 12.3565 15.8441 12.5916 15.7547 12.911C15.821 12.7354 15.9889 12.6033 16.1971 12.5864L16.1971 12.5865ZM24.2555 12.0344C23.761 11.5391 24.4918 10.6133 24.7603 10.6133C24.4667 10.6133 23.1934 11.4469 23.6257 12.0344C23.8642 12.0344 24.2555 12.0344 24.2555 12.0344ZM17.8846 20.2652C18.2768 20.3856 18.6712 20.2388 18.763 19.9374C18.8549 19.6354 18.6102 19.2944 18.2172 19.1736C18.163 19.1574 18.1082 19.1458 18.0543 19.1392C18.6217 19.4627 18.6151 20.1118 17.8846 20.2652ZM16.7467 16.0974C16.7467 16.0974 17.3088 16.2753 18.0004 16.5913C17.8615 16.5052 17.7312 16.4081 17.6142 16.2979C17.2631 15.9661 16.9839 15.7853 16.7467 15.6935V16.0974ZM16.9599 23.3276C18.1352 23.3276 22.1986 20.7332 22.1986 20.7332C21.195 20.7332 20.7896 20.578 20.7896 20.578C20.563 20.696 20.0981 20.9293 19.1069 21.5131C18.3004 21.9878 17.7599 22.5881 17.0245 22.85C16.9125 22.8906 16.8235 22.9001 16.7467 22.8958C16.5775 22.8812 16.3913 22.8582 16.2197 22.848V19.1168C16.2197 18.7256 15.934 18.5682 15.7455 18.5682V22.9104C15.4277 23.0788 15.2713 23.2882 15.1853 23.4839C15.1853 23.4839 14.5794 23.4031 14.5967 24.5245C14.5967 24.2271 15.038 23.707 15.344 23.707C15.344 23.3276 16.4578 23.3276 16.9599 23.3276ZM27.0957 29.3343C26.7981 29.3343 25.4323 29.3921 25.3096 28.2024C25.0077 28.1376 24.6553 28.1245 24.2852 28.1771C25.2508 30.02 26.299 30.0347 26.5733 30.0488C27.0001 30.5249 26.8571 32.1328 26.2405 32.1004C23.9832 31.9802 24.0659 33.3535 24.3188 33.6344C24.3188 32.5989 25.0227 32.3534 26.801 32.3534C26.8011 32.3534 28.2545 30.4932 27.0957 29.3343ZM27.56 33.7809H27.2544C27.2286 34.2742 27.7169 34.4194 27.7169 34.4194C27.56 34.2626 27.4456 33.8963 27.56 33.7809ZM24.7036 34.4754C24.5737 34.3453 24.4667 33.8241 24.6553 33.6344H24.3187C24.2906 34.1682 24.7036 34.4754 24.7036 34.4754ZM31.4417 17.3305C31.4417 15.754 29.2797 16.0017 29.173 17.2122C29.2684 16.325 30.7128 16.194 30.7128 17.3054C30.7128 18.4539 28.0189 19.2062 28.0189 21.1473C28.0189 23.2861 30.1575 23.484 29.9412 25.4394C29.9046 25.7779 29.5419 26.2203 29.0168 26.2203C27.891 26.2203 27.2884 25.7425 26.9384 25.0672C27.2963 26.0231 27.9262 26.7559 29.237 26.7559C30.5952 26.7559 30.7184 25.752 30.7184 25.5188C30.7184 23.561 28.6737 23.0956 28.6737 21.235C28.6739 19.4233 31.4417 18.6769 31.4417 17.3305ZM15.4993 24.9362C15.4993 25.5398 15.7455 25.774 15.7455 25.774C15.7455 25.41 15.8951 25.1024 15.9806 25.0175C15.8542 24.8903 15.4993 24.9362 15.4993 24.9362ZM31.1213 21.5997C30.5725 21.5997 30.1232 22.0196 30.0759 22.5553C30.1009 22.4268 30.1866 22.3018 30.3539 22.1767C30.9826 21.7094 32.2149 22.6507 31.512 23.6235C31.8984 23.4683 32.1698 23.0913 32.1698 22.6495C32.17 22.0702 31.7006 21.5997 31.1213 21.5997ZM26.3118 33.7809H25.9452C25.9077 34.4781 26.3539 34.583 26.3539 34.583C26.1646 34.3942 26.133 33.9595 26.3118 33.7809ZM15.9561 30.0623C15.8995 30.0623 15.8466 30.074 15.7961 30.0932C15.6219 30.2258 15.5157 30.4319 15.522 30.6579C15.5801 30.8438 15.7513 30.9781 15.9561 30.9781C16.2091 30.9781 16.4139 30.7732 16.4139 30.5204C16.4139 30.2673 16.2091 30.0623 15.9561 30.0623ZM18.5313 33.448H18.0014C17.9969 34.2973 18.5461 34.4513 18.5461 34.4513C18.3913 34.2954 18.1947 33.7844 18.5313 33.448H18.5313ZM20.1744 28.0776C20.1744 26.1351 24.8265 25.9072 24.8265 24.3069C24.8265 23.6552 24.2639 23.3609 23.864 23.3609C23.9772 23.4743 24.5823 24.7754 22.8447 24.7754C21.2735 25.3013 17.8519 28.2755 20.2269 29.3066C20.2258 29.6055 20.1856 31.8313 18.7592 31.6564C16.7043 31.4021 16.1917 32.2515 16.5861 33.2075C16.5861 31.757 17.6046 32.0265 18.9348 32.0265C19.7667 32.0265 20.9828 30.9745 20.9828 29.2034C20.9828 29.2034 20.1744 28.8932 20.1744 28.0776ZM16.2198 29.2681V25.3676C15.9561 25.3676 15.7456 25.7741 15.7456 25.7741V29.1019V29.0806L15.4575 29.0814L15.4599 29.5015C15.6816 29.5014 16.2198 29.3871 16.2198 29.268L16.2198 29.2681ZM17.0205 34.2941C17.0205 34.2941 16.6092 33.6479 17.0499 33.2075H16.5862C16.4 34.0145 17.0205 34.2941 17.0205 34.2941ZM19.8883 33.4565C19.8883 33.4565 19.6669 33.4565 19.5038 33.4565C19.5008 34.0559 20.1972 34.2828 20.1972 34.2828C19.9518 34.0385 19.7837 33.5596 19.8883 33.4565Z" fill="#6A7AB5"/>
<path d="M6.95259 26.9807L6.92695 26.902L6.91598 26.8201C6.87843 26.5396 6.8106 26.0171 6.40722 25.9236C6.29937 25.8986 6.18793 25.9114 6.06902 25.9603C6.10137 25.8362 6.09758 25.7238 6.0586 25.6208C5.90989 25.2341 5.38343 25.239 5.10057 25.2427H5.01742L4.93549 25.2276C4.65765 25.1764 4.13933 25.0796 3.92666 25.4346C3.86952 25.5293 3.84682 25.6391 3.85656 25.7669C3.74891 25.6975 3.6404 25.6663 3.53094 25.6716C3.11697 25.6937 2.9587 26.196 2.87403 26.4664L2.8482 26.5449L2.80979 26.6178C2.67414 26.8669 2.42259 27.3287 2.69429 27.6414C2.76685 27.725 2.86447 27.781 2.98916 27.8105C2.89058 27.8921 2.82692 27.9855 2.7991 28.0923C2.69098 28.4917 3.12028 28.7972 3.35016 28.9608L3.41761 29.0106L3.4757 29.0693C3.67048 29.2755 4.03243 29.6569 4.41358 29.4954C4.51442 29.452 4.59805 29.3768 4.66503 29.2675C4.71271 29.3867 4.78129 29.4751 4.87372 29.536C5.22091 29.7609 5.64368 29.4475 5.8711 29.2803L5.93837 29.231L6.01301 29.1944C6.26843 29.0721 6.74428 28.8463 6.70833 28.4337C6.69878 28.323 6.65251 28.2214 6.56974 28.1241C6.69717 28.1165 6.80255 28.0779 6.88807 28.0086C7.21048 27.7481 7.04265 27.2491 6.95259 26.9807" fill="white"/>
<path d="M5.13867 27.3151C7.45471 28.684 6.74141 27.1787 6.69052 26.9561C6.63924 26.7342 6.61976 25.0692 5.13867 27.3151Z" fill="#FF3B3B"/>
<path d="M4.99372 27.6572C4.40757 30.2819 5.61876 29.1393 5.81411 29.0229C6.00937 28.9055 7.58694 28.3719 4.99372 27.6572Z" fill="#FF3B3B"/>
<path d="M4.62106 27.6255C1.9427 27.8783 3.40458 28.6776 3.57628 28.8268C3.74845 28.9756 4.74243 30.3119 4.62106 27.6255Z" fill="#FF3B3B"/>
<path d="M4.53723 27.2608C3.46824 24.7921 3.15993 26.4291 3.07091 26.6394C2.98189 26.8479 2.01818 28.2071 4.53723 27.2608Z" fill="#FF3B3B"/>
<path d="M42.7932 26.618L42.755 26.5451L42.7288 26.4666C42.6441 26.1961 42.4859 25.6939 42.073 25.6717C41.9623 25.6665 41.8544 25.6974 41.7467 25.7662C41.7566 25.6392 41.7326 25.5295 41.6769 25.4347C41.4633 25.0795 40.9458 25.1764 40.6679 25.2276L40.5851 25.2427H40.5024C40.2205 25.239 39.6936 25.2342 39.5455 25.6209C39.5052 25.7239 39.5022 25.8363 39.5338 25.9604C39.4167 25.9116 39.3051 25.8989 39.1965 25.9238C38.7935 26.017 38.7242 26.5396 38.6886 26.8201L38.6762 26.9021L38.6512 26.9808C38.5607 27.2491 38.3934 27.7482 38.7157 28.0089C38.8012 28.0781 38.9059 28.1168 39.0341 28.1244C38.9513 28.2217 38.9051 28.3234 38.8955 28.434C38.8598 28.8466 39.3349 29.0724 39.5908 29.1947L39.6647 29.2313L39.7319 29.2806C39.9601 29.448 40.3833 29.7612 40.7293 29.5363C40.823 29.4754 40.891 29.387 40.9381 29.2678C41.0055 29.3771 41.0883 29.4523 41.1901 29.4958C41.5711 29.6572 41.9334 29.2758 42.128 29.0696L42.1866 29.011L42.2531 28.9611C42.4837 28.7976 42.9127 28.492 42.805 28.0927C42.7761 27.9856 42.7137 27.8924 42.6144 27.8108C42.7386 27.7812 42.8366 27.7253 42.9087 27.6417C43.1809 27.3289 42.9297 26.8672 42.7932 26.618" fill="white"/>
<path d="M40.746 27.0687C38.7291 25.2894 40.3805 25.5017 40.6076 25.4818C40.8336 25.4628 42.4241 24.9661 40.746 27.0687Z" fill="#FF3B3B"/>
<path d="M40.4659 27.3151C38.1499 28.684 38.8617 27.1787 38.9137 26.9561C38.9645 26.7342 38.9837 25.0692 40.4659 27.3151Z" fill="#FF3B3B"/>
<path d="M40.6102 27.6572C41.1966 30.2819 39.9853 29.1393 39.7896 29.0229C39.5945 28.9055 38.0175 28.3719 40.6102 27.6572Z" fill="#FF3B3B"/>
<path d="M40.9809 27.6255C43.6594 27.8783 42.1985 28.6776 42.0262 28.8268C41.855 28.9756 40.8596 30.3119 40.9809 27.6255Z" fill="#FF3B3B"/>
<path d="M41.0645 27.2608C42.1341 24.7921 42.4418 26.4291 42.5312 26.6394C42.6197 26.8479 43.5834 28.2071 41.0645 27.2608Z" fill="#FF3B3B"/>
<path d="M41.5847 27.3382C41.5822 27.3168 41.5752 27.2976 41.5723 27.2767C41.7874 27.1188 42.0197 26.9495 42.0197 26.9495L41.9974 26.8995C41.9974 26.8995 41.7263 26.9468 41.4664 26.9921C41.3359 26.7783 41.1135 26.6333 40.8588 26.6085C40.778 26.3653 40.6972 26.1177 40.6972 26.1177L40.6427 26.1223C40.6427 26.1223 40.6061 26.3804 40.5692 26.6332C40.4127 26.6754 40.2722 26.764 40.1654 26.8908C40.1085 26.9591 40.0673 27.0364 40.0346 27.1171C39.7727 27.1171 39.496 27.1179 39.496 27.1179L39.4844 27.1718C39.4844 27.1718 39.7424 27.2976 39.9807 27.4142C39.9815 27.436 39.9787 27.4574 39.9807 27.4794C39.9989 27.6893 40.0972 27.8778 40.2558 28.0152C40.172 28.2769 40.0778 28.5693 40.0778 28.5693L40.124 28.5972C40.124 28.5972 40.3413 28.3721 40.5347 28.1735C40.6358 28.2067 40.7433 28.2197 40.852 28.2101C40.9616 28.2018 41.0654 28.1689 41.1597 28.12C41.384 28.2815 41.6369 28.4645 41.6369 28.4645L41.6784 28.4288C41.6784 28.4288 41.535 28.1578 41.4071 27.9151C41.5397 27.7515 41.6021 27.5476 41.5847 27.3381" fill="white"/>
<path d="M40.7421 26.9346C40.6152 26.9444 40.5008 27.0044 40.4192 27.1025C40.3375 27.1997 40.298 27.3226 40.3096 27.4489C40.3318 27.7104 40.5633 27.9048 40.8241 27.8817C40.952 27.8701 41.0654 27.8104 41.1482 27.7135C41.229 27.6154 41.2684 27.4933 41.2577 27.3661C41.2349 27.1046 41.003 26.9109 40.7421 26.9346Z" fill="#FF3B3B"/>
<path d="M4.85731 27.0687C6.87488 25.2894 5.22247 25.5017 4.99609 25.4818C4.76895 25.4628 3.1787 24.9661 4.85731 27.0687Z" fill="#FF3B3B"/>
<path d="M5.62101 27.4142C5.86102 27.2977 6.11777 27.1717 6.11777 27.1717L6.10574 27.1178C6.10574 27.1178 5.8296 27.117 5.56708 27.117C5.5353 27.0364 5.49396 26.959 5.43672 26.8908C5.33001 26.764 5.18962 26.6755 5.03277 26.6331C4.99682 26.3801 4.96021 26.1223 4.96021 26.1223L4.90478 26.1177C4.90478 26.1177 4.82446 26.3652 4.7448 26.6085C4.48853 26.6333 4.26584 26.7783 4.13557 26.9921C3.87664 26.9468 3.604 26.8995 3.604 26.8995L3.58301 26.9495C3.58301 26.9495 3.81478 27.1187 4.02972 27.2767C4.02622 27.2976 4.01997 27.3168 4.0177 27.3381C3.99992 27.5487 4.06377 27.7514 4.19612 27.9151C4.06727 28.1576 3.92385 28.4288 3.92385 28.4288L3.96633 28.4645C3.96633 28.4645 4.21882 28.2815 4.44293 28.12C4.53715 28.1692 4.64093 28.2008 4.7502 28.2101C4.85975 28.2199 4.96703 28.2067 5.06806 28.1735C5.26095 28.3722 5.47797 28.5972 5.47797 28.5972L5.52556 28.5693C5.52556 28.5693 5.43114 28.2767 5.34695 28.016C5.50521 27.8776 5.60341 27.6891 5.62205 27.4792C5.62432 27.4574 5.62098 27.436 5.62098 27.4143" fill="white"/>
<path d="M5.18493 27.1025C5.10301 27.0044 4.9892 26.9442 4.86168 26.9346C4.60105 26.9109 4.36918 27.1046 4.34648 27.3662C4.3357 27.4934 4.37495 27.6155 4.45584 27.7136C4.53757 27.8105 4.65252 27.8702 4.77938 27.8818C5.04 27.9049 5.27178 27.7104 5.29439 27.449C5.30508 27.3226 5.2661 27.1997 5.18493 27.1025Z" fill="#FF3B3B"/>
<path d="M5.15212 15.8785C4.02456 15.6793 2.94488 16.4363 2.74564 17.5638C2.5467 18.6921 3.30275 19.7717 4.43041 19.9709C5.55901 20.1699 6.63917 19.4134 6.83774 18.2852C7.03734 17.1575 6.28082 16.0779 5.15212 15.8785Z" fill="white"/>
<path d="M5.62274 17.4484C5.60449 17.4373 5.5727 17.4167 5.53419 17.3912C5.36381 17.2783 5.02978 17.0574 5.0206 17.0507C4.97434 17.0189 4.92931 16.9887 4.88494 16.9588C4.73642 16.8593 4.6036 16.7727 4.47872 16.7006C4.43057 16.6733 4.38402 16.6477 4.3372 16.6248C4.13863 16.5247 3.94829 16.4641 3.72361 16.4443C3.55039 16.5694 3.40007 16.7243 3.27832 16.9033C3.79494 17.0898 4.29936 17.3886 5.34962 18.0409C5.4097 17.9021 5.61072 17.4745 5.62274 17.4484Z" fill="#FF3B3B"/>
<path d="M5.13811 18.5629C5.1591 18.5106 5.25144 18.2769 5.28919 18.187C4.2129 17.5184 3.71312 17.2226 3.19537 17.0396C3.11505 17.1837 3.05488 17.341 3.01562 17.5085C3.31116 17.9142 4.10317 18.3129 5.13811 18.5629Z" fill="#FF3B3B"/>
<path d="M5.02232 16.8631C5.42533 16.6247 5.8832 16.6896 6.23663 16.8102C6.10485 16.6401 5.94526 16.4913 5.75965 16.3756C5.4258 16.3091 4.96471 16.2987 4.59766 16.5905C4.73114 16.6689 4.86897 16.7604 5.02232 16.8631Z" fill="#FF3B3B"/>
<path d="M3.41372 18.7881C3.46765 18.8251 3.52289 18.8603 3.58164 18.8933C3.70027 18.9588 3.82874 19.0155 3.96147 19.064C4.01776 19.0853 4.07499 19.1051 4.1327 19.1237C4.33458 19.1901 4.79784 19.3105 4.83237 19.3185C4.83948 19.3007 5.01306 18.8714 5.0789 18.7083C4.27649 18.5093 3.39783 18.161 2.98035 17.708C2.95529 17.9172 2.96503 18.1241 3.00921 18.3203C3.09728 18.5121 3.23871 18.665 3.41372 18.7881Z" fill="#FF3B3B"/>
<path d="M4.86036 19.4879L4.69291 19.4447C4.53767 19.4053 4.36938 19.3611 4.19824 19.3086C4.28168 19.4864 4.41299 19.625 4.553 19.7323C4.74059 19.7572 4.92573 19.7525 5.10367 19.7217C4.97511 19.6217 4.86036 19.4879 4.86036 19.4879" fill="#FF3B3B"/>
<path d="M6.53799 17.3943C6.49987 17.2697 6.44982 17.149 6.38691 17.0365C6.07056 16.8955 5.58876 16.7576 5.16797 16.9635L5.74835 17.3467C5.86935 17.3359 5.98069 17.3326 6.08258 17.3351C6.1382 17.3359 6.18986 17.339 6.23924 17.3438C6.35285 17.3538 6.44982 17.3721 6.53799 17.3943" fill="#FF3B3B"/>
<path d="M6.24078 17.501C6.22385 18.4548 5.77421 19.1904 5.38672 19.6506C5.99321 19.4398 6.47152 18.9172 6.59081 18.242C6.63168 18.0113 6.62449 17.7843 6.58173 17.5683C6.48751 17.539 6.37484 17.5145 6.24079 17.501" fill="#FF3B3B"/>
<path d="M4.45297 16.5107C4.72457 16.2713 5.04536 16.1904 5.34118 16.1838C5.26607 16.1597 5.18953 16.139 5.10979 16.1255C4.68796 16.051 4.2753 16.1295 3.9248 16.3193C4.11145 16.3558 4.28013 16.4213 4.45297 16.5107Z" fill="#FF3B3B"/>
<path d="M5.77005 17.4997C5.63203 17.7872 5.55086 17.9632 5.4835 18.1234C5.46279 18.1719 5.44264 18.219 5.4223 18.268C5.39013 18.3483 5.29099 18.598 5.29099 18.598L5.23186 18.7445L4.97559 19.3794C5.04625 19.4732 5.13187 19.5496 5.21606 19.6093C5.59684 19.175 6.0707 18.445 6.08517 17.4896C5.98934 17.4861 5.88395 17.4896 5.77005 17.4997" fill="#FF3B3B"/>
<path d="M4.00583 19.2442C3.87802 19.2002 3.7504 19.1501 3.62988 19.0913C3.67491 19.2304 3.73981 19.3538 3.80518 19.4598C3.94188 19.5475 4.09192 19.6166 4.25208 19.666C4.1483 19.5491 4.05871 19.4108 4.00583 19.2442Z" fill="#FF3B3B"/>
<path d="M3.44112 18.9886C3.35446 18.9367 3.27386 18.8789 3.19922 18.8154C3.2837 18.9665 3.39013 19.105 3.51358 19.2265C3.48426 19.1507 3.45852 19.0723 3.44112 18.9886Z" fill="#FF3B3B"/>
<path d="M38.5405 18.2852C38.7399 19.4134 39.8192 20.1699 40.9471 19.9709C42.0753 19.7718 42.8312 18.6921 42.6331 17.5638C42.434 16.4363 41.3541 15.6793 40.2258 15.8785C39.0977 16.0778 38.3417 17.1574 38.5405 18.2852Z" fill="white"/>
<path d="M39.7559 17.4484C39.7737 17.4373 39.8057 17.4167 39.8451 17.3912C40.0156 17.2783 40.3491 17.0574 40.3576 17.0507C40.4049 17.0189 40.45 16.9887 40.4943 16.9588C40.6412 16.8593 40.7752 16.7727 40.9003 16.7006C40.9483 16.6733 40.9954 16.6477 41.0414 16.6248C41.2395 16.5247 41.4309 16.4641 41.6552 16.4443C41.8283 16.5694 41.9793 16.7243 42.0993 16.9033C41.5831 17.0898 41.0802 17.3886 40.0286 18.0409C39.9683 17.9021 39.7683 17.4745 39.7559 17.4484Z" fill="#FF3B3B"/>
<path d="M40.2399 18.5629C40.2186 18.5106 40.1255 18.2769 40.0898 18.187C41.164 17.5184 41.6653 17.2226 42.1827 17.0396C42.2626 17.1837 42.3231 17.341 42.3625 17.5085C42.0664 17.9142 41.2745 18.3129 40.2399 18.5629Z" fill="#FF3B3B"/>
<path d="M40.3565 16.8631C39.9531 16.6247 39.4956 16.6896 39.1416 16.8102C39.2736 16.6401 39.4341 16.4913 39.6196 16.3756C39.9531 16.3091 40.4139 16.2987 40.7805 16.5905C40.648 16.6689 40.5093 16.7604 40.3565 16.8631Z" fill="#FF3B3B"/>
<path d="M41.9638 18.7881C41.9111 18.8251 41.8561 18.8603 41.7963 18.8933C41.6782 18.9588 41.55 19.0155 41.4175 19.064C41.3608 19.0853 41.3031 19.1051 41.2455 19.1237C41.0447 19.1901 40.581 19.3105 40.5461 19.3185C40.5384 19.3007 40.3643 18.8714 40.2998 18.7083C41.1019 18.5093 41.9799 18.161 42.3986 17.708C42.4236 17.9172 42.4128 18.1241 42.3694 18.3203C42.281 18.5121 42.1399 18.665 41.9638 18.7881Z" fill="#FF3B3B"/>
<path d="M40.5189 19.4879L40.6852 19.4447C40.8409 19.4053 41.0103 19.3611 41.1815 19.3086C41.0968 19.4864 40.9661 19.625 40.8264 19.7323C40.6391 19.7572 40.4534 19.7525 40.2764 19.7217C40.4034 19.6217 40.5189 19.4879 40.5189 19.4879" fill="#FF3B3B"/>
<path d="M38.8408 17.3943C38.8792 17.2697 38.9284 17.149 38.9928 17.0365C39.3082 16.8955 39.789 16.7576 40.2101 16.9635L39.6303 17.3467C39.5091 17.3359 39.3978 17.3326 39.2957 17.3351C39.2408 17.3359 39.1889 17.339 39.1388 17.3438C39.0254 17.3538 38.9295 17.3721 38.8408 17.3943" fill="#FF3B3B"/>
<path d="M39.138 17.501C39.1544 18.4548 39.6052 19.1904 39.9931 19.6506C39.385 19.4398 38.9061 18.9172 38.788 18.242C38.7475 18.0113 38.7533 17.7843 38.7975 17.5683C38.891 17.539 39.0044 17.5145 39.138 17.501" fill="#FF3B3B"/>
<path d="M40.9267 16.5107C40.6549 16.2713 40.3334 16.1904 40.0381 16.1838C40.1129 16.1597 40.1891 16.139 40.2696 16.1255C40.691 16.051 41.1036 16.1295 41.454 16.3193C41.2681 16.3558 41.099 16.4213 40.9267 16.5107Z" fill="#FF3B3B"/>
<path d="M39.6076 17.4997C39.746 17.7872 39.8257 17.9632 39.8953 18.1234C39.9153 18.1719 39.9345 18.219 39.9548 18.268C39.9875 18.3483 40.0866 18.598 40.0866 18.598L40.1453 18.7445L40.4022 19.3794C40.331 19.4732 40.2461 19.5496 40.1616 19.6093C39.781 19.175 39.3063 18.445 39.293 17.4896C39.3883 17.4861 39.4942 17.4896 39.6076 17.4997" fill="#FF3B3B"/>
<path d="M41.373 19.2442C41.5009 19.2002 41.6276 19.1501 41.7492 19.0913C41.7029 19.2304 41.6393 19.3538 41.573 19.4598C41.4365 19.5475 41.2865 19.6166 41.127 19.666C41.2305 19.5491 41.32 19.4108 41.373 19.2442Z" fill="#FF3B3B"/>
<path d="M41.9372 18.9886C42.0227 18.9367 42.1035 18.8789 42.1785 18.8154C42.0939 18.9665 41.9882 19.105 41.8643 19.2265C41.893 19.1507 41.9189 19.0723 41.9372 18.9886Z" fill="#FF3B3B"/>
</g>
<defs>
<clipPath id="clip0_103_6580">
<rect width="44.969" height="44.969" fill="white" transform="translate(0.205078 0.205566)"/>
</clipPath>
</defs>
</svg>
