<svg width="46" height="46" viewBox="0 0 46 46" fill="none" xmlns="http://www.w3.org/2000/svg">
<g clip-path="url(#clip0_103_6674)">
<path d="M44.5539 22.6888C44.5539 34.7647 34.7652 44.5534 22.6898 44.5534C10.6144 44.5534 0.825195 34.7647 0.825195 22.6888C0.825195 10.6134 10.6144 0.824707 22.6898 0.824707C34.7652 0.824547 44.5539 10.6134 44.5539 22.6888Z" fill="white" stroke="#0053A0" stroke-width="0.752324"/>
<path fill-rule="evenodd" clip-rule="evenodd" d="M2.47059 22.9472C2.32931 11.7836 11.2679 2.61555 22.4321 2.47401C33.5957 2.33267 42.7637 11.2719 42.9053 22.4355C43.0463 33.5991 34.1074 42.7671 22.9438 42.9081C11.7802 43.0497 2.61214 34.1108 2.47059 22.9472H2.47053H2.47059ZM22.4289 2.22189C11.1259 2.36499 2.07532 11.6474 2.21847 22.9504C2.36168 34.2534 11.644 43.3034 22.947 43.1608C34.25 43.0176 43.3 33.7353 43.1574 22.4323C43.0142 11.1293 33.7319 2.07874 22.4289 2.22189Z" fill="#0053A0"/>
<path fill-rule="evenodd" clip-rule="evenodd" d="M21.947 9.25393C19.4648 9.24806 16.581 10.2319 14.6425 11.8365C14.6361 11.8408 14.6361 11.8579 14.6495 11.8648C15.7578 12.3044 16.5179 12.8877 17.7027 13.5511C17.7454 13.5746 17.7603 13.5645 17.7694 13.526C18.3426 10.6149 21.8962 11.4226 22.2279 9.29987C22.2135 9.28545 22.2156 9.25927 22.1852 9.25767C22.1067 9.25554 22.0265 9.25447 21.947 9.25393ZM23.4249 9.25767C23.4004 9.25767 23.3924 9.26782 23.3934 9.30681C23.2444 9.68071 23.6824 10.0701 23.9377 10.3222C23.9623 10.3452 24.0029 10.3719 24.0333 10.3852C25.6197 11.031 27.3755 11.508 27.76 13.3327C27.7681 13.361 27.7734 13.3791 27.8028 13.354C28.6483 12.7932 29.4869 12.2243 30.3426 11.6848C30.3864 11.6667 30.3704 11.6464 30.3426 11.6287C28.409 10.2538 25.9931 9.35916 23.4249 9.25767ZM13.5321 12.7606C11.9851 14.1323 10.6578 15.9265 9.9665 17.9423C9.95875 17.9621 9.97056 17.9712 9.99812 17.9738C11.5119 18.1106 12.0065 16.1364 13.1667 15.4025C13.1822 15.3934 13.1961 15.3854 13.195 15.3667C13.1128 14.4672 13.0732 13.7092 13.5321 12.7606ZM32.2052 13.1922C32.2907 13.8903 32.2255 14.5526 32.0401 15.1979C32.0321 15.2283 32.0332 15.2518 32.0679 15.2753C33.1864 15.8736 33.7927 17.6208 35.0853 17.6891C35.1013 17.6961 35.1259 17.6971 35.1168 17.6758C34.6681 16.1166 33.3776 14.2717 32.2052 13.1922ZM35.5318 18.6976C33.9454 20.2883 36.52 22.9536 33.0272 24.4412C32.719 24.532 32.4231 24.6399 32.1443 24.641C31.3677 24.6447 30.2625 24.0524 30.2695 25.2312C30.2695 25.2526 30.2887 25.2676 30.3143 25.2777C31.3933 25.7397 32.8515 26.7413 32.875 28.2849C32.9279 30.1251 30.9911 31.3643 31.2982 33.112C35.4373 29.5327 37.1396 24.2479 35.5318 18.6976ZM9.65685 18.9604C9.6435 18.9641 9.63373 18.9786 9.62165 19.0069C8.05421 23.2902 9.59436 29.9488 14.4027 33.4661C14.4037 33.3753 14.4566 33.1862 14.5116 33.0591C14.5319 33.01 14.5287 32.9469 14.5116 32.8871C14.3354 32.1126 13.8733 31.3317 13.4337 30.5716C11.9172 28.0542 12.7591 26.3278 15.2076 25.2077C15.2391 25.1976 15.2461 25.18 15.229 25.1474C15.1911 25.064 15.1537 24.9818 15.1168 24.8974C15.1056 24.875 15.1168 24.8301 15.0607 24.8381C14.5116 24.9065 13.8936 24.9551 13.3349 24.93C12.4942 24.7425 11.6912 24.4076 11.0866 23.5172C10.0043 22.0061 11.4866 19.9737 9.699 18.9716C9.6842 18.9631 9.67026 18.9572 9.65685 18.9604ZM32.3243 25.1516C32.3649 25.1516 32.4066 25.1575 32.4472 25.1687C32.9898 25.2676 33.8108 25.587 34.2985 26.1906C34.33 26.2296 34.3156 26.2621 34.267 26.2579C33.4834 26.2344 32.6031 26.1478 31.9937 25.6676C31.9071 25.5993 31.8276 25.5314 31.8884 25.3685C31.9333 25.2654 32.077 25.1864 32.1972 25.165C32.241 25.1575 32.2826 25.1506 32.3243 25.1516ZM12.9418 25.4711C12.9856 25.47 13.0284 25.4711 13.0722 25.4743C13.1085 25.4785 13.1453 25.4785 13.1699 25.5026C13.3205 25.6821 13.2906 25.9331 13.0091 26.1275C12.4146 26.5084 11.7255 26.5297 11.0907 26.557C11.0659 26.558 11.0224 26.5308 11.0661 26.4897C11.6445 25.9598 12.2843 25.4775 12.9418 25.4711ZM23.6893 32.6905C23.6813 32.6895 23.6722 32.6916 23.6648 32.6975C23.1776 32.9288 22.4122 33.0415 21.9817 32.7995C21.9299 32.7739 21.8994 32.7931 21.8791 32.823C21.1057 34.1327 19.2677 34.1018 17.9628 33.769C16.9933 33.5505 16.0447 33.2738 15.2611 34.0499C19.3409 36.992 25.6299 37.0839 30.3501 33.8464C29.4597 33.4261 28.6515 33.7284 27.6724 33.9554C26.5641 34.2129 25.0081 34.4457 23.7524 32.7189C23.731 32.713 23.7118 32.6916 23.6893 32.6905ZM22.8742 32.9854C22.8855 32.9865 22.8977 32.9875 22.9127 32.9886C23.0542 33.0052 23.1349 33.0773 23.2214 33.175C23.2631 33.23 23.278 33.2941 23.2711 33.362C23.2476 33.9666 23.144 34.5782 22.9405 35.1075C22.9362 35.1327 22.918 35.138 22.909 35.1075C22.6729 34.3624 22.2696 33.6082 22.7786 33.0212C22.8112 32.9929 22.8384 32.9838 22.8742 32.9854Z" fill="#0053A0"/>
<path fill-rule="evenodd" clip-rule="evenodd" d="M24.1806 3.61816C24.3018 3.77825 24.4231 3.95644 24.3803 4.14857C24.2244 5.0275 24.0566 5.90462 23.8782 6.78008C23.8467 6.97558 23.7046 7.05944 23.562 7.19084C24.5235 7.3655 26.3219 7.70522 27.2866 7.88683C27.261 7.50598 27.5521 7.28324 27.6691 6.93819C27.3486 7.16253 26.9394 7.24479 26.5591 7.16306C26.1633 7.08828 25.1832 6.89332 24.7884 6.8116C24.8525 6.50553 24.8931 6.19359 24.9642 5.88753C25.3487 5.95536 25.9678 6.10118 26.3513 6.14765C26.6782 6.22511 26.9255 5.77108 27.1034 5.55743C26.9784 5.58574 26.7434 5.60016 26.6157 5.57131C26.213 5.49317 25.4892 5.34072 25.0865 5.25884C25.1223 4.96704 25.1842 4.67924 25.2451 4.39454C25.9352 4.57599 27.3779 4.64367 27.8902 5.22369C27.9073 4.90347 27.7262 4.50564 27.9084 4.29273C26.9549 4.10765 25.134 3.79603 24.1806 3.61816ZM23.7207 3.63221C22.8019 3.63649 21.0414 3.73317 20.1232 3.74465C20.3198 4.06797 20.0276 4.35186 20.0207 4.67561C20.3321 4.3931 21.1092 4.30854 21.5136 4.32083C21.5125 5.20703 21.6039 6.09691 21.6161 6.98038C21.6215 7.14757 21.4911 7.25387 21.3843 7.32117C21.7839 7.31689 22.4152 7.26775 22.7897 7.26134C22.6054 7.09202 22.5119 7.07813 22.5087 6.83991C22.4435 6.02427 22.4109 5.07339 22.3885 4.26101C22.8019 4.23088 23.562 4.30507 23.8996 4.51045C23.898 4.15364 23.5529 3.79876 23.7207 3.63221ZM19.7018 3.87113C19.1147 3.99917 17.8072 4.09115 17.3013 4.47541C16.6967 4.89519 16.5573 5.82663 17.3409 6.23525C17.8344 6.43716 18.7708 6.21763 19.2584 6.25662C19.5939 6.27051 19.7354 6.73521 19.5148 6.96276C19.0384 7.38633 17.7441 7.38633 17.179 7.21541C17.3174 7.53963 17.4723 7.81952 17.6186 8.13948C17.8109 8.01876 18.1522 7.98885 18.3696 7.94986C18.8327 7.88255 19.9298 7.58557 20.2391 7.2122C20.6087 6.77794 20.6269 6.14872 20.2669 5.75079C19.9432 5.39611 18.9406 5.45877 18.5144 5.48719C18.2713 5.48719 18.0705 5.57292 17.8397 5.45909C17.6432 5.32385 17.6544 4.98621 17.8745 4.87233C18.2975 4.64821 19.2563 4.61354 19.698 4.79499C19.6724 4.48551 19.7119 4.18062 19.7018 3.87113ZM29.1582 4.66156C29.2373 4.85727 29.2832 5.04208 29.1898 5.22716C28.8415 5.9778 28.4457 6.72293 28.0771 7.47927C27.9735 7.69988 27.841 7.83982 27.5959 7.93223C27.9228 8.09942 28.4842 8.37984 28.8143 8.54703C28.6759 8.04173 29.0188 7.58824 29.2149 7.18069C29.4034 7.28378 29.9093 7.51987 30.0332 7.72498C30.1993 8.00594 30.2399 8.29438 30.2757 8.58549C30.2917 8.84882 30.3131 9.04752 30.0412 9.141C30.4231 9.29643 31.0235 9.61638 31.3787 9.78731C31.0967 9.20616 31.2708 8.41563 30.8942 7.84463C31.1394 7.85531 31.5507 7.89644 31.8113 7.73566C32.2825 7.45951 32.3973 7.02258 32.2365 6.44624C32.1478 6.14285 31.8498 5.96978 31.5966 5.84907C30.992 5.54995 29.7634 4.95689 29.1582 4.66156ZM15.3832 5.04796C14.5403 5.52126 12.9203 6.33087 12.0884 6.81854C12.3055 6.87569 12.4561 6.95688 12.5592 7.14544C12.9753 7.8927 13.3903 8.63943 13.8027 9.3867C13.9095 9.57205 13.8769 9.79532 13.7925 10.0015C14.6573 9.52131 16.2763 8.6795 17.1438 8.20304C16.8729 8.04921 17.0449 7.53589 16.936 7.19831C16.8505 7.49316 16.546 7.7613 16.2977 7.94291C15.8949 8.21319 14.9495 8.69499 14.5302 8.93375C14.3774 8.66294 14.222 8.38572 14.0772 8.10796C14.4041 7.90499 15.1621 7.56955 15.4826 7.35642C15.6701 7.1214 15.56 6.78222 15.6017 6.50607C15.5194 6.60542 15.4126 6.69515 15.2956 6.75551C14.9442 6.95101 14.1728 7.37832 13.8166 7.57061C13.6814 7.31422 13.5196 7.07119 13.4026 6.80465C14.0537 6.50927 15.2214 5.71874 15.9633 5.76093C15.7779 5.49076 15.4799 5.36823 15.3832 5.04796ZM29.9205 5.72942C30.242 5.8902 30.7142 6.10012 31.0064 6.25982C31.7814 6.66257 31.2302 7.50491 30.6693 7.18763C30.3489 7.0808 29.788 6.76406 29.4755 6.63586C29.6101 6.32285 29.7821 6.04243 29.9205 5.72942ZM11.3264 7.3842C11.2374 7.51239 11.1207 7.62937 10.982 7.70415C10.5186 7.91994 9.68818 8.66881 9.489 9.141C9.2114 9.68155 9.21434 10.1788 9.54161 10.8097C9.9146 11.5537 10.4435 11.8988 11.2525 11.8988C12.0562 11.8491 12.78 11.1451 13.1106 10.7114C13.2928 10.5015 13.4696 10.2702 13.7367 10.1527C13.5123 9.90375 13.2762 9.66766 13.0476 9.42196C12.9659 9.72054 12.8217 9.97746 12.6262 10.2264C12.3372 10.5543 11.8887 11.0698 11.379 11.0452C10.8692 11.0201 10.7069 10.7771 10.4796 10.5287C10.2523 10.2803 10.0959 9.99028 10.1354 9.54481C10.1748 9.09933 11.0579 8.27675 11.6954 8.25218C11.5492 7.97443 11.4728 7.66516 11.3264 7.3842ZM8.22425 10.3807C7.99163 10.6809 7.57826 11.2028 7.33186 11.4918C7.56063 11.4581 7.76895 11.4773 7.94318 11.6141C8.6122 12.1349 9.28031 12.661 9.94563 13.185C10.1165 13.3143 10.1937 13.5076 10.2161 13.7288C10.4623 13.4355 10.8587 12.9217 11.0979 12.6359C10.8907 12.6631 10.6889 12.6744 10.5289 12.5451C9.84927 12.0211 9.18117 11.4886 8.50532 10.9608C8.32045 10.8203 8.21736 10.6302 8.22425 10.3807ZM6.63629 12.3977C6.21234 13.2689 5.33512 14.8878 4.91838 15.759C5.14961 15.6672 5.32332 15.6837 5.53313 15.7906C6.28723 16.1682 7.04507 16.5351 7.79907 16.908C7.9841 17.0015 8.1461 17.1868 8.22062 17.3791C8.64099 16.4935 9.41656 14.9263 9.90002 14.0482C9.8004 14.0482 9.70057 13.9648 9.62953 13.8943C9.43029 13.7053 9.32977 13.4895 9.12711 13.3041C9.18352 13.6556 9.13272 14.0765 8.97948 14.4178C8.80139 14.7981 8.32857 15.72 8.15048 16.1009C7.85516 16.001 7.62697 15.8311 7.34243 15.703C7.48494 15.3622 7.90595 14.5898 8.05199 14.2528C8.05359 14.0551 7.81862 13.7213 7.65159 13.4825C7.64438 13.6107 7.58915 13.741 7.52858 13.8591C7.34692 14.2292 6.93744 15.0486 6.7522 15.415C6.4925 15.2836 6.15466 15.1565 5.89501 15.0283C6.07667 14.6587 6.53534 13.7336 6.72411 13.3671C6.87013 13.0792 7.10677 12.8383 7.39862 12.6925C7.09621 12.5707 6.89587 12.6081 6.63629 12.3977ZM7.18075 17.2418C7.30183 17.4378 7.32822 17.7696 7.33543 18.004C7.36738 18.4463 7.1079 19.2849 7.04022 19.7154C6.22549 19.5557 5.40643 19.3592 4.59507 19.1813C4.371 19.1386 4.28062 18.9586 4.14895 18.7663C4.06354 19.1332 3.91804 19.8265 3.83984 20.1967C4.00351 20.076 4.1255 19.982 4.31764 20.0247C5.18573 20.2069 6.04922 20.3975 6.91389 20.5936C7.11308 20.6363 7.31296 20.788 7.41615 20.9766C7.60123 20.1369 7.94789 18.6023 8.12934 17.7583C8.04046 17.7658 7.94768 17.7808 7.86942 17.7311C7.61672 17.5917 7.43698 17.3738 7.18075 17.2418H7.18075Z" fill="#0053A0"/>
<path fill-rule="evenodd" clip-rule="evenodd" d="M7.19048 24.436C7.06839 24.6112 6.89335 24.7549 6.68458 24.7944C5.89042 25.0193 5.04348 25.1913 4.13757 25.4092C3.95575 25.4744 3.84572 25.398 3.67383 25.2656C3.75416 25.6331 3.87798 26.2324 3.96542 26.5998C4.28799 26.148 4.88852 26.1651 5.36359 26.0064C5.47646 26.3873 5.60924 27.1858 5.73605 27.5586C5.93539 27.7659 6.26635 27.7947 6.52648 27.8861C6.45893 27.7846 6.33189 27.5688 6.31221 27.4465C6.21993 27.0437 6.04591 26.2751 5.95382 25.8761C6.25769 25.8082 6.55548 25.7185 6.86373 25.6758C7.02688 26.313 7.40899 27.4993 7.11322 28.1072C7.42341 28.0084 7.67925 27.6665 7.95636 27.7386C7.77368 26.8829 7.35908 25.2992 7.19045 24.436H7.19044H7.19048ZM7.23263 28.3321C7.13123 28.3289 7.02904 28.338 6.92696 28.3492C6.2392 28.4966 5.6002 28.8358 5.30744 29.5542C4.92162 30.5563 5.68369 32.0973 6.70572 32.4738C7.36293 32.7089 8.01298 32.5326 8.50087 32.1683C8.95404 31.858 9.26138 31.3393 9.24926 30.6439C9.22084 29.8592 8.78215 29.0809 8.14256 28.6381C7.83837 28.4245 7.53706 28.3401 7.23265 28.3321H7.23265H7.23263ZM7.20453 29.207C7.58384 29.2049 7.9691 29.3015 8.23035 29.6915C8.55516 30.0953 8.65371 30.6625 8.4236 31.0023C8.09671 31.4317 7.56978 31.6881 7.01485 31.6657C6.41148 31.6443 5.80016 30.8719 5.97845 30.1311C6.14799 29.5275 6.83276 29.2375 7.20453 29.207ZM9.58302 32.1266C9.43474 32.1309 9.29036 32.1603 9.14726 32.2142C8.46094 32.4674 7.9573 32.9102 7.75619 33.6687C7.47422 34.7065 8.60922 36.0691 9.68124 36.2614C10.3695 36.3773 10.9788 36.129 11.3955 35.6846C11.7878 35.3 12.0317 34.7247 11.898 34.041C11.7327 33.2734 11.1123 32.6154 10.405 32.2917C10.0931 32.1758 9.83 32.1176 9.58302 32.1266ZM9.92375 32.9663C10.2238 32.9674 10.4967 33.0876 10.7001 33.3001C11.0759 33.6473 11.2531 34.0736 11.0796 34.5255C10.8407 35.0564 10.3967 35.3993 9.8464 35.4746C9.24854 35.5574 8.47579 34.7664 8.55703 34.1142C8.65441 33.5159 9.0446 33.2718 9.36514 33.1025C9.55503 33.0101 9.74363 32.9652 9.92375 32.9663ZM12.594 34.5153C12.5882 34.8572 12.2378 34.7562 11.9609 35.1867C12.3766 35.1451 13.0737 35.5158 13.399 35.7588C12.9156 36.4927 12.413 37.2101 11.9227 37.9365C11.8317 38.0893 11.672 38.1064 11.5045 38.1197C11.8103 38.3312 12.3654 38.7019 12.6715 38.9135C12.6106 38.6694 12.633 38.4669 12.766 38.2671C13.1987 37.6272 13.6372 36.9889 14.0688 36.3458C14.0934 36.3197 14.1137 36.2593 14.1612 36.2748C14.5154 36.4671 15.0682 36.9483 15.1932 37.3361C15.3417 37.0504 15.3134 36.5942 15.5863 36.4826C14.8342 35.9645 13.3493 35.0222 12.594 34.5153ZM15.7733 36.6401C15.8833 36.8405 15.855 37.0696 15.7909 37.2801C15.5452 38.1026 15.2322 38.8424 14.9859 39.6623C14.9309 39.861 14.8065 39.9791 14.5543 40.0378C15.3347 40.2851 16.2406 40.6152 17.0659 40.8674C17.9205 41.144 18.6881 40.9379 18.7805 40.041C18.8344 39.5261 18.2859 39.2879 18.0711 39.1731C18.6363 39.243 19.0166 38.9412 19.047 38.4108C19.0951 38.0332 18.7511 37.6203 17.9723 37.3677C17.4136 37.1855 16.3362 36.7977 15.7733 36.6401ZM27.5987 37.2865C27.2365 37.3799 26.6308 37.6331 26.2745 37.7544C26.4732 37.8398 26.6105 37.8981 26.6778 38.0984C26.9321 38.8707 27.2392 39.5913 27.5031 40.3615C27.5752 40.604 27.6638 40.8786 27.5314 41.1168C28.3518 40.8642 29.7753 40.3503 30.5883 40.0806C30.5418 40.0127 30.4713 39.9577 30.4756 39.8722C30.4553 39.5822 30.5284 39.3472 30.5039 39.0539C30.3159 39.4449 29.9024 39.6452 29.4815 39.8092C29.2444 39.8856 28.5777 40.1826 28.3427 40.2061C28.0831 39.4246 27.7739 38.6021 27.5111 37.8206C27.439 37.6182 27.4918 37.4766 27.5987 37.2865ZM16.5467 37.5428C16.8469 37.6486 17.7021 37.8441 17.9937 37.9659C18.4002 38.1341 18.1363 38.8627 17.7122 38.7692C17.4147 38.7212 16.5793 38.4872 16.3005 38.3825C16.379 38.1026 16.4602 37.8206 16.5467 37.5428ZM20.5261 37.9659C20.5522 38.0198 20.5362 38.1512 20.4914 38.2105L18.9637 40.7963C18.8275 41.018 18.6993 41.1189 18.5097 41.2642C18.8579 41.3182 19.4605 41.4912 19.8103 41.5585C19.6976 41.3134 19.7078 41.01 19.8899 40.776C20.4294 40.8236 21.4379 40.8967 21.9741 40.9619C22.0831 41.2167 22.2225 41.5228 21.9741 41.7556C22.3293 41.753 22.9489 41.7396 23.2951 41.7631C23.1391 41.5778 22.9874 41.3914 22.9222 41.1515C22.7599 40.6729 22.1563 38.8953 21.9667 38.3446C21.9341 38.2447 21.9779 38.1208 21.9811 38.1096L20.5261 37.9659ZM24.5631 37.9857C24.1732 38.0498 23.5098 38.1267 23.137 38.1726C23.3143 38.2971 23.4457 38.374 23.4708 38.5839C23.5627 39.391 23.7256 40.1644 23.8292 40.9721C23.8506 41.2247 23.8549 41.5495 23.6775 41.7556C24.5321 41.6744 26.1047 41.4191 26.9556 41.3203C26.923 41.245 26.868 41.174 26.8893 41.0922C26.9278 40.8033 27.0357 40.5549 27.0715 40.2627C26.7894 40.5853 26.3814 40.7584 25.9369 40.8358C25.6822 40.8786 24.9386 40.9988 24.7073 40.9934C24.6107 40.1746 24.4691 39.3103 24.3698 38.492C24.342 38.2784 24.4205 38.1502 24.5631 37.9857ZM21.1516 38.5871L21.7744 40.2835C21.385 40.2611 20.6409 40.2152 20.2521 40.1714L21.1516 38.5871ZM16.1632 38.9215C16.5205 39.0609 17.1134 39.2617 17.4312 39.3846C18.1272 39.6271 17.944 40.5602 17.1006 40.2702C16.7219 40.15 16.2171 39.9924 15.8577 39.8557C15.9442 39.5496 16.0767 39.2302 16.1632 38.9215Z" fill="#0053A0"/>
<path fill-rule="evenodd" clip-rule="evenodd" d="M34.8356 8.56096C34.2849 8.53746 33.9206 8.68915 33.536 9.01445C33.1055 9.40597 32.8123 9.86053 32.8155 10.5426C32.8299 11.08 33.4169 11.9245 34.123 12.3699C34.3217 12.5168 34.6369 12.7 34.6668 12.9452C34.9008 12.7059 35.1449 12.4698 35.3842 12.246C34.811 12.074 33.8405 11.5174 33.7011 10.8765C33.6124 10.3664 33.7374 10.1997 33.9543 9.92089C34.3591 9.43215 34.7694 9.25535 35.3842 9.4252C35.9338 9.6442 36.4263 10.3327 36.469 10.8343C36.7548 10.6847 37.0256 10.5656 37.3156 10.4198C37.0854 10.2772 36.9839 10.1062 36.8279 9.89952C36.4904 9.40758 35.8553 8.70518 35.085 8.58232C34.9985 8.57218 34.9141 8.5647 34.8356 8.56096ZM37.8674 11.1857C37.8562 11.5458 37.6665 11.6569 37.408 11.8491C36.7804 12.2786 36.1859 12.7161 35.5599 13.1322C35.382 13.2454 35.1518 13.3907 34.8986 13.2689C35.1021 13.5851 35.5043 14.1193 35.7105 14.4317C35.7319 14.1091 35.9049 13.9628 36.1004 13.8346C36.7772 13.3827 37.4134 12.895 38.0923 12.4474C38.2883 12.3149 38.4005 12.2572 38.6611 12.3448C38.4592 12.0361 38.0709 11.495 37.8674 11.1857ZM39.0692 12.879C38.8817 13.1621 38.4656 12.9901 38.1702 13.1039C38.5297 13.3063 38.9266 13.9558 39.0762 14.3372C38.2723 14.7138 37.6078 15.0519 36.8028 15.4333C36.6501 15.5107 36.4086 15.4616 36.2521 15.4017C36.4183 15.7388 36.696 16.3317 36.8627 16.6666C36.9513 16.407 37.2109 16.1864 37.4529 16.0796C38.1724 15.7527 38.7647 15.4365 39.4912 15.1277C39.6755 15.4904 39.9847 16.173 39.8811 16.5822C40.1589 16.4145 40.2951 16.0491 40.6118 16.0833C40.2272 15.25 39.4575 13.7112 39.0692 12.879ZM40.8153 16.4834C40.7389 16.8327 40.4217 17.0341 40.2251 17.2947C39.8314 17.7546 39.3582 18.2728 38.8972 18.7385C38.7872 18.8416 38.5142 18.8742 38.3486 18.9116C38.0057 18.9613 37.846 19.0013 37.5832 18.7813C37.6655 19.1509 37.8001 19.81 37.8743 20.1796C38.0207 19.958 38.1767 19.8276 38.4646 19.7545C38.7209 19.7085 38.948 19.6097 39.1322 19.6904C39.9735 20.1481 41.5519 20.8003 41.7495 21.0049L41.4616 19.6241C41.3682 19.7593 41.2581 19.8244 41.146 19.7817C40.6412 19.5862 40.0419 19.3074 39.6135 19.1434C39.927 18.7791 40.2935 18.4271 40.6252 18.0821C40.7694 17.9063 40.967 17.8369 41.1422 18.0078L40.8153 16.4834Z" fill="#0053A0"/>
<path fill-rule="evenodd" clip-rule="evenodd" d="M38.8196 24.6321C38.6599 24.6364 38.4788 24.6935 38.2854 24.8217C38.0103 25.0637 37.9088 25.4424 37.818 25.781C37.6941 26.3531 37.3865 27.5288 37.2737 28.1024C37.4639 27.9497 37.6279 27.9326 37.8426 27.9796C38.6823 28.1607 39.5188 28.3508 40.3552 28.5319C40.5577 28.5709 40.7072 28.7295 40.8221 28.9074C40.9455 28.1115 41.4401 26.4936 41.4267 25.6817C41.4107 25.0161 40.7938 24.5915 40.2035 24.7298C39.8686 24.8239 39.6806 25.2106 39.6064 25.4819C39.6053 25.0781 39.2987 24.6193 38.8196 24.6321ZM38.8228 25.5973C39.069 25.5989 39.2966 25.8259 39.2309 26.1111C39.1657 26.4081 39.0476 27.0331 38.975 27.3269C38.6892 27.2692 38.3922 27.2051 38.1102 27.1399C38.1914 26.8333 38.2678 26.398 38.3484 26.0866C38.4296 25.7335 38.6321 25.5973 38.8228 25.5973ZM40.3622 25.6502C40.6186 25.6593 40.8536 25.9167 40.797 26.2303C40.7174 26.6074 40.5721 27.3028 40.5026 27.674C40.1912 27.611 39.8686 27.5357 39.554 27.4737C39.6336 27.0961 39.7559 26.5518 39.8563 26.1742C39.9493 25.7875 40.1619 25.6438 40.3622 25.6502ZM37.2145 28.2675C36.9784 28.6916 36.7626 29.0959 36.5153 29.5254C36.7027 29.4357 36.8881 29.4255 37.0425 29.5078C37.591 29.7978 38.0584 30.0697 38.6016 30.372C38.8115 30.4933 39.0391 30.7192 39.0626 31.0183C39.0535 31.4189 38.7768 31.9034 38.4083 32.0663C38.1417 32.1913 37.8383 32.0631 37.6359 31.9461C37.1381 31.647 36.7455 31.4344 36.2477 31.131C36.0757 31.0322 35.9224 30.959 35.9069 30.6396C35.6686 31.0434 35.4539 31.4852 35.2039 31.9013C35.5356 31.7528 35.7643 31.8516 36.0025 31.999C36.4453 32.2538 36.8138 32.4675 37.2524 32.7228C37.5873 32.9129 37.9227 33.0385 38.38 32.9364C38.7747 32.8451 39.1096 32.4632 39.3505 32.0695C39.6053 31.6572 39.8291 31.177 39.8035 30.7208C39.781 30.2497 39.4942 29.9281 39.1748 29.7155C38.6534 29.3999 38.2395 29.1825 37.7133 28.8759C37.5109 28.7541 37.2209 28.5709 37.2145 28.2675ZM37.5018 33.1228C37.4906 33.5197 37.2684 33.9866 36.9858 34.3102C36.8432 34.5015 36.3844 35.0217 36.1991 35.221C35.5709 34.6879 34.9994 34.2045 34.3691 33.6752C34.2024 33.5379 34.071 33.3467 34.063 33.1298C33.8023 33.3985 33.4503 33.7975 33.2089 34.0854C33.4247 34.0549 33.6272 34.1596 33.789 34.2969C34.407 34.8241 35.0063 35.3646 35.6334 35.8838C35.8214 36.0548 35.9181 36.2203 35.9282 36.4922C36.4971 35.8502 37.5526 34.6371 38.107 33.9844C38.0317 33.9518 37.9313 33.9401 37.8885 33.8503C37.7246 33.5512 37.6754 33.36 37.5018 33.1228ZM33.1491 34.1596C32.9728 34.3909 32.6198 34.525 32.3655 34.6371C31.8159 34.8994 31.0446 35.5265 30.8838 36.2609C30.7556 36.8939 30.895 37.4051 31.2449 37.866C31.591 38.3339 32.0274 38.6058 32.6299 38.6213C33.304 38.6149 34.0224 38.1817 34.5544 37.6412C34.7296 37.466 34.9443 37.2251 35.2007 37.2053C34.9871 36.9511 34.8087 36.6642 34.5758 36.4217C34.4252 36.8859 33.6998 37.6481 33.2089 37.7816C32.7757 37.8794 32.4857 37.7624 32.1689 37.4895C31.8169 37.1252 31.5979 36.6765 31.7438 36.1514C31.9606 35.4747 32.8591 34.979 33.4236 35.0767C33.3211 34.7744 33.2436 34.4507 33.1491 34.1596Z" fill="#0053A0"/>
<path fill-rule="evenodd" clip-rule="evenodd" d="M22.7898 9.37354C22.7182 9.57971 22.6696 9.85159 22.6216 10.0904C22.6114 10.1427 22.5852 10.1785 22.5537 10.2164C20.955 11.8253 18.9798 11.3568 18.2437 13.7161C18.1604 13.9154 18.2661 14.1263 18.6224 14.3234C18.6582 14.3448 18.6897 14.3357 18.6897 14.2983C18.6 11.7366 22.0612 11.9096 22.8181 10.132C22.8261 10.1139 22.8518 10.1187 22.8598 10.132C23.4959 11.3189 24.5471 11.4743 25.5081 12.0298C26.2276 12.4449 26.7462 12.8214 26.8931 14.0003C26.8979 14.0558 26.9134 14.0457 26.9417 14.0174C27.0507 13.8972 27.3151 13.8352 27.3071 13.6552C27.0742 11.9161 25.1587 11.5406 23.622 10.8243C23.5579 10.7751 23.4927 10.726 23.4286 10.6768C23.1071 10.2965 22.8619 9.86762 22.7898 9.37354ZM22.762 11.5486C22.7449 11.5496 22.7305 11.5534 22.7156 11.5619C22.699 11.5699 22.683 11.587 22.6739 11.6047C22.6654 11.6207 22.6686 11.6714 22.6739 11.7061C22.6798 11.7286 22.7001 11.7409 22.7124 11.7553C22.738 11.7868 22.7604 11.805 22.7935 11.8295C22.8347 11.8568 22.8854 11.8231 22.8945 11.7905C22.9068 11.7339 22.9068 11.6714 22.8945 11.6217C22.8913 11.6036 22.8774 11.5924 22.8662 11.5758C22.8507 11.5587 22.8336 11.5496 22.8069 11.5486C22.7957 11.5475 22.7775 11.5464 22.762 11.5486ZM23.2844 12.033C23.2791 12.0341 23.2769 12.0352 23.2711 12.04C23.2609 12.048 23.2529 12.0613 23.2529 12.0747C23.2518 12.1447 23.2203 12.2467 23.2844 12.283C23.3159 12.2974 23.3555 12.3028 23.38 12.275C23.3923 12.2547 23.4164 12.2478 23.4148 12.212C23.4148 12.1949 23.3913 12.1895 23.3838 12.1703C23.3736 12.142 23.379 12.0918 23.3688 12.0715C23.3597 12.0565 23.3507 12.0421 23.3341 12.04C23.317 12.0368 23.3015 12.0288 23.2844 12.033ZM22.3224 12.0432C22.276 12.0592 22.2268 12.0929 22.2097 12.1522C22.1894 12.1874 22.1905 12.2152 22.2097 12.2365C22.2343 12.2729 22.2647 12.3156 22.3075 12.3354C22.3438 12.3525 22.3908 12.3525 22.4068 12.275C22.4245 12.2109 22.4255 12.1206 22.3967 12.0961C22.3593 12.0694 22.3684 12.032 22.3224 12.0432ZM22.8315 12.8898C22.6269 13.5057 22.574 13.816 22.4282 14.3064C22.6953 14.3085 22.8427 14.3096 23.035 14.3133C22.8785 13.7546 22.871 13.5329 22.8315 12.8898Z" fill="#0053A0"/>
<path fill-rule="evenodd" clip-rule="evenodd" d="M13.3887 15.9313C13.3796 15.9313 13.3684 15.9361 13.3572 15.9452C11.9326 16.9499 11.5459 18.7307 9.71387 18.4364C11.0142 19.0443 10.9829 20.5388 11.1155 21.9249C11.2275 23.0925 12.1203 24.6656 14.5275 24.3382C14.5542 24.336 14.5723 24.3147 14.5552 24.289C14.4014 24.0695 13.8854 24.1416 13.7572 24.1202C11.8517 23.7629 11.529 22.0104 11.1332 20.0271C11.0411 19.454 10.6692 19.0918 10.441 18.6613C10.4245 18.6175 10.4096 18.6036 10.4656 18.5934C11.6797 18.3611 12.5949 17.3078 13.5681 16.1877C13.5884 16.1754 13.5922 16.1476 13.5681 16.1273C13.5131 16.0723 13.4629 16.0114 13.4132 15.9452C13.4042 15.9361 13.3988 15.9302 13.3887 15.9313ZM13.2065 18.2361C13.1894 18.2372 13.1713 18.2409 13.1568 18.2495C13.1398 18.2575 13.1243 18.2746 13.1141 18.2922C13.1061 18.3082 13.1098 18.359 13.1141 18.3937C13.1211 18.4161 13.1446 18.4284 13.1568 18.4428C13.1825 18.4743 13.2055 18.4925 13.238 18.5171C13.2792 18.5443 13.3267 18.5107 13.3358 18.4781C13.3481 18.4215 13.3481 18.359 13.3358 18.3093C13.332 18.2911 13.3187 18.2799 13.3075 18.2633C13.292 18.2463 13.2749 18.2372 13.2482 18.2361C13.2364 18.235 13.222 18.234 13.2065 18.2361ZM13.754 18.7339C13.7481 18.7355 13.7428 18.7377 13.7369 18.7419C13.7268 18.7489 13.7188 18.7622 13.7188 18.7767C13.7156 18.8456 13.6798 18.9465 13.7439 18.9839C13.7743 19.0005 13.8133 19.0042 13.8379 18.977C13.8518 18.9567 13.8763 18.9524 13.8763 18.9177C13.8774 18.8995 13.856 18.8947 13.8496 18.8749C13.8406 18.8466 13.8448 18.7959 13.8347 18.7767C13.8267 18.7612 13.8171 18.7441 13.8 18.7419C13.7829 18.7377 13.7706 18.7307 13.754 18.7339ZM12.7846 18.8082C12.7386 18.8242 12.6889 18.8611 12.6724 18.9209C12.6521 18.9556 12.6532 18.9802 12.6724 19.0015C12.6959 19.0379 12.7306 19.0806 12.7733 19.0998C12.8097 19.1174 12.8567 19.1212 12.8727 19.0432C12.8903 18.9791 12.8882 18.8862 12.8577 18.8611C12.8209 18.8343 12.831 18.797 12.7846 18.8082ZM13.347 19.6446C13.2717 20.2664 13.0447 20.9768 12.823 21.4436C13.0815 21.4089 13.2882 21.566 13.3043 21.7663C13.3694 21.5393 13.5436 21.3646 13.7503 21.4255C13.6146 20.8614 13.4469 20.2552 13.347 19.6446Z" fill="#0053A0"/>
<path fill-rule="evenodd" clip-rule="evenodd" d="M15.38 25.7011C15.3698 25.7037 15.3586 25.7069 15.3452 25.7123C13.1392 26.5648 12.6986 28.5454 13.9319 30.2894C14.8586 31.8464 15.2688 32.4879 14.8282 33.7394C16.5524 31.6867 19.6072 35.0075 21.3597 32.4468C21.3832 32.4153 21.3463 32.3939 21.31 32.3586C21.2246 32.2993 21.1348 32.2598 21.0472 32.2251C20.982 32.2005 20.9463 32.215 20.9067 32.271C20.1894 33.0268 17.8632 32.8591 16.1042 32.8645C16.0503 32.8645 15.8895 32.8928 15.8366 32.9211C15.6679 33.0076 15.4969 33.084 15.3169 33.068C15.2688 33.068 15.1957 33.0423 15.208 32.9425C15.2956 31.6632 14.5344 30.8502 14.0521 29.7947C13.9014 29.4347 12.784 27.4157 15.4713 26.1893C15.4836 26.1658 15.5092 26.1519 15.506 26.1161C15.498 25.9911 15.4724 25.8677 15.436 25.7395C15.4296 25.708 15.4115 25.6968 15.38 25.7011ZM17.3755 28.1394C17.3584 28.1421 17.3408 28.1453 17.3258 28.1533C17.3093 28.1624 17.2933 28.179 17.2847 28.1961C17.2767 28.2126 17.2788 28.2634 17.2847 28.2981C17.29 28.3205 17.3136 28.3317 17.3258 28.3467C17.3531 28.3782 17.3744 28.3958 17.407 28.4209C17.4487 28.4476 17.5005 28.414 17.509 28.3814C17.5203 28.3253 17.5219 28.2623 17.509 28.2126C17.5048 28.195 17.4877 28.1848 17.4781 28.1677C17.461 28.1496 17.4476 28.1421 17.4214 28.1394C17.4092 28.1384 17.3926 28.1373 17.3755 28.1394ZM17.931 28.6105C17.9251 28.6116 17.9187 28.6127 17.9129 28.6175C17.9038 28.6255 17.8947 28.6389 17.8958 28.6522C17.8926 28.7222 17.8568 28.8221 17.9198 28.8605C17.9513 28.876 17.986 28.8792 18.0117 28.8525C18.024 28.8322 18.0533 28.829 18.0533 28.7927C18.0544 28.7761 18.0298 28.7713 18.0218 28.751C18.0127 28.7233 18.0208 28.6725 18.0117 28.6522C18.0026 28.6367 17.994 28.6196 17.9759 28.6175C17.9599 28.6127 17.9476 28.6073 17.931 28.6105ZM16.9402 28.6704C16.8942 28.6859 16.8451 28.7233 16.828 28.7825C16.8066 28.8162 16.8088 28.8424 16.828 28.8637C16.8515 28.8995 16.883 28.9412 16.9258 28.9615C16.9616 28.9796 17.0091 28.9828 17.0235 28.9054C17.0417 28.8413 17.0438 28.7478 17.0134 28.7233C16.9765 28.696 16.9867 28.6592 16.9402 28.6704ZM17.4466 29.4705C17.3712 30.0923 17.1437 30.8027 16.9226 31.2695C17.1811 31.2348 17.3878 31.3886 17.4038 31.59C17.469 31.363 17.6431 31.191 17.8498 31.2524C17.7136 30.6884 17.5454 30.0821 17.4466 29.4705Z" fill="#0053A0"/>
<path fill-rule="evenodd" clip-rule="evenodd" d="M29.9774 25.6987C29.9662 25.6998 29.9534 25.711 29.9491 25.7233C29.9005 25.8269 29.8514 25.9257 29.8017 26.0293C29.7579 26.1463 29.7558 26.2462 29.932 26.3023C33.0926 27.5944 31.5366 30.0392 30.7124 31.4739C30.627 31.6213 30.4224 32.0561 30.4069 32.2473C30.3754 32.4508 30.4069 32.6281 30.4021 32.8407C30.4021 32.8904 30.3326 32.9038 30.2942 32.8968C28.2709 32.508 26.5205 34.2957 24.8619 32.3664C24.7092 32.2014 24.526 32.1853 24.4587 32.2372C24.3855 32.2922 24.3315 32.3531 24.2797 32.4337C24.245 32.4823 24.2461 32.5101 24.2867 32.5598C26.0109 34.9778 28.5598 32.1223 30.7471 33.3252C30.2349 32.0956 31.2444 30.9029 31.8154 29.8303C33.0846 27.674 31.5996 26.3488 29.9887 25.6987C29.9839 25.6966 29.9817 25.6987 29.9774 25.6987ZM28.3024 28.0943C28.2853 28.0965 28.2709 28.1002 28.2559 28.1088C28.2393 28.1168 28.2233 28.1339 28.2142 28.1504C28.2068 28.1675 28.2089 28.2215 28.2142 28.2562C28.2201 28.2786 28.2404 28.2877 28.2527 28.3021C28.2783 28.3326 28.3008 28.3518 28.3333 28.3753C28.375 28.4036 28.4258 28.37 28.4348 28.3374C28.4471 28.2813 28.4471 28.2172 28.4348 28.1686C28.4316 28.1494 28.4177 28.1392 28.4076 28.1226C28.391 28.1056 28.3739 28.0965 28.3472 28.0943C28.336 28.0933 28.3179 28.0922 28.3024 28.0943ZM28.8328 28.5799C28.8269 28.5799 28.8205 28.5825 28.8146 28.5868C28.8045 28.5938 28.797 28.6082 28.797 28.6215C28.7943 28.6904 28.7585 28.7914 28.8216 28.8283C28.8531 28.8453 28.891 28.8485 28.9172 28.8218C28.9295 28.8015 28.9551 28.7983 28.9551 28.762C28.9551 28.7455 28.9353 28.7396 28.9273 28.7193C28.9182 28.6915 28.9225 28.6418 28.914 28.6215C28.9049 28.606 28.899 28.589 28.8808 28.5868C28.8654 28.5825 28.8483 28.5767 28.8328 28.5799ZM27.8526 28.6531C27.8061 28.6691 27.7602 28.707 27.7437 28.7658C27.7234 28.8005 27.7244 28.825 27.7437 28.8464C27.7682 28.8827 27.7987 28.9249 27.8414 28.9442C27.8772 28.9623 27.9242 28.9655 27.9402 28.8881C27.9584 28.824 27.9557 28.7305 27.9253 28.7059C27.8895 28.6792 27.8986 28.6418 27.8526 28.6531ZM28.39 29.4548C28.3157 30.0765 28.0876 30.787 27.866 31.2533C28.1256 31.2185 28.3323 31.3761 28.3472 31.5759C28.4124 31.3489 28.5865 31.1747 28.7932 31.2356C28.6576 30.671 28.4899 30.0653 28.39 29.4548Z" fill="#0053A0"/>
<path fill-rule="evenodd" clip-rule="evenodd" d="M31.896 15.9003C31.8896 15.903 31.8837 15.9083 31.8784 15.9153C31.8543 15.943 31.8346 16.0974 31.8287 16.1994C31.8276 16.2208 31.8276 16.2379 31.85 16.2523C32.303 16.5279 33.6603 18.0668 34.8429 18.3355C34.8947 18.3467 34.9011 18.3905 34.8754 18.4166C33.469 20.0693 35.1462 22.6503 32.374 23.6342C31.8591 23.7757 31.341 23.7084 31.2454 24.0513C31.2427 24.0636 31.2598 24.0791 31.27 24.0791C32.937 24.1849 33.977 23.6229 34.2884 22.4323C34.6896 21.1055 33.9343 19.2205 35.3567 18.1918C35.3925 18.1645 35.3733 18.1175 35.3417 18.1207C33.9038 18.2671 32.9846 16.7416 31.9163 15.904C31.9109 15.9003 31.9019 15.8992 31.896 15.9003ZM32.3527 18.1207C32.3356 18.1245 32.318 18.1298 32.303 18.1389C32.2864 18.1469 32.2704 18.1635 32.2613 18.1816C32.2539 18.1971 32.256 18.2479 32.2613 18.2826C32.2672 18.305 32.2875 18.3178 32.2998 18.3323C32.3254 18.3638 32.3479 18.3782 32.3805 18.4017C32.4221 18.43 32.4729 18.3996 32.4819 18.367C32.4942 18.3109 32.4942 18.2479 32.4819 18.1982C32.4787 18.1806 32.4648 18.1656 32.4547 18.149C32.4381 18.1319 32.421 18.1229 32.3943 18.1207C32.3831 18.1207 32.3682 18.1186 32.3527 18.1207ZM32.8403 18.6629C32.835 18.664 32.8291 18.665 32.8238 18.6693C32.8136 18.6773 32.8088 18.6907 32.8088 18.7045C32.8056 18.774 32.7709 18.8739 32.8339 18.9123C32.8639 18.9278 32.9002 18.9316 32.9247 18.9043C32.9381 18.884 32.9643 18.8808 32.9643 18.845C32.9643 18.8279 32.9429 18.8237 32.936 18.8034C32.9269 18.7751 32.9317 18.7243 32.9215 18.7045C32.9135 18.6885 32.9066 18.672 32.89 18.6693C32.8729 18.665 32.8574 18.6591 32.8403 18.6629ZM31.8367 18.6693C31.7902 18.6853 31.7443 18.7222 31.7277 18.782C31.7074 18.8167 31.7085 18.8413 31.7277 18.8627C31.7512 18.899 31.7827 18.9417 31.8255 18.9604C31.8613 18.9786 31.9083 18.9818 31.9243 18.9043C31.9409 18.8402 31.9398 18.7505 31.9099 18.7259C31.8725 18.6987 31.8826 18.6581 31.8367 18.6693ZM32.3772 19.463C32.303 20.0848 32.0749 20.7952 31.8533 21.262C32.1118 21.2273 32.3201 21.3843 32.3345 21.5857C32.3997 21.3587 32.5738 21.183 32.7811 21.2439C32.6449 20.6809 32.4771 20.0736 32.3772 19.463Z" fill="#0053A0"/>
<path fill-rule="evenodd" clip-rule="evenodd" d="M30.9402 12.0503C30.9349 12.0513 30.929 12.0513 30.9226 12.0546C29.6455 12.4156 27.9207 13.8893 26.4999 15.1809C26.4582 15.2284 26.4011 15.2386 26.3546 15.2226C25.4102 14.9122 24.312 14.8722 23.397 14.8471C22.0916 14.7269 20.5223 14.8866 19.118 15.3417C19.0577 15.363 19.0123 15.308 18.9674 15.2541C17.8558 14.0175 16.2897 13.0048 14.5997 12.2997C14.5527 12.2773 14.5132 12.257 14.4592 12.3067C13.5918 13.1068 13.7825 15.4768 14.5271 16.762C14.6147 16.9484 14.6339 17.2753 14.636 17.3869C14.6889 18.0781 14.8235 18.6753 15.0046 19.3194C15.0494 19.7195 15.2027 20.1265 15.433 20.4716C15.4778 20.5266 15.4586 20.5763 15.426 20.6121C15.1317 20.9069 14.863 21.1857 14.5687 21.4801C14.5474 21.5003 14.5068 21.5148 14.4672 21.5217C14.2231 21.55 14.1467 21.6296 14.0314 21.9116C14.0143 21.9522 14.0164 21.9805 14.0378 22.0142C14.0794 22.0916 14.3625 22.582 14.5965 22.8426C14.8224 23.0665 14.738 23.279 14.5474 23.4826C14.9079 23.7523 15.5531 24.2683 15.5916 24.3468C15.6322 24.5546 15.9986 24.6246 15.7802 24.9226C15.8378 24.936 15.8726 24.9573 15.9174 24.9931C15.95 25.0284 15.957 25.062 15.9602 25.0989C15.9895 25.4226 16.0504 25.7163 16.2299 26.0261C16.9606 27.2654 17.7795 27.0741 18.7527 28.1307C19.3349 28.7636 19.9096 28.7887 20.3054 29.9051C20.2691 30.3287 20.2467 30.5883 20.4213 30.9547C20.628 31.4023 21.1371 31.4194 21.7914 31.7169C21.879 31.7511 21.9276 31.7778 21.9917 31.844C22.1626 32.0107 22.3592 32.1175 22.5819 32.2233C22.7619 32.2997 22.9751 32.2997 23.1407 32.2163C23.4553 32.0363 23.5215 32.1667 24.1032 31.7484C24.6517 31.5866 25.5475 30.9109 25.4519 29.7609C25.4551 29.7272 25.4631 29.7048 25.4733 29.6754C25.4904 29.6225 25.5395 29.5697 25.586 29.5184C25.8071 29.254 26.0603 29.02 26.2152 28.6995C26.2467 28.6221 26.2739 28.5468 26.3444 28.4885C28.5344 26.7008 27.7599 27.4865 28.5515 26.8797C30.1748 25.6453 29.1092 24.2042 31.0102 23.3982C30.7527 22.8528 30.8403 22.8031 31.6779 21.6419C31.2351 21.4079 30.9269 21.1393 30.6197 20.9245C29.6567 20.1693 30.5311 19.5283 30.6101 19.1576C30.6651 18.9471 30.7479 18.6817 30.7682 18.413C30.8708 17.7939 30.8131 17.0643 31.1293 16.7406C31.3622 16.5157 31.4295 15.2845 31.4664 15.1846C31.7217 14.3807 31.6282 14.2729 31.6747 13.7681C31.6821 13.7008 31.7062 13.6468 31.6747 13.5726C31.4968 13.0822 31.2789 12.6079 31.0278 12.1379C31.0054 12.0973 30.9888 12.0583 30.9573 12.0503C30.9525 12.0492 30.9461 12.0503 30.9402 12.0503ZM30.1817 13.9411C30.0792 14.9496 29.7117 15.6173 29.8265 16.4628C29.3981 16.989 29.5418 17.9702 29.1482 18.5572C29.1225 18.5909 29.0878 18.6101 29.0461 18.6064C28.5232 18.5198 28.1568 17.8612 27.7119 17.4889C27.6665 17.4531 27.644 17.4195 27.659 17.3837C27.84 16.981 28.2556 16.5771 27.933 16.168C27.949 14.9955 29.3495 14.807 30.1817 13.9411ZM15.1205 14.1345C15.942 14.5944 16.466 15.3668 16.8698 15.378C16.9328 15.4757 17.0226 15.5767 17.0979 15.6557C17.7025 16.3437 17.2229 16.6001 17.7544 17.4825C17.812 17.6059 17.8377 17.7261 17.7544 17.8014C17.3991 18.1107 17.0835 18.4242 16.7886 18.7639C16.3987 19.2372 16.2085 19.0631 16.0932 18.7639C16.0211 18.5423 15.9447 18.2917 16.0446 18.0364C16.1065 17.8959 16.0691 17.7806 15.9634 17.6465C15.8218 17.4478 15.7064 17.2373 15.5948 17.028C15.5553 16.9494 15.5296 16.8821 15.5142 16.7833C15.3737 15.9132 15.3993 14.612 15.1205 14.1345ZM25.3258 22.7481C25.3857 22.7417 25.4385 22.7828 25.4455 22.8426C25.4519 22.9035 25.407 22.9596 25.3472 22.966C25.2868 22.9719 25.234 22.9281 25.227 22.8672C25.2217 22.8079 25.2665 22.7551 25.3258 22.7481ZM19.7152 22.7583C19.7761 22.7529 19.8284 22.793 19.8343 22.8539C19.8412 22.9137 19.7958 22.966 19.7366 22.973C19.6767 22.9799 19.6228 22.9383 19.6174 22.8784C19.6105 22.8181 19.6554 22.7652 19.7152 22.7583ZM28.755 25.2004C28.8437 25.2014 28.8709 25.2842 28.8608 25.3686C28.7663 26.5603 28.2107 26.2323 26.9416 27.361C26.6099 27.6259 26.7189 27.8834 26.2713 28.2605C25.8963 28.6109 25.5464 28.9773 25.227 29.4308C25.1752 29.5082 25.1373 29.426 25.1325 29.3913C25.117 29.2967 25.0609 29.1899 24.9818 29.1033C24.7719 28.8673 25.1068 28.8966 24.7292 28.331C24.5727 28.1018 24.3916 28.3972 24.2827 28.0254C24.2154 27.7856 24.2794 27.9037 24.1951 27.3471L24.4167 27.1639C24.5209 27.4609 24.6672 27.7092 24.8269 27.9159C24.8504 27.9443 24.8066 28.1948 24.9044 28.4154C24.9247 28.0671 25.2361 27.8668 24.7922 27.2419C24.7345 27.1607 24.7046 27.0811 24.6833 26.9855C24.6806 26.9753 24.6785 26.9673 24.6763 26.9572C25.5171 26.4107 26.4582 25.9647 27.3465 25.5967C27.3011 25.6474 27.2573 25.6982 27.2124 25.7521C27.1921 25.7767 27.2317 25.7858 27.2439 25.7804C27.2979 25.7655 27.3235 25.7724 27.3663 25.7804C27.3946 25.797 27.3914 25.8264 27.3914 25.8531C27.3978 25.9567 27.315 25.9626 27.3396 26.078C27.4859 25.8905 27.6253 25.7083 27.7744 25.5374C27.8096 25.4936 27.8555 25.4418 27.925 25.4498L28.0874 25.4712C28.1424 25.4733 28.1953 25.4632 28.2556 25.4461C28.3988 25.39 28.5056 25.3205 28.6423 25.2281C28.6872 25.2068 28.7246 25.2004 28.755 25.2004ZM16.8169 25.39C16.8223 25.39 16.8314 25.3937 16.8383 25.3969C17.2597 25.6084 17.8345 25.7409 18.1277 25.8643C18.2816 25.9364 18.4471 26.0432 18.5662 26.0614C18.6154 26.0646 18.6154 26.0379 18.5908 26.0085C18.5593 25.9588 18.5278 25.9118 18.4963 25.868C19.2206 26.204 19.8915 26.5939 20.6008 27.0629C20.5987 27.0688 20.5955 27.0741 20.5944 27.08C20.5741 27.1404 20.5538 27.1954 20.5335 27.2451C20.5223 27.2734 20.51 27.3049 20.4988 27.3295C20.4897 27.3508 20.4796 27.3733 20.4705 27.3925C20.4539 27.4283 20.4368 27.4678 20.4213 27.4982C20.401 27.5372 20.3786 27.5832 20.3615 27.6174C20.3562 27.6307 20.3503 27.643 20.3444 27.6564C20.3332 27.6815 20.3209 27.706 20.3134 27.7295C20.3076 27.7466 20.3033 27.7621 20.2985 27.7792C20.2963 27.7867 20.2931 27.7947 20.2921 27.8038C20.2873 27.8262 20.2862 27.8486 20.2841 27.8732C20.283 27.8962 20.283 27.9197 20.2841 27.9443C20.2862 27.9704 20.2873 27.9961 20.2921 28.0254C20.3006 28.096 20.3209 28.1232 20.3444 28.1344C20.3514 28.1376 20.3615 28.1387 20.3695 28.1408C20.3861 28.1446 20.4187 28.1499 20.4288 28.1232C20.4368 28.0981 20.4491 28.0735 20.4603 28.05C20.4715 28.0254 20.4817 28.003 20.4956 27.979C20.5212 27.932 20.5517 27.885 20.5832 27.8385C20.5896 27.8283 20.5965 27.8171 20.6045 27.807C20.6617 27.7263 20.7247 27.6489 20.7829 27.5688C20.7888 27.5607 20.792 27.5543 20.7979 27.5474C20.8214 27.5127 20.8428 27.4769 20.8641 27.4416C20.8721 27.4293 20.8807 27.416 20.8887 27.4037C20.909 27.3684 20.9293 27.3337 20.9448 27.2979L21.3983 27.635C21.323 27.8193 21.2263 28.0692 21.198 28.2466C21.1451 28.6456 20.8999 28.5558 20.7167 28.4042C20.7279 28.8154 20.7594 28.9922 20.5303 29.3528C20.4998 29.4046 20.4715 29.3864 20.4528 29.3528C19.8984 28.284 19.3632 28.5388 18.6619 27.4C18.5988 27.2349 18.4797 27.0773 18.25 26.9919C17.3858 26.6516 16.7683 26.4177 16.7886 25.4247C16.7897 25.4071 16.7988 25.39 16.8169 25.39ZM24.4402 28.9597C24.476 28.9618 24.5075 28.9922 24.5209 29.0302C24.6955 29.4238 24.9124 30.1161 24.8414 30.3399C24.585 31.3227 23.8927 31.4856 23.2496 31.4012C22.7673 31.3382 22.7652 31.225 22.7571 30.9023C22.7582 30.8671 22.8068 30.8537 22.8458 30.8425C23.4286 30.6593 23.779 30.342 23.7939 29.7363C23.7971 29.654 23.8073 29.5675 23.7656 29.4933C23.9285 29.3891 24.0791 29.2812 24.2266 29.1461C24.2308 29.1418 24.2367 29.137 24.2399 29.1317C24.2848 29.0606 24.3355 29.0035 24.4055 28.9661C24.4178 28.9618 24.429 28.9586 24.4402 28.9597ZM21.2012 29.0339C21.2204 29.028 21.2375 29.0382 21.2578 29.0617C21.2722 29.0777 21.2925 29.1279 21.3385 29.1279C21.417 29.2273 21.5265 29.3127 21.6296 29.388C21.598 29.419 21.5788 29.4553 21.5665 29.4933C21.534 29.5867 21.5398 29.7454 21.5665 29.8901C21.5778 29.9756 21.6071 30.0509 21.6509 30.1252C21.8614 30.4526 22.0109 30.5995 22.2481 30.7613C22.3469 30.8212 22.4559 30.873 22.5819 30.8607C22.6167 30.8559 22.637 30.8794 22.6311 30.9088C22.5932 31.3911 22.3736 31.4237 21.8197 31.3553C20.5923 31.1101 20.4838 30.3105 21.1483 29.1033C21.1633 29.0606 21.1836 29.0392 21.2012 29.0339ZM22.7935 31.6432C22.9628 31.6395 23.1428 31.6453 23.3196 31.6678C23.3463 31.6731 23.3484 31.6955 23.341 31.7137C23.3159 31.7799 23.2416 31.8643 23.2037 31.8969C23.1802 31.9151 23.1439 31.922 23.1123 31.9316C22.9799 31.9669 22.7732 31.9824 22.7368 31.977C22.7043 31.9701 22.6717 31.9578 22.6412 31.9386C22.5259 31.8734 22.418 31.7981 22.3042 31.7287C22.2796 31.7094 22.2785 31.6801 22.3074 31.6758C22.4607 31.6608 22.6225 31.6475 22.7935 31.6432Z" fill="#0053A0"/>
<path fill-rule="evenodd" clip-rule="evenodd" d="M30.8034 12.9429C30.7964 12.9429 30.7895 12.9439 30.782 12.9461C29.3868 13.4535 27.6562 14.463 26.7562 15.8027C26.393 16.0954 26.0207 16.3806 25.635 16.6311C26.4368 15.5655 24.837 15.495 22.9087 15.2856C21.5835 15.1724 20.0019 15.5869 19.487 15.8694C19.4405 15.8962 19.4117 15.949 19.4486 15.996C19.5922 16.2006 19.6366 16.4415 19.7215 16.6675C19.7333 16.692 19.7092 16.6942 19.6905 16.6776C18.0128 15.1756 15.506 13.1496 14.6706 12.9498C14.6311 12.9429 14.5953 12.9562 14.575 12.9925C14.5157 13.117 14.5019 13.1533 14.4559 13.2767C14.4233 13.3857 14.3635 13.4535 14.3336 13.4834C13.8555 13.9524 14.6931 14.8316 14.8181 16.4394C14.9014 17.1183 15.0654 17.4227 15.2213 17.8896C15.2454 17.9526 15.2609 18.0066 15.271 18.069C15.4879 18.8179 15.6294 19.5812 15.9173 20.2751C16.2603 21.3893 14.9158 21.2061 14.8608 22.1301C14.8293 22.7572 15.5653 23.1012 15.4398 23.56C15.4318 23.5889 15.3778 23.6204 15.4083 23.6578C15.975 24.2459 16.194 24.1086 16.4232 24.5963C16.9552 25.5284 17.5331 24.5087 18.4962 25.8681C19.2205 26.2041 19.8914 26.594 20.6007 27.063C20.6514 26.9043 20.6985 26.7078 20.7412 26.4514C20.8256 25.9445 20.809 25.4327 20.4885 24.7255C20.4298 24.6225 20.465 24.4478 20.5692 24.365C20.6221 24.3255 20.6445 24.31 20.6504 24.3917C20.7401 25.3318 21.5103 25.9658 21.036 26.8552C21.0189 26.8878 20.9986 26.9145 21.0045 26.9673C21.0147 27.0875 20.9901 27.1954 20.9447 27.298L21.3982 27.635C21.4281 27.5618 21.4553 27.5004 21.4724 27.4566C21.6743 26.4118 21.833 24.7255 21.9847 24.5156C21.9986 24.4953 22.0151 24.4638 21.9847 24.4414C21.8084 24.2592 21.6102 23.9569 21.7005 23.8656C21.7972 23.7924 22.3602 24.0199 22.357 24.428C22.3335 24.7934 21.9772 28.1761 21.5317 28.6536C21.5103 28.6782 21.5184 28.6953 21.5317 28.7135C21.7261 28.9875 21.6845 29.0553 21.6161 29.09C21.5541 29.1135 21.4249 29.1034 21.3667 29.1247C21.3565 29.128 21.3464 29.128 21.3384 29.128C21.4169 29.2273 21.5264 29.3128 21.6295 29.3881C21.6914 29.3272 21.7961 29.2823 21.9569 29.2583C22.585 29.1493 23.1844 29.1675 23.6432 29.3843C23.7046 29.4159 23.7431 29.4532 23.7655 29.4933C23.9284 29.3892 24.079 29.2813 24.2265 29.1461C24.1837 29.1776 24.0929 29.1472 24.079 29.0751C23.8275 27.7039 23.5588 27.4924 23.4001 26.4583C23.3361 26.1074 23.3056 25.7399 23.3718 25.4034C23.3932 25.2944 23.4001 25.1956 23.3718 25.0775C23.281 24.7394 23.2864 24.3864 23.3622 24.0515C23.4135 23.9388 23.5454 23.7881 23.6394 23.661C23.7174 23.559 23.7724 23.4399 23.8152 23.3106C23.859 23.1765 24.2938 22.527 24.665 22.4245C24.6965 22.4164 24.7008 22.3977 24.7045 22.3684C24.7077 22.3358 24.6468 22.3347 24.6516 22.285C24.665 22.0265 26.2904 22.1659 27.1461 22.2455C27.4719 22.2167 27.7972 22.1659 28.1049 22.1088C28.1588 22.0986 28.1626 22.1173 28.13 22.1515C27.8747 22.4325 27.5072 22.5863 27.1744 22.629C27.1114 22.6381 27.0943 22.6728 27.082 22.7204C26.8918 23.6744 25.5116 24.1353 24.9112 24.0231C24.8728 24.0162 24.8717 24.0434 24.8728 24.0627C24.9166 24.5514 24.7067 24.6011 24.5245 26.0299C24.5133 26.1095 24.5165 26.1806 24.5288 26.2612C24.5571 26.493 24.6244 26.7131 24.6762 26.9572C25.517 26.4108 26.4581 25.9648 27.3464 25.5967C27.5259 25.3938 27.7037 25.21 27.8902 25.0033C27.942 24.9349 28.0419 24.8933 28.1364 24.8596C28.8436 24.5626 29.5599 24.1006 30.0972 23.5173C30.1127 23.4981 30.1453 23.4666 30.1352 23.4297C29.9712 22.6627 30.477 22.4357 30.7954 21.8668C30.8434 21.7926 30.7916 21.7733 30.7393 21.7466C30.3894 21.526 30.0711 21.2216 29.8264 20.9358C29.7687 20.8503 29.7442 20.7424 29.7239 20.6468C29.4707 19.4557 29.9947 19.3686 30.0892 18.6796C30.0823 18.3367 30.1747 17.9334 30.2826 17.5771C30.4097 17.1621 30.4669 16.825 30.6132 16.5932C30.6853 14.5181 31.3295 14.9865 31.1538 13.8803C31.1078 13.6592 30.9909 13.2575 30.8515 12.9813C30.8402 12.9552 30.8231 12.9439 30.8034 12.9429ZM30.4065 13.3478C30.4177 13.3451 30.43 13.3467 30.4412 13.3478C30.5155 13.3531 30.5737 13.4081 30.5817 13.477C30.5951 13.6116 30.6244 13.7355 30.6511 13.86C30.1715 15.0068 30.4503 16.5809 29.8227 17.5456C29.7912 18.3906 29.6854 18.9296 29.1833 19.2666C29.163 19.2821 29.1406 19.28 29.1166 19.2666C28.3153 18.8751 27.5991 18.0589 26.8999 17.4185C27.9879 16.7102 27.0024 15.9661 27.778 15.1532C28.6807 14.1997 29.4755 14.1052 30.3008 13.3958C30.3355 13.3664 30.3713 13.351 30.4065 13.3478ZM14.8079 13.407C14.9067 13.4081 15.0205 13.461 15.1022 13.54C15.9061 13.8915 15.834 14.2131 16.4616 14.5282C16.5952 14.5976 16.8238 14.7226 17 14.7627C17.0812 15.0442 17.2137 15.0362 17.5091 15.5399C17.5801 15.6633 17.8397 15.8657 17.8632 16.0345C17.8814 16.1403 17.8792 16.2321 17.8712 16.3336C17.8632 16.6199 17.7452 16.8934 17.9027 17.0216C18.032 17.0878 17.9465 17.153 18.1805 17.271C18.2985 17.3282 18.3594 17.3869 18.2964 17.5103C18.1095 17.8378 17.8803 18.1075 17.6715 18.4066C17.617 18.4761 17.5374 18.5311 17.4567 18.5786C17.0032 18.8505 16.6267 19.2329 16.2197 19.5935C16.194 19.6127 16.1817 19.5935 16.1636 19.5871C15.7736 19.3654 15.67 18.9787 15.6182 18.4515C15.4836 17.044 15.201 18.2613 14.7267 14.0704C14.6626 13.8814 14.5932 13.5443 14.6525 13.4669C14.6931 13.4252 14.747 13.406 14.8079 13.407ZM23.9872 16.1365C23.6261 16.8058 23.4429 16.7428 23.2249 17.0045C23.2089 17.0227 23.1924 17.0451 23.1753 17.0675C23.1598 17.09 23.1427 17.1135 23.1272 17.1407C23.1101 17.1674 23.0978 17.1914 23.0909 17.215C23.0909 17.216 23.0919 17.2171 23.0909 17.2182C23.0855 17.2406 23.0818 17.2657 23.0807 17.2855C23.0909 17.5039 23.0551 17.5926 23.1122 17.6647C23.116 17.67 23.1181 17.6759 23.1192 17.6823C23.1224 17.6893 23.1224 17.6962 23.1235 17.7026C23.1245 17.7176 23.1213 17.732 23.116 17.7422C23.0754 17.7165 23.0124 17.6679 22.9584 17.6198C22.9167 17.5824 22.882 17.5477 22.866 17.5173C22.866 17.5162 22.8671 17.5151 22.866 17.5141C22.8617 17.5039 22.8596 17.4938 22.8596 17.4858C22.8596 17.4633 22.8575 17.4489 22.8559 17.4361C22.8505 17.3859 22.8361 17.3934 22.8243 17.3383C22.819 17.3106 22.8121 17.2668 22.8099 17.1904C22.8089 17.153 22.8099 17.106 22.8099 17.0494C22.8056 17.0136 22.8089 16.9954 22.8179 16.9799C22.8211 16.973 22.8259 16.9655 22.8313 16.9586C22.8372 16.9516 22.8425 16.9452 22.8494 16.9372C23.1753 16.6023 23.6079 16.3806 23.9872 16.1365ZM21.388 16.2177C21.7293 16.4495 22.1129 16.7593 22.4873 17.0707C22.4953 17.0798 22.5007 17.0889 22.5087 17.099C22.53 17.1316 22.5461 17.1701 22.537 17.2182C22.5145 17.3597 22.4467 17.4959 22.3928 17.6396C22.3906 17.6465 22.3863 17.6497 22.3815 17.6546C22.3773 17.6578 22.3735 17.6626 22.3682 17.6647C22.357 17.669 22.3436 17.6679 22.3367 17.661C22.2694 17.5755 22.1962 17.489 22.1353 17.4014C22.115 17.3747 22.0936 17.3453 22.0936 17.3095C22.0963 17.2812 22.0974 17.2529 22.0974 17.2294C22.0974 17.2048 22.0963 17.1834 22.0936 17.1621C22.0883 17.1225 22.076 17.0878 22.0589 17.0606C22.0578 17.0595 22.0589 17.0574 22.0589 17.0574C22.0231 17.0002 21.9612 16.9666 21.8623 16.9404C21.7812 16.9169 21.7107 16.8811 21.6508 16.8394C21.6498 16.8384 21.6487 16.8394 21.6476 16.8394C21.56 16.7764 21.497 16.692 21.4543 16.59C21.4543 16.5889 21.4511 16.5873 21.4511 16.5863C21.4083 16.4821 21.3891 16.3603 21.388 16.2177ZM25.9096 19.5059C26.0014 19.5016 26.0981 19.5128 26.1937 19.5342C26.2883 19.5556 26.3828 19.5882 26.4635 19.632C26.4886 19.6474 26.495 19.6779 26.4672 19.688C26.3321 19.7244 26.1948 19.7703 26.0564 19.8253C25.987 19.852 25.9197 19.8825 25.8487 19.9129C25.5004 20.0667 25.1452 20.259 24.7921 20.4369C24.7547 20.4524 24.7302 20.4471 24.7141 20.4257C24.7088 20.4177 24.7045 20.4097 24.7008 20.3974C24.6928 20.3595 24.6944 20.3221 24.6976 20.2852C24.6997 20.2489 24.7067 20.212 24.7077 20.1725C24.7109 20.1186 24.7446 20.1154 24.7638 20.0881C24.8301 20.0625 24.8861 20.04 24.9326 20.0187C25.0709 19.9546 25.127 19.9097 25.174 19.868C25.2066 19.8397 25.236 19.8141 25.2766 19.7826C25.3183 19.7521 25.3733 19.7174 25.463 19.6747C25.517 19.6501 25.5709 19.6277 25.6238 19.6036C25.6777 19.5812 25.7306 19.5588 25.7824 19.5406C25.823 19.5192 25.87 19.507 25.9096 19.5059ZM19.0549 19.5791C19.0618 19.5791 19.0709 19.5812 19.0763 19.5791C19.0987 19.5871 19.1169 19.5962 19.1329 19.6036C19.1484 19.6127 19.1596 19.6218 19.1708 19.632C19.2125 19.6677 19.2296 19.7083 19.3364 19.7591C19.362 19.7714 19.3957 19.7869 19.4341 19.8007C19.4731 19.8141 19.5196 19.8274 19.5746 19.8435C19.7071 19.8862 19.8016 19.9108 19.8903 19.9444C19.8924 19.9455 19.8924 19.9476 19.8951 19.9476C19.9827 19.9829 20.0671 20.0256 20.1713 20.0993C20.2076 20.1244 20.2455 20.1538 20.2882 20.1875C20.3299 20.2211 20.3774 20.259 20.4287 20.3028C20.4501 20.3199 20.4693 20.3311 20.4741 20.3627C20.4752 20.3728 20.4741 20.383 20.4704 20.3942V20.3974C20.4672 20.4086 20.4624 20.4187 20.457 20.43C20.4437 20.4535 20.4255 20.4738 20.4073 20.4898C20.4009 20.4941 20.3951 20.4978 20.3897 20.4999C20.3849 20.501 20.3758 20.501 20.3646 20.4999C20.331 20.493 20.3043 20.4887 20.277 20.4786C20.2524 20.4695 20.2311 20.4583 20.2108 20.4471C20.1894 20.4358 20.1713 20.4257 20.1547 20.4123C20.1376 20.3984 20.1242 20.384 20.1088 20.3696C20.0772 20.3402 20.0447 20.3098 20.003 20.2783C19.9838 20.2628 19.9624 20.2478 19.9362 20.2323C19.9106 20.2174 19.8812 20.2019 19.8486 20.1875C19.815 20.1725 19.7883 20.1693 19.761 20.1762C19.7519 20.1794 19.7418 20.1816 19.7333 20.1875C19.6969 20.2019 19.6633 20.1848 19.6275 20.1762C19.6003 20.1704 19.5698 20.1602 19.5399 20.149C19.5383 20.1479 19.5372 20.149 19.5362 20.149C19.3172 20.0625 19.0447 19.8488 19.0437 19.5935C19.0437 19.5892 19.0463 19.5849 19.0474 19.5823C19.0495 19.5812 19.0517 19.5791 19.0549 19.5791ZM19.5217 22.0244C19.58 22.0244 19.6408 22.0276 19.7017 22.0308C19.7632 22.0367 19.8262 22.042 19.8903 22.0522C19.9389 22.0602 19.9859 22.0703 20.0356 22.0805C20.0511 22.0847 20.0671 22.0874 20.0837 22.0917C20.113 22.0986 20.1424 22.1072 20.1713 22.1163C20.2097 22.1264 20.2466 22.1376 20.284 22.1515C20.339 22.1702 20.3919 22.1905 20.4458 22.214C20.4928 22.2343 20.5403 22.2567 20.5863 22.2808C20.6322 22.3053 20.6787 22.3336 20.7236 22.3614C20.7615 22.3849 20.7989 22.41 20.8357 22.4357C20.8528 22.4469 20.8694 22.4549 20.8854 22.4672C20.9121 22.4875 20.9393 22.5088 20.9661 22.5302C20.9719 22.5345 20.9773 22.5393 20.9831 22.5446C20.9874 22.5484 20.9933 22.5516 20.9976 22.5548C21.0056 22.5617 21.0147 22.5697 21.0227 22.5761C21.0574 22.6066 21.0921 22.6413 21.1268 22.6739C21.1722 22.7166 21.215 22.7604 21.2577 22.808C21.2609 22.8112 21.2641 22.8144 21.2689 22.8181C21.3068 22.8619 21.3426 22.9079 21.3811 22.9549C21.4025 22.9842 21.4249 23.0136 21.4473 23.043C21.4655 23.0686 21.482 23.0911 21.5002 23.1172C21.5397 23.1755 21.5755 23.2364 21.6129 23.3004C21.6273 23.325 21.6385 23.3576 21.6375 23.3843C21.6364 23.3934 21.6343 23.4003 21.6295 23.4094C21.5947 23.4837 21.5734 23.559 21.5563 23.6444C21.5541 23.6567 21.5429 23.6669 21.5317 23.669C21.5274 23.669 21.5205 23.6679 21.5173 23.6658C21.4564 23.6284 21.4003 23.5926 21.3453 23.5531C21.2924 23.5152 21.2427 23.4735 21.1947 23.4329C21.1936 23.4329 21.1909 23.434 21.1909 23.4329C21.1418 23.3923 21.0969 23.3496 21.0504 23.3069C20.6381 22.926 20.3481 22.5121 19.7925 22.401C19.7915 22.3999 19.7904 22.401 19.7893 22.401C19.541 22.3513 19.2429 22.3636 18.8551 22.464C18.7259 22.4773 18.5827 22.4773 18.4369 22.4672C18.2905 22.457 18.142 22.4367 18.0005 22.4111C17.9321 22.3988 17.8611 22.3839 17.797 22.3684C17.7959 22.3684 17.7948 22.3694 17.7938 22.3684C17.7297 22.3534 17.6699 22.3358 17.6148 22.3198C17.6127 22.3187 17.6116 22.3198 17.6106 22.3198C17.4968 22.2861 17.4049 22.2503 17.3408 22.2177C17.6309 22.2231 17.9497 22.2199 18.2254 22.2076C18.501 22.1953 18.7301 22.1771 18.8402 22.1547C18.8776 22.1366 18.9224 22.1211 18.971 22.105C19.0159 22.0906 19.0677 22.0746 19.1217 22.0634C19.1259 22.0623 19.1318 22.0634 19.1361 22.0634C19.1842 22.0532 19.2349 22.0447 19.2899 22.0388C19.299 22.0377 19.3059 22.0356 19.315 22.0356C19.3813 22.0287 19.4496 22.0254 19.5217 22.0244ZM25.6452 22.4955C25.4 22.5099 25.1313 22.6034 24.8268 22.8673C24.3659 23.3202 23.9781 23.8837 23.6811 24.4168C23.6464 24.482 23.6352 24.5413 23.6496 24.6102C23.9872 26.1635 24.1319 26.9369 24.195 27.3471L24.4166 27.1639C24.2836 26.79 24.2153 26.3376 24.2612 25.7938C24.4209 25.3777 24.5042 24.8863 24.5774 24.4168C24.8199 23.9019 24.845 23.6834 25.0795 23.6973C25.2899 23.7085 25.5079 23.7187 25.705 23.676C25.7814 23.661 25.8444 23.6306 25.9128 23.5878C26.2445 23.388 26.5276 23.1172 26.7695 22.8112C26.7989 22.7797 26.8165 22.7124 26.801 22.6819C26.792 22.6584 26.7775 22.6461 26.7482 22.6461C26.3994 22.6675 26.0554 22.4715 25.6452 22.4955ZM25.533 22.5334C25.5981 22.5324 25.6655 22.5468 25.7295 22.5729C25.8588 22.6237 25.9534 22.7225 26.0041 22.8395C26.0297 22.8988 26.0442 22.9607 26.0468 23.0259C26.0479 23.0911 26.0367 23.1584 26.0105 23.2225C25.9849 23.2866 25.9475 23.3416 25.9015 23.388C25.7643 23.5264 25.5495 23.5766 25.3573 23.5002C25.3247 23.4869 25.2942 23.4735 25.2664 23.4543C25.2381 23.4361 25.2157 23.4137 25.1922 23.3913C25.0539 23.254 25.0031 23.043 25.0795 22.8507C25.0896 22.8245 25.1009 22.8021 25.1147 22.7797C25.1169 22.7775 25.1201 22.7754 25.1222 22.7727C25.1281 22.7631 25.1324 22.754 25.1393 22.7449C25.1527 22.7268 25.1676 22.7113 25.1821 22.6953L25.1954 22.6819C25.2168 22.6605 25.2381 22.6392 25.2632 22.6221C25.2819 22.6077 25.3044 22.5975 25.3257 22.5863C25.3295 22.5852 25.3327 22.5852 25.3359 22.5831C25.3428 22.581 25.3471 22.5751 25.354 22.5729C25.3813 22.5617 25.4091 22.5537 25.4384 22.5484C25.4689 22.5414 25.5015 22.5345 25.533 22.5334ZM19.9266 22.5414C19.9918 22.5393 20.0543 22.5505 20.12 22.5761C20.151 22.5884 20.1825 22.6034 20.2108 22.6221C20.2391 22.6402 20.2615 22.6616 20.284 22.6851C20.3085 22.7092 20.3288 22.7316 20.3481 22.7583C20.3838 22.8122 20.4111 22.8721 20.4255 22.9351C20.4458 23.028 20.4389 23.1295 20.4009 23.2262C20.387 23.2588 20.3726 23.2855 20.3545 23.3138C20.3545 23.3149 20.3561 23.3159 20.3545 23.317C20.2818 23.427 20.167 23.5013 20.042 23.5285C19.979 23.5419 19.9138 23.543 19.8486 23.5317C19.816 23.5264 19.7824 23.5162 19.7509 23.504C19.7183 23.4901 19.6868 23.4756 19.659 23.4575C19.604 23.4217 19.5586 23.3742 19.5217 23.3202C19.4315 23.1877 19.4058 23.0147 19.4699 22.8539C19.4822 22.8224 19.5004 22.793 19.5185 22.7663C19.5351 22.7401 19.5511 22.7166 19.5709 22.6953C19.5757 22.691 19.581 22.6889 19.5858 22.6851C19.6072 22.6638 19.6275 22.6413 19.6521 22.6258C19.6724 22.6109 19.6937 22.6007 19.7151 22.5895C19.7162 22.5895 19.7172 22.5874 19.7183 22.5863C19.7386 22.5772 19.761 22.5729 19.7824 22.566C19.8027 22.5596 19.8241 22.5516 19.8454 22.5484H19.8524C19.8759 22.5436 19.9015 22.5414 19.9266 22.5414ZM18.3311 22.7866C18.3434 22.7866 18.3568 22.7887 18.3696 22.7909C18.3717 22.7909 18.3749 22.7898 18.3771 22.7909C18.3995 22.793 18.4219 22.801 18.447 22.8112C18.4737 22.8224 18.5021 22.8357 18.5314 22.8539C18.5613 22.8721 18.5929 22.8924 18.627 22.9169L18.6367 22.9239C18.666 22.9463 18.6954 22.9687 18.728 22.9944C18.7627 23.0216 18.7953 23.0451 18.8338 23.0756C18.9043 23.1306 18.9822 23.1909 19.065 23.2508C19.1067 23.2812 19.1494 23.309 19.1954 23.3384C19.2306 23.3608 19.2664 23.387 19.3049 23.4094C19.3204 23.4185 19.3375 23.427 19.3529 23.4361C19.3967 23.4612 19.4432 23.4847 19.4902 23.5072C19.5362 23.5296 19.5848 23.5499 19.6339 23.5702C19.6499 23.5766 19.6643 23.5857 19.6804 23.5916C19.7295 23.6103 19.7813 23.6252 19.8342 23.6407C19.8972 23.6589 19.9613 23.677 20.0276 23.6904C20.0949 23.7027 20.1638 23.7117 20.2353 23.7171C20.3075 23.724 20.3828 23.7283 20.4602 23.7283C20.4752 23.7283 20.4864 23.732 20.4955 23.7384C20.504 23.7443 20.511 23.7523 20.5131 23.7668C20.5152 23.888 20.4041 23.9307 20.284 23.9388C20.2129 23.9398 20.1424 23.9377 20.0703 23.9355C19.8588 23.9297 19.6489 23.9131 19.4373 23.8789C19.4149 23.8768 19.3957 23.8714 19.3743 23.8624C19.354 23.8533 19.3364 23.841 19.315 23.8266C19.2499 23.7822 19.1809 23.732 19.1115 23.676C19.0415 23.6193 18.9753 23.5611 18.9112 23.504C18.845 23.4452 18.7841 23.3913 18.7312 23.3416C18.6794 23.2935 18.6383 23.2518 18.6089 23.2225C18.5784 23.1958 18.5549 23.1733 18.5346 23.152C18.5154 23.1317 18.4988 23.1114 18.485 23.0959C18.4593 23.0644 18.4481 23.043 18.4337 23.0227C18.4257 23.0125 18.4177 23.0035 18.4086 22.9944C18.3808 22.965 18.3354 22.9335 18.2334 22.8785C18.2211 22.8731 18.2131 22.8683 18.212 22.8608C18.2109 22.856 18.2109 22.8528 18.2152 22.847C18.219 22.8416 18.2222 22.8347 18.2286 22.8293C18.2398 22.8203 18.2537 22.8133 18.2649 22.808C18.275 22.8021 18.2852 22.7968 18.2964 22.7941C18.3076 22.7909 18.3188 22.7877 18.3311 22.7866Z" fill="#FDBE11"/>
</g>
<defs>
<clipPath id="clip0_103_6674">
<rect width="44.969" height="44.969" fill="white" transform="translate(0.205078 0.205078)"/>
</clipPath>
</defs>
</svg>
