<svg width="7" height="7" viewBox="0 0 7 7" fill="none" xmlns="http://www.w3.org/2000/svg">
<ellipse cx="3.14557" cy="3.22773" rx="3.14557" ry="3.14765" fill="#59C65D"/>
<path d="M1.79785 3.00286C1.67376 3.00286 1.57317 3.10345 1.57317 3.22754C1.57317 3.35163 1.67376 3.45222 1.79785 3.45222L1.79785 3.00286ZM4.42825 3.38641C4.51599 3.29867 4.51599 3.15641 4.42825 3.06866L2.99837 1.63879C2.91062 1.55104 2.76836 1.55104 2.68062 1.63879C2.59287 1.72653 2.59287 1.86879 2.68062 1.95654L3.95162 3.22754L2.68062 4.49854C2.59287 4.58629 2.59287 4.72855 2.68062 4.81629C2.76836 4.90404 2.91062 4.90404 2.99837 4.81629L4.42825 3.38641ZM2.69659 3.22754L2.69659 3.45222L2.69659 3.22754ZM1.79785 3.45222L2.69659 3.45222L2.69659 3.00286L1.79785 3.00286L1.79785 3.45222ZM2.69659 3.45222L4.26937 3.45222L4.26937 3.00286L2.69659 3.00286L2.69659 3.45222Z" fill="white"/>
</svg>
