<svg width="1354" height="1354" viewBox="0 0 1354 1354" fill="none" xmlns="http://www.w3.org/2000/svg">
<rect width="1354" height="1354" fill="none"/>
<path fill-rule="evenodd" clip-rule="evenodd" d="M959.416 6.4907C957.105 10.2187 954.879 46.6619 954.464 87.4688C953.816 151.616 951.731 166.051 939.106 193.987C909.301 259.912 842.77 298.018 747.444 303.763L694.015 306.978L667.132 282.207C583.905 205.52 522.467 226.305 459.727 352.386C443.091 385.804 441.783 392.05 448.685 404.94C455.643 417.945 454.047 424.466 434.324 463.623C368.301 594.673 283.576 717.662 223.299 769.946C129.727 851.108 112.725 869.589 90.7824 913.971C61.3993 973.4 59.1861 1015.66 84.4607 1034.79C98.3207 1045.28 112.15 1048.25 154.819 1049.92L207.929 1052.01L224.962 1082.5L241.996 1113L267.71 1108.69C319.366 1100.02 320.931 1098.44 320.931 1055.02V1016.05L364.517 996.807C388.489 986.222 411.189 977.519 414.956 977.47C418.728 977.415 431.909 989.107 444.259 1003.44L466.709 1029.51L502.34 1017.29C541.567 1003.83 540.772 1005.69 534.462 942.225L531.858 916.055L579.277 890.57L626.696 865.085L652.875 890.766C667.273 904.889 683.077 916.452 687.993 916.465C700.771 916.489 748.177 890.478 751.595 881.568C753.178 877.442 750.28 859.951 745.151 842.698C740.027 825.439 737.087 808.058 738.621 804.061C740.156 800.07 758.913 786.081 780.305 772.977C801.704 759.88 861.099 721.928 912.297 688.65L1005.39 628.146L1033.05 650.801C1058.15 671.361 1062.27 672.815 1077.6 666.471C1086.88 662.627 1102.54 653.057 1112.4 645.197L1130.32 630.921L1117.54 596.237L1104.76 561.56L1126.95 546.489C1139.15 538.202 1151.57 531.418 1154.55 531.418C1157.53 531.418 1169.37 539.669 1180.86 549.753C1192.35 559.837 1204.8 568.088 1208.54 568.088C1212.27 568.088 1227.3 560.522 1241.94 551.281C1271.39 532.683 1273.86 523.467 1259.94 484.048C1251.42 459.925 1251.55 459.4 1269.11 446.425C1290.74 430.443 1292.92 403.063 1274.75 375.574C1253.07 342.773 1251.67 339.35 1244.95 302.95C1241.3 283.179 1232.33 254.65 1225.02 239.561C1206.62 201.565 1148.44 141.379 1105.65 116.065C1050.09 83.2091 1030.47 66.8729 1004.7 32.0003C981.383 0.452482 967.859 -7.16863 959.416 6.4907ZM1076.87 147.423C1146.59 186.751 1198.09 254.822 1205.51 317.447L1209.01 346.978L1167.68 377.315L1126.35 407.659L1095.05 399.146C1077.84 394.464 1037.27 388.915 1004.89 386.813L946.021 382.987L961.115 350.033C977.458 314.342 992.895 239.671 993.238 194.653C993.354 179.179 995.212 149.666 997.364 129.07L1001.28 91.6247L1022.25 110.033C1033.78 120.153 1058.36 136.979 1076.87 147.423ZM934.392 300.707C922.011 342.547 918.52 348.652 886.191 385.04C856.263 418.727 854.796 422.584 867.812 433.377C874.721 439.109 886.912 439.079 923.118 433.242C969.602 425.749 1064.48 428.811 1073.71 438.113C1078.27 442.703 1006.68 495.213 851.482 601.133L773.935 654.059L726.265 641.86C671.222 627.779 624.77 612.219 579.32 592.656L547.308 578.875L562.8 553.622C571.317 539.73 586.748 511.861 597.08 491.693C607.419 471.525 629.227 440.821 645.551 423.464C661.874 406.107 679.935 382.046 685.682 369.988C695.818 348.744 697.182 348.066 730.16 347.968C800.988 347.742 877.949 322.421 923.143 284.463C933.23 275.992 942.022 268.964 942.682 268.841C943.343 268.719 939.613 283.057 934.392 300.707ZM600.944 283.381C610.023 288.136 626.628 301.569 637.841 313.236C657.644 333.838 657.956 334.95 648.736 351.953C628.12 389.96 594.781 415.299 565.392 415.299C547.901 415.299 492.118 390.865 492.118 383.207C492.118 369.914 530.317 311.341 550.585 293.55C574.991 272.129 578.213 271.476 600.944 283.381ZM1244.12 406.425C1244.12 410.801 1218.67 432.032 1187.57 453.6C843.62 692.097 576.44 855.068 389.883 940.159C352.142 957.369 319.127 971.383 316.517 971.304C313.9 971.224 355.78 948.397 409.581 920.578C601.935 821.106 884.699 637.93 1167.25 429.753C1213.83 395.43 1229.82 386.599 1236.03 391.751C1240.48 395.442 1244.12 402.043 1244.12 406.425ZM538.76 452.805C553.458 456.503 565.484 460.787 565.484 462.321C565.484 467.241 515.424 551.562 489.99 589.478C457.349 638.138 396.742 700.983 368.558 715.394C347.367 726.224 327.045 730.551 327.045 724.226C327.045 722.704 339.639 703.452 355.028 681.445C375.711 651.865 386.685 641.426 397.079 641.426C404.813 641.426 414.277 637.649 418.11 633.035C425.679 623.917 421.149 604.757 411.422 604.757C408.108 604.757 410.59 595.877 416.93 585.023C424.664 571.785 433.175 565.24 442.78 565.16C463.401 564.977 473.465 546.819 460.259 533.625C451.088 524.457 450.948 521.56 458.908 506.171C466.428 491.638 470.549 489.517 485.509 492.512C499.742 495.354 504.688 493.307 510.71 482.061C517.185 469.967 516.433 466.636 505.159 457.511C489.697 444.995 488.059 436.879 502.078 442.257C507.555 444.359 524.063 449.102 538.76 452.805ZM1221.43 500.854C1225.61 516.824 1217.13 521.536 1200.34 512.564C1187.35 505.609 1187.28 505.077 1198.33 496.998C1213.7 485.771 1217.66 486.431 1221.43 500.854ZM1075.08 600.069C1080.29 619.981 1069.52 627.431 1054.79 614.108C1043.18 603.602 1043.08 602.502 1053.12 594.887C1067.88 583.684 1070.98 584.412 1075.08 600.069ZM579.167 637.631C631.281 658.936 653.04 666.282 699.572 678.285L726.669 685.277L698.062 703.08C682.331 712.864 665.39 720.877 660.426 720.877C649.066 720.877 568.504 689.041 528.184 668.617L497.731 653.191L510.625 635.082C517.717 625.127 524.674 616.98 526.086 616.98C527.499 616.98 551.385 626.27 579.167 637.631ZM600.278 745.237C604.282 745.286 609.167 747.926 611.136 751.11C618.717 763.364 356.459 907.395 250.402 949.229C196.594 970.454 114.198 992.957 109.069 987.835C107.669 986.43 112.56 969.14 119.939 949.418C133.903 912.107 176.419 864.657 254.902 798.799C286.553 772.238 292.227 769.769 321.622 769.769C361.894 769.769 396.901 753.384 438.677 714.985L470.127 686.077L531.565 715.614C565.349 731.859 596.273 745.188 600.278 745.237ZM700.074 832.412C700.116 836.617 701.816 846.237 703.84 853.803C708.425 870.897 698.129 871.789 678.094 856.034L663.44 844.507L677.128 834.961C694.021 823.178 699.964 822.518 700.074 832.412ZM493.903 957.681C498.122 979.75 486.188 986.552 470.72 970.894C458.633 958.665 458.627 958.42 470.359 949.705C486.934 937.397 490.235 938.515 493.903 957.681ZM278.134 1047.84C278.134 1066.2 263.058 1068.41 253.942 1051.4C249.375 1042.86 249.736 1038.82 255.256 1036.6C271.617 1029.99 278.134 1033.2 278.134 1047.84Z" fill="black"/>
</svg>
