<svg width="26" height="26" viewBox="0 0 26 26" fill="none" xmlns="http://www.w3.org/2000/svg">
<path d="M14.7836 25.2126C20.7652 24.3127 25.3512 19.1514 25.3512 12.919C25.3512 6.05276 19.7849 0.486572 12.9188 0.486572C6.05251 0.486572 0.486328 6.05276 0.486328 12.919C0.486328 19.1514 5.07233 24.3127 11.0539 25.2126L11.0539 16.6487H9.18903C8.15909 16.6487 7.32417 15.8138 7.32417 14.7839C7.32417 13.754 8.15909 12.919 9.18903 12.919H11.0539V10.4325C11.0539 8.02933 13.0021 6.08117 15.4052 6.08117H16.0269C17.0568 6.08117 17.8917 6.91609 17.8917 7.94603C17.8917 8.97597 17.0568 9.81089 16.0269 9.81089H15.4052C15.062 9.81089 14.7836 10.0892 14.7836 10.4325V12.919L16.6485 12.919C17.6784 12.919 18.5134 13.754 18.5134 14.7839C18.5134 15.8138 17.6784 16.6487 16.6485 16.6487H14.7836L14.7836 25.2126Z" fill="white"/>
</svg>
