<svg width="12" height="12" viewBox="-3 -3 12 12" fill="none" xmlns="http://www.w3.org/2000/svg">
<path d="M2.00195 2.91013C2.23348 3.38826 2.62011 3.77389 3.09883 4.00419C3.13414 4.02091 3.1732 4.02815 3.21216 4.02519C3.25112 4.02223 3.28863 4.00918 3.32102 3.98732L4.02414 3.51763C4.05521 3.49656 4.0911 3.48371 4.12848 3.48026C4.16586 3.47682 4.2035 3.4829 4.23789 3.49794L5.55414 4.06326C5.59913 4.08198 5.63671 4.11497 5.6611 4.15715C5.6855 4.19933 5.69535 4.24836 5.68914 4.29669C5.64742 4.62231 5.48849 4.92156 5.24208 5.13847C4.99567 5.35537 4.67867 5.47506 4.35039 5.47513C3.33594 5.47513 2.36303 5.07214 1.64571 4.35481C0.928381 3.63749 0.525391 2.66458 0.525391 1.65013C0.525465 1.32186 0.645151 1.00485 0.862054 0.758444C1.07896 0.512034 1.37821 0.3531 1.70383 0.311381C1.75216 0.305173 1.80119 0.315025 1.84337 0.339418C1.88555 0.363812 1.91854 0.401396 1.93727 0.446381L2.50258 1.76544C2.51728 1.79929 2.52343 1.83624 2.52049 1.87302C2.51754 1.90981 2.5056 1.9453 2.4857 1.97638L2.01602 2.69076C1.9951 2.72307 1.98283 2.7602 1.98037 2.79861C1.97791 2.83702 1.98534 2.87542 2.00195 2.91013V2.91013Z" fill="#59C65D"/>

<circle cx="3" cy="3" r="5.5" stroke="#59C65D"/>
</svg>

