<svg width="14" height="20" viewBox="0 0 14 20" fill="none" xmlns="http://www.w3.org/2000/svg">
<path d="M7 0.375C3.20457 0.375 0.125 3.14691 0.125 6.5625C0.125 12.0625 7 19.625 7 19.625C7 19.625 13.875 12.0625 13.875 6.5625C13.875 3.14691 10.7954 0.375 7 0.375ZM7 10C6.4561 10 5.92442 9.83872 5.47218 9.53654C5.01995 9.23437 4.66747 8.80488 4.45933 8.30238C4.25119 7.79988 4.19673 7.24695 4.30284 6.7135C4.40895 6.18005 4.67086 5.69005 5.05546 5.30546C5.44005 4.92086 5.93006 4.65895 6.4635 4.55284C6.99695 4.44673 7.54988 4.50119 8.05238 4.70933C8.55488 4.91747 8.98437 5.26995 9.28654 5.72218C9.58872 6.17442 9.75 6.7061 9.75 7.25C9.74921 7.9791 9.45922 8.67811 8.94367 9.19367C8.42811 9.70922 7.7291 9.9992 7 10Z" fill="#59C65D"/>
</svg>
