<svg width="9" height="8" viewBox="0 0 9 8" fill="none" xmlns="http://www.w3.org/2000/svg">
<path d="M1 3.5C0.723858 3.5 0.5 3.72386 0.5 4C0.5 4.27614 0.723858 4.5 1 4.5L1 3.5ZM8.85355 4.35355C9.04882 4.15829 9.04882 3.84171 8.85355 3.64645L5.67157 0.464467C5.47631 0.269205 5.15973 0.269205 4.96447 0.464467C4.7692 0.659729 4.7692 0.976312 4.96447 1.17157L7.79289 4L4.96447 6.82843C4.7692 7.02369 4.7692 7.34027 4.96447 7.53553C5.15973 7.7308 5.47631 7.7308 5.67157 7.53553L8.85355 4.35355ZM1 4.5L8.5 4.5L8.5 3.5L1 3.5L1 4.5Z" fill="white"/>
</svg>
