<svg width="23" height="24" viewBox="0 0 23 24" fill="none" xmlns="http://www.w3.org/2000/svg">
<path d="M16.5674 0.729736C20.0005 0.729736 22.7837 3.51284 22.7837 6.94595V16.8919C22.7837 20.325 20.0005 23.1081 16.5674 23.1081H6.62149C3.18837 23.1081 0.405273 20.325 0.405273 16.8919L0.405273 6.94595C0.405273 3.51284 3.18837 0.729736 6.62149 0.729736L16.5674 0.729736ZM11.5945 6.94595C8.84796 6.94595 6.62149 9.17243 6.62149 11.9189C6.62149 14.6654 8.84796 16.8919 11.5945 16.8919C14.3409 16.8919 16.5674 14.6654 16.5674 11.9189C16.5674 9.17243 14.3409 6.94595 11.5945 6.94595ZM11.5945 9.43244C12.9677 9.43244 14.0809 10.5456 14.0809 11.9189C14.0809 13.2922 12.9677 14.4054 11.5945 14.4054C10.2212 14.4054 9.10798 13.2922 9.10798 11.9189C9.10798 10.5456 10.2212 9.43244 11.5945 9.43244ZM17.1891 5.08109C16.5024 5.08109 15.9458 5.63771 15.9458 6.32433C15.9458 7.01095 16.5024 7.56757 17.1891 7.56757C17.8757 7.56757 18.4323 7.01095 18.4323 6.32433C18.4323 5.63771 17.8757 5.08109 17.1891 5.08109Z" fill="white"/>
</svg>
