<svg width="26" height="21" viewBox="0 0 26 21" fill="none" xmlns="http://www.w3.org/2000/svg">
<path fill-rule="evenodd" clip-rule="evenodd" d="M12.7566 0.972656C13.8201 0.972656 14.9095 1.00053 15.9663 1.04447L17.2151 1.10417L18.4102 1.17477L19.5293 1.25174L20.5499 1.33055C22.835 1.51598 24.6714 3.28437 24.8948 5.58644L24.9443 6.11425L25.0375 7.24553C25.1247 8.4182 25.1891 9.69691 25.1891 10.9186C25.1891 12.1403 25.1247 13.419 25.0375 14.5917L24.9443 15.7229C24.928 15.9036 24.9114 16.0798 24.8948 16.2507C24.6714 18.5529 22.835 20.3212 20.5499 20.5066L19.5293 20.5854L18.4102 20.6624L17.2151 20.733L15.9663 20.7927C14.9095 20.8367 13.8201 20.8645 12.7566 20.8645C11.6932 20.8645 10.6038 20.8367 9.54702 20.7927L8.2982 20.733L7.10304 20.6624L5.98396 20.5854L4.96338 20.5066C2.67831 20.3212 0.841905 18.5529 0.61847 16.2507L0.56904 15.7229L0.475799 14.5917C0.388613 13.419 0.324219 12.1403 0.324219 10.9186C0.324219 9.69691 0.388613 8.4182 0.475799 7.24553L0.56904 6.11425C0.585333 5.93361 0.601874 5.75742 0.61847 5.58644C0.841905 3.28437 2.67831 1.51598 4.96338 1.33055L5.98396 1.25174L7.10304 1.17477L8.2982 1.10417L9.54702 1.04447C10.6038 1.00053 11.6932 0.972656 12.7566 0.972656ZM10.2702 7.9039V13.9333C10.2702 14.5076 10.8918 14.8664 11.3891 14.5793L16.6107 11.5646C17.108 11.2775 17.108 10.5597 16.6107 10.2726L11.3891 7.25788C10.8918 6.97077 10.2702 7.32967 10.2702 7.9039Z" fill="white"/>
</svg>
