<svg width="10" height="10" viewBox="0 0 10 10" fill="none" xmlns="http://www.w3.org/2000/svg">
<path fill-rule="evenodd" clip-rule="evenodd" d="M5.14544 0.783691C2.78095 0.783691 0.857285 2.70736 0.857285 5.07185C0.857285 7.43633 2.78095 9.36 5.14544 9.36C7.50993 9.36 9.43359 7.43633 9.43359 5.07185C9.43359 2.70736 7.50993 0.783691 5.14544 0.783691ZM5.14544 1.42691C7.1553 1.42691 8.79037 3.06199 8.79037 5.07185C8.79037 7.0817 7.1553 8.71678 5.14544 8.71678C3.13558 8.71678 1.50051 7.0817 1.50051 5.07185C1.50051 3.06199 3.13558 1.42691 5.14544 1.42691ZM5.53669 3.3556L4.04184 4.84402C3.98138 4.90448 3.9475 4.98638 3.9475 5.07172C3.9475 5.15748 3.98138 5.23938 4.04184 5.29985L5.53669 6.78784C5.5993 6.85044 5.68163 6.88175 5.76353 6.88175C5.84587 6.88175 5.92863 6.85044 5.99123 6.78698C6.11645 6.66091 6.11602 6.45765 5.99038 6.33243L4.72451 5.07172L5.99038 3.81143C6.11602 3.68621 6.11645 3.48253 5.99123 3.35646C5.86602 3.22995 5.66276 3.23081 5.53669 3.3556Z" fill="black"/>
</svg>
