<svg width="9" height="10" viewBox="0 0 9 10" fill="none" xmlns="http://www.w3.org/2000/svg">
<path fill-rule="evenodd" clip-rule="evenodd" d="M4.71101 0.78418C7.07549 0.78418 8.99916 2.70785 8.99916 5.07233C8.99916 7.43682 7.07549 9.36049 4.71101 9.36049C2.34652 9.36049 0.422852 7.43682 0.422852 5.07233C0.422852 2.70785 2.34652 0.78418 4.71101 0.78418ZM4.71101 1.4274C2.70115 1.4274 1.06607 3.06248 1.06607 5.07233C1.06607 7.08219 2.70115 8.71727 4.71101 8.71727C6.72086 8.71727 8.35594 7.08219 8.35594 5.07233C8.35594 3.06248 6.72086 1.4274 4.71101 1.4274ZM4.31975 3.35609L5.81461 4.8445C5.87507 4.90497 5.90895 4.98687 5.90895 5.07221C5.90895 5.15797 5.87507 5.23987 5.81461 5.30034L4.31975 6.78833C4.25715 6.85093 4.17482 6.88224 4.09291 6.88224C4.01058 6.88224 3.92782 6.85093 3.86521 6.78747C3.74 6.6614 3.74043 6.45814 3.86607 6.33292L5.13193 5.07221L3.86607 3.81192C3.74043 3.6867 3.74 3.48302 3.86521 3.35694C3.99042 3.23044 4.19368 3.2313 4.31975 3.35609Z" fill="black"/>
</svg>
