<svg width="1354" height="1354" viewBox="0 0 1354 1354" fill="none" xmlns="http://www.w3.org/2000/svg">
<rect width="1354" height="1354" fill="none"/>
<path fill-rule="evenodd" clip-rule="evenodd" d="M990.435 67.2022C987.87 71.3389 985.401 111.777 984.939 157.057C984.22 228.235 981.906 244.253 967.894 275.251C934.816 348.402 860.978 390.685 755.181 397.059L695.884 400.626L666.049 373.141C573.68 288.047 505.494 311.111 435.863 451.013C417.4 488.094 415.948 495.024 423.608 509.327C431.33 523.758 429.559 530.993 407.67 574.442C334.395 719.857 240.363 856.327 173.467 914.343C69.6171 1004.4 50.7471 1024.91 26.3945 1074.15C-6.21583 1140.1 -8.67211 1186.99 19.3785 1208.22C34.7608 1219.85 50.1093 1223.16 97.4642 1225.01L156.408 1227.32L175.312 1261.16L194.216 1295L222.755 1290.21C280.085 1280.6 281.822 1278.85 281.822 1230.66V1187.43L330.195 1166.07C356.8 1154.33 381.994 1144.67 386.174 1144.61C390.36 1144.55 404.989 1157.53 418.696 1173.44L443.612 1202.36L483.156 1188.8C526.691 1173.86 525.809 1175.92 518.807 1105.51L515.916 1076.47L568.543 1048.19L621.17 1019.91L650.225 1048.41C666.205 1064.08 683.745 1076.91 689.2 1076.92C703.381 1076.95 755.995 1048.09 759.788 1038.2C761.545 1033.62 758.329 1014.21 752.636 995.069C746.95 975.919 743.686 956.632 745.39 952.197C747.093 947.769 767.91 932.246 791.652 917.706C815.401 903.174 881.32 861.061 938.141 824.136L1041.45 756.999L1072.16 782.138C1100.01 804.951 1104.59 806.565 1121.6 799.526C1131.9 795.26 1149.28 784.64 1160.22 775.92L1180.11 760.078L1165.92 721.593L1151.74 683.115L1176.37 666.392C1189.91 657.196 1203.7 649.669 1207 649.669C1210.31 649.669 1223.45 658.824 1236.2 670.013C1248.95 681.203 1262.77 690.358 1266.92 690.358C1271.06 690.358 1287.74 681.962 1303.99 671.709C1336.67 651.073 1339.41 640.846 1323.97 597.106C1314.52 570.339 1314.66 569.756 1334.15 555.359C1358.15 537.626 1360.57 507.245 1340.41 476.742C1316.35 440.346 1314.79 436.548 1307.33 396.158C1303.28 374.219 1293.33 342.564 1285.22 325.82C1264.79 283.66 1200.22 216.876 1152.73 188.787C1091.07 152.33 1069.29 134.203 1040.69 95.508C1014.81 60.5021 999.806 52.0456 990.435 67.2022ZM1120.8 223.583C1198.17 267.221 1255.32 342.753 1263.56 412.243L1267.44 445.011L1221.57 478.674L1175.7 512.344L1140.97 502.898C1121.87 497.703 1076.84 491.546 1040.9 489.213L975.569 484.968L992.322 448.402C1010.46 408.798 1027.59 325.942 1027.97 275.99C1028.1 258.819 1030.16 226.072 1032.55 203.218L1036.9 161.668L1060.17 182.094C1072.97 193.324 1100.25 211.993 1120.8 223.583ZM962.663 393.669C948.923 440.095 945.048 446.869 909.167 487.246C875.953 524.626 874.325 528.905 888.77 540.881C896.438 547.242 909.968 547.208 950.151 540.732C1001.74 532.417 1107.03 535.815 1117.28 546.136C1122.34 551.229 1042.89 609.496 870.647 727.025L784.582 785.753L731.676 772.217C670.588 756.592 619.033 739.327 568.591 717.619L533.063 702.327L550.257 674.306C559.709 658.892 576.835 627.968 588.302 605.589C599.776 583.211 623.979 549.141 642.096 529.881C660.213 510.622 680.257 483.923 686.635 470.543C697.885 446.971 699.398 446.218 735.999 446.11C814.607 445.859 900.021 417.763 950.178 375.644C961.374 366.244 971.131 358.446 971.864 358.31C972.597 358.175 968.458 374.084 962.663 393.669ZM592.59 374.443C602.667 379.719 621.096 394.625 633.54 407.571C655.518 430.431 655.864 431.665 645.631 450.531C622.751 492.705 585.751 520.821 553.134 520.821C533.721 520.821 471.811 493.709 471.811 485.212C471.811 470.462 514.206 405.468 536.7 385.728C563.787 361.959 567.363 361.233 592.59 374.443ZM1306.41 510.974C1306.41 515.83 1278.17 539.389 1243.64 563.321C861.921 827.96 565.395 1008.8 358.347 1103.21C316.461 1122.31 279.82 1137.86 276.923 1137.77C274.019 1137.68 320.498 1112.35 380.209 1081.49C593.69 971.11 907.512 767.856 1221.1 536.859C1272.79 498.775 1290.54 488.975 1297.43 494.692C1302.37 498.788 1306.41 506.112 1306.41 510.974ZM523.577 562.439C539.889 566.542 553.235 571.296 553.235 572.998C553.235 578.457 497.677 672.021 469.45 714.093C433.223 768.087 365.96 837.821 334.68 853.811C311.162 865.828 288.607 870.629 288.607 863.611C288.607 861.922 302.585 840.56 319.664 816.14C342.618 783.318 354.798 771.735 366.333 771.735C374.917 771.735 385.42 767.544 389.675 762.424C398.075 752.306 393.047 731.047 382.252 731.047C378.574 731.047 381.329 721.193 388.365 709.149C396.949 694.461 406.394 687.198 417.054 687.109C439.941 686.906 451.109 666.758 436.453 652.117C426.275 641.945 426.119 638.731 434.953 621.655C443.299 605.528 447.873 603.175 464.476 606.498C480.273 609.652 485.762 607.38 492.446 594.902C499.631 581.481 498.797 577.785 486.285 567.661C469.124 553.772 467.306 544.767 482.865 550.734C488.944 553.067 507.265 558.329 523.577 562.439ZM1281.23 615.755C1285.87 633.475 1276.45 638.703 1257.83 628.748C1243.41 621.031 1243.33 620.441 1255.59 611.476C1272.64 599.018 1277.04 599.751 1281.23 615.755ZM1118.8 725.845C1124.58 747.939 1112.63 756.206 1096.29 741.422C1083.4 729.765 1083.29 728.544 1094.43 720.095C1110.81 707.664 1114.25 708.471 1118.8 725.845ZM568.421 767.524C626.259 791.164 650.408 799.316 702.052 812.634L732.124 820.392L700.376 840.147C682.917 851.004 664.115 859.894 658.605 859.894C645.998 859.894 556.587 824.57 511.838 801.906L478.04 784.79L492.351 764.696C500.222 753.649 507.943 744.61 509.511 744.61C511.078 744.61 537.588 754.917 568.421 767.524ZM591.851 886.925C596.295 886.98 601.717 889.909 603.902 893.442C612.315 907.039 321.251 1066.86 203.546 1113.28C143.828 1136.83 52.3824 1161.8 46.6895 1156.12C45.1356 1154.56 50.5639 1135.37 58.7538 1113.49C74.2515 1072.09 121.437 1019.44 208.54 946.358C243.668 916.886 249.965 914.146 282.589 914.146C327.284 914.146 366.136 895.965 412.501 853.357L447.405 821.281L515.59 854.056C553.086 872.081 587.406 886.871 591.851 886.925ZM702.608 983.656C702.655 988.322 704.542 998.996 706.788 1007.39C711.877 1026.36 700.45 1027.35 678.215 1009.87L661.95 997.077L677.143 986.484C695.89 973.409 702.486 972.677 702.608 983.656ZM473.793 1122.66C478.475 1147.14 465.23 1154.69 448.063 1137.32C434.648 1123.75 434.641 1123.48 447.662 1113.81C466.057 1100.15 469.721 1101.39 473.793 1122.66ZM234.324 1222.7C234.324 1243.07 217.592 1245.52 207.475 1226.64C202.406 1217.18 202.807 1212.69 208.934 1210.22C227.091 1202.89 234.324 1206.45 234.324 1222.7Z" fill="black"/>
</svg>
