<svg width="15" height="15" viewBox="0 0 15 15" fill="none" xmlns="http://www.w3.org/2000/svg">
<rect x="0.284958" y="0.579392" width="13.5823" height="13.5823" rx="1.30646" stroke="black" stroke-opacity="0.05" stroke-width="0.468354"/>
<path fill-rule="evenodd" clip-rule="evenodd" d="M9.50324 2.75337C9.20461 2.8384 8.96023 2.92972 8.96023 2.95637C8.96023 3.09868 9.52581 4.43775 9.58599 4.43795C9.6866 4.43825 10.6218 4.18347 10.6684 4.14304C10.7257 4.09335 10.181 2.58772 10.1079 2.59377C10.074 2.59657 9.80188 2.6684 9.50324 2.75337ZM7.29144 3.34811C6.88351 3.45908 6.54038 3.558 6.52893 3.5679C6.50721 3.58679 6.62175 3.9002 6.93082 4.66809L7.11396 5.12296L7.91228 4.90667C8.35136 4.7877 8.71616 4.68418 8.72289 4.67674C8.75208 4.64439 8.13325 3.17041 8.08573 3.15896C8.0568 3.15201 7.69936 3.23714 7.29144 3.34811ZM4.94719 3.97603C4.59028 4.07545 4.29821 4.18052 4.29821 4.20952C4.29821 4.23846 4.43103 4.59106 4.59335 4.99305L4.88854 5.72389L5.57709 5.53585C5.95577 5.43237 6.27692 5.3371 6.29069 5.32405C6.30447 5.31106 6.22299 5.07827 6.10956 4.8068C5.99619 4.53533 5.85935 4.19512 5.80553 4.05076C5.7517 3.9064 5.68256 3.78988 5.65189 3.79178C5.62127 3.79373 5.30409 3.87661 4.94719 3.97603ZM2.84133 4.54652C2.54996 4.63005 2.30594 4.70328 2.29911 4.70918C2.29227 4.71507 2.41147 5.06958 2.564 5.49691L2.84133 6.27389L3.44591 6.10604C3.77845 6.01371 4.05579 5.93248 4.0623 5.92549C4.09504 5.89015 3.47134 4.38862 3.42509 4.39142C3.39542 4.39316 3.13271 4.463 2.84133 4.54652ZM2.86782 8.79079V11.2939L3.02267 11.44L3.17753 11.5862H7.05245C9.60877 11.5862 10.962 11.5687 11.0293 11.5347C11.2869 11.4046 11.2912 11.3583 11.2912 8.73945V6.28764H7.07953H2.86782V8.79079ZM10.1787 8.16251V8.98768L7.06628 8.97478L3.95386 8.96189L3.93929 8.14961L3.92472 7.33734H7.05171H10.1787V8.16251Z" fill="black"/>
</svg>
