<svg width="8" height="9" viewBox="0 0 8 9" fill="none" xmlns="http://www.w3.org/2000/svg">
<path fill-rule="evenodd" clip-rule="evenodd" d="M1.20175 0.0579169C1.12029 0.134774 1.18225 0.599342 1.32686 0.995766C1.41376 1.23416 1.47596 1.43472 1.46499 1.44134C1.45402 1.44805 1.33167 1.49608 1.19315 1.54806C0.92201 1.64987 0.648664 2.09016 0.261655 3.04864C0.0108049 3.67005 0.0209872 4.27686 0.285256 4.44242C0.379186 4.50125 0.5099 4.52992 0.575651 4.50617C0.707864 4.45828 0.741332 4.23478 0.616223 4.23478C0.433729 4.23478 0.553708 3.75405 0.853022 3.28584C1.02668 3.01423 1.16876 2.76467 1.16876 2.73138C1.16876 2.69809 1.20041 2.67083 1.23908 2.67083C1.34375 2.67083 1.55608 3.21732 1.69145 3.83471L1.81088 4.37949L1.54566 4.59918C1.39987 4.71998 1.19725 4.98652 1.0955 5.19155L0.910486 5.56422L1.12526 6.0725C1.37548 6.66449 1.5504 6.94697 1.93614 7.3822C2.08998 7.5558 2.25401 7.7816 2.30066 7.884C2.34723 7.9864 2.48797 8.21489 2.61339 8.39184C2.83235 8.70068 2.84735 8.70835 2.99172 8.5851C3.22662 8.38454 3.17816 8.10474 2.85745 7.81079C2.52191 7.50307 2.39348 7.28129 2.31794 6.8786C2.28724 6.71476 2.17594 6.4407 2.07065 6.26956C1.96527 6.09842 1.87915 5.94344 1.87915 5.92512C1.87915 5.9068 1.98074 5.87269 2.1049 5.84923C2.22914 5.82577 2.4365 5.72262 2.56579 5.62L2.80078 5.43344L3.14572 5.765C3.33547 5.94738 3.56461 6.09663 3.65499 6.09663C3.81026 6.09663 5.11542 7.28441 5.11542 7.42569C5.11542 7.45868 5.31007 7.61709 5.54797 7.77788C5.81768 7.96011 6.03759 8.18234 6.132 8.36808C6.36706 8.83027 6.62004 9.01548 6.97808 8.98748L7.28008 8.96387L6.83198 8.47979C6.58555 8.21355 6.26721 7.79463 6.12458 7.54887C5.98194 7.30311 5.67742 6.92403 5.44772 6.70642C5.21811 6.48888 4.94129 6.13699 4.83268 5.92445C4.72406 5.71197 4.51513 5.337 4.36823 5.09123C4.22142 4.84547 4.07855 4.59412 4.05076 4.53268C4.02298 4.47124 3.93118 4.28691 3.8468 4.12307C3.71782 3.87247 3.54567 3.30036 3.53865 3.09906C3.53762 3.06837 3.6025 3.0432 3.68286 3.0432C3.76321 3.0432 3.93765 3.00745 4.0705 2.96374C4.33611 2.87638 4.33516 2.78761 4.06284 2.22399C3.66691 1.40448 3.323 1.11768 2.72769 1.11046C2.4099 1.10658 2.41243 1.11068 2.39885 0.579234C2.38646 0.0964199 2.2342 -0.0248981 1.67637 0.00399775C1.4335 0.0165094 1.2199 0.0408624 1.20175 0.0579169ZM0.810004 8.06684C0.43073 8.42461 0.666977 9.0023 1.19157 8.99999C1.33096 8.99932 1.48409 8.97423 1.53185 8.94414C1.66169 8.86236 1.80022 8.58495 1.80022 8.40681C1.80022 8.18897 1.45489 7.884 1.20822 7.884C1.09574 7.884 0.916564 7.9663 0.810004 8.06684Z" fill="black"/>
</svg>
