<svg width="5" height="7" viewBox="0 0 5 7" fill="none" xmlns="http://www.w3.org/2000/svg">
<path d="M2.8131 0.908203C1.62158 0.908203 0.654785 1.77841 0.654785 2.85069C0.654785 4.57734 2.8131 6.95149 2.8131 6.95149C2.8131 6.95149 4.97142 4.57734 4.97142 2.85069C4.97142 1.77841 4.00463 0.908203 2.8131 0.908203ZM2.8131 3.92985C2.64235 3.92985 2.47544 3.87921 2.33346 3.78435C2.19149 3.68949 2.08083 3.55465 2.01549 3.3969C1.95015 3.23915 1.93305 3.06556 1.96636 2.89809C1.99967 2.73062 2.0819 2.57679 2.20264 2.45606C2.32338 2.33532 2.47721 2.25309 2.64467 2.21978C2.81214 2.18647 2.98573 2.20357 3.14348 2.26891C3.30123 2.33425 3.43607 2.44491 3.53093 2.58688C3.62579 2.72885 3.67643 2.89577 3.67643 3.06652C3.67618 3.29541 3.58514 3.51486 3.42329 3.67671C3.26144 3.83856 3.04199 3.9296 2.8131 3.92985Z" fill="#59C65D"/>
</svg>
