<svg width="1376" height="1376" viewBox="0 0 1376 1376" fill="none" xmlns="http://www.w3.org/2000/svg">
<g clip-path="url(#clip0_0_209)">
<rect width="1375.16" height="1375.16" transform="translate(0.517578 0.525513)" fill="#FAFAFA"/>
<path d="M233.314 681.913H174.264L173.865 650.992H228.725C236.971 650.992 244.286 649.13 250.67 645.406C257.054 641.682 262.041 636.362 265.632 629.447C269.356 622.398 271.218 614.019 271.218 604.31C271.218 593.671 269.622 585.026 266.43 578.376C263.371 571.593 258.65 566.673 252.266 563.614C246.015 560.422 238.035 558.826 228.326 558.826H182.044V817.769H145.337V527.306H228.326C240.828 527.306 252 528.835 261.841 531.894C271.683 534.82 279.995 539.475 286.778 545.859C293.694 552.11 298.947 560.089 302.538 569.798C306.129 579.507 307.924 591.144 307.924 604.709C307.924 616.679 305.198 627.518 299.745 637.227C294.425 646.803 286.978 654.649 277.402 660.767C267.826 666.885 256.788 670.808 244.286 672.537L233.314 681.913ZM231.917 817.769H159.102L180.448 786.448H231.917C241.493 786.448 249.606 784.32 256.256 780.064C262.905 775.809 267.959 769.824 271.417 762.11C275.008 754.263 276.803 745.02 276.803 734.38C276.803 723.608 275.34 714.298 272.415 706.451C269.489 698.604 264.834 692.553 258.45 688.297C252.066 684.041 243.687 681.913 233.314 681.913H186.034L186.433 650.992H250.271L258.45 662.164C270.42 663.361 280.461 667.35 288.574 674.133C296.819 680.783 303.004 689.295 307.126 699.668C311.382 710.042 313.51 721.48 313.51 733.981C313.51 752.069 310.119 767.363 303.336 779.865C296.686 792.233 287.244 801.676 275.008 808.193C262.772 814.577 248.409 817.769 231.917 817.769ZM406.674 751.138L519.787 527.306H556.494V817.769H519.787V593.737L406.674 817.769H370.166V527.306H406.674V751.138ZM771.548 527.306V558.826H657.437V817.769H620.731V527.306H771.548ZM649.657 645.606H715.69C733.644 645.606 748.805 649.197 761.174 656.378C773.676 663.427 783.118 673.335 789.502 686.103C796.019 698.87 799.277 713.832 799.277 730.989C799.277 743.757 797.415 755.46 793.692 766.1C790.101 776.606 784.714 785.783 777.533 793.63C770.484 801.344 761.773 807.329 751.399 811.584C741.025 815.707 729.122 817.769 715.69 817.769H620.731V527.306H657.437V786.448H715.69C726.861 786.448 735.838 783.855 742.621 778.668C749.537 773.348 754.591 766.432 757.783 757.921C760.975 749.409 762.571 740.299 762.571 730.59C762.571 720.881 760.975 711.971 757.783 703.858C754.591 695.745 749.537 689.295 742.621 684.507C735.838 679.586 726.861 677.126 715.69 677.126H649.657V645.606ZM916.979 721.413L978.622 527.306H1020.91L937.327 769.292C934.667 776.074 931.808 782.658 928.749 789.042C925.823 795.292 922.232 800.878 917.976 805.799C913.72 810.72 908.4 814.643 902.017 817.569C895.633 820.495 887.653 821.958 878.077 821.958C875.151 821.958 871.76 821.759 867.903 821.36C864.179 821.094 861.785 820.761 860.721 820.362L861.519 789.64C862.716 789.906 865.177 790.172 868.901 790.438C872.758 790.571 875.484 790.638 877.08 790.638C883.065 790.638 887.653 789.108 890.845 786.049C894.17 782.99 896.763 779.133 898.625 774.479C900.487 769.691 902.283 764.836 904.012 759.916L916.979 721.413ZM870.696 527.306L933.337 708.247L941.915 743.956L910.994 746.35L829.8 527.306H870.696ZM1154.58 681.913H1095.53L1095.13 650.992H1149.99C1158.23 650.992 1165.55 649.13 1171.93 645.406C1178.32 641.682 1183.3 636.362 1186.89 629.447C1190.62 622.398 1192.48 614.019 1192.48 604.31C1192.48 593.671 1190.88 585.026 1187.69 578.376C1184.63 571.593 1179.91 566.673 1173.53 563.614C1167.28 560.422 1159.3 558.826 1149.59 558.826H1103.31V817.769H1066.6V527.306H1149.59C1162.09 527.306 1173.26 528.835 1183.1 531.894C1192.94 534.82 1201.26 539.475 1208.04 545.859C1214.96 552.11 1220.21 560.089 1223.8 569.798C1227.39 579.507 1229.19 591.144 1229.19 604.709C1229.19 616.679 1226.46 627.518 1221.01 637.227C1215.69 646.803 1208.24 654.649 1198.66 660.767C1189.09 666.885 1178.05 670.808 1165.55 672.537L1154.58 681.913ZM1153.18 817.769H1080.36L1101.71 786.448H1153.18C1162.75 786.448 1170.87 784.32 1177.52 780.064C1184.17 775.809 1189.22 769.824 1192.68 762.11C1196.27 754.263 1198.07 745.02 1198.07 734.38C1198.07 723.608 1196.6 714.298 1193.68 706.451C1190.75 698.604 1186.1 692.553 1179.71 688.297C1173.33 684.041 1164.95 681.913 1154.58 681.913H1107.3L1107.69 650.992H1171.53L1179.71 662.164C1191.68 663.361 1201.72 667.35 1209.84 674.133C1218.08 680.783 1224.27 689.295 1228.39 699.668C1232.64 710.042 1234.77 721.48 1234.77 733.981C1234.77 752.069 1231.38 767.363 1224.6 779.865C1217.95 792.233 1208.51 801.676 1196.27 808.193C1184.03 814.577 1169.67 817.769 1153.18 817.769Z" fill="#FF3B3B"/>
<rect x="11.8753" y="404.722" width="1349.28" height="547.094" rx="79.4428" stroke="#FF3B3B" stroke-width="22.6979"/>
</g>
<defs>
<clipPath id="clip0_0_209">
<rect width="1375.16" height="1375.16" fill="white" transform="translate(0.517578 0.525513)"/>
</clipPath>
</defs>
</svg>
