<svg width="1388" height="1388" viewBox="0 0 1388 1388" fill="none" xmlns="http://www.w3.org/2000/svg">
<g clip-path="url(#clip0_1_210)">
<path fill-rule="evenodd" clip-rule="evenodd" d="M479.688 51.6585C467.51 63.1484 476.773 132.6 498.391 191.865C511.383 227.504 520.682 257.487 519.042 258.478C517.402 259.48 499.111 266.661 478.401 274.433C437.867 289.652 397.002 355.475 339.145 498.765C301.644 591.665 303.166 682.382 342.674 707.132C356.716 715.928 376.257 720.215 386.087 716.663C405.853 709.504 410.856 676.092 392.153 676.092C364.87 676.092 382.807 604.224 427.554 534.226C453.514 493.622 474.755 456.313 474.755 451.336C474.755 446.359 479.487 442.284 485.269 442.284C500.916 442.284 532.659 523.983 552.897 616.281L570.751 697.724L531.102 730.569C509.307 748.628 479.015 788.475 463.804 819.126L436.144 874.839L468.253 950.827C505.66 1039.33 531.81 1081.56 589.478 1146.62C612.477 1172.58 636.998 1206.33 643.972 1221.64C650.934 1236.95 671.974 1271.11 690.725 1297.56C723.459 1343.73 725.701 1344.88 747.284 1326.46C782.402 1296.47 775.157 1254.64 727.212 1210.7C677.049 1164.69 657.849 1131.54 646.556 1071.34C641.966 1046.84 625.328 1005.87 609.586 980.286C593.832 954.701 580.958 931.532 580.958 928.793C580.958 926.054 596.145 920.955 614.707 917.448C633.281 913.941 664.281 898.521 683.61 883.178L718.739 855.289L770.307 904.856C798.675 932.122 832.931 954.434 846.443 954.434C869.654 954.434 1064.77 1132.01 1064.77 1153.13C1064.77 1158.06 1093.87 1181.74 1129.44 1205.78C1169.76 1233.02 1202.64 1266.24 1216.75 1294.01C1251.89 1363.11 1289.71 1390.8 1343.24 1386.61L1388.39 1383.08L1321.4 1310.71C1284.55 1270.91 1236.96 1208.28 1215.64 1171.54C1194.32 1134.8 1148.79 1078.13 1114.45 1045.6C1080.13 1013.08 1038.74 960.469 1022.5 928.693C1006.27 896.929 975.031 840.87 953.071 804.129C931.122 767.388 909.763 729.812 905.61 720.626C901.456 711.441 887.732 683.885 875.118 659.391C855.836 621.926 830.099 536.397 829.049 506.303C828.896 501.716 838.595 497.953 850.608 497.953C862.621 497.953 888.7 492.608 908.56 486.073C948.268 473.013 948.126 459.742 907.415 375.482C848.225 252.967 796.81 210.091 707.812 209.011C660.304 208.432 660.681 209.044 658.652 129.594C656.799 57.4146 634.036 39.2778 550.643 43.5977C514.333 45.4681 482.402 49.1088 479.688 51.6585ZM421.122 1248.98C364.422 1302.46 399.74 1388.83 478.165 1388.48C499.005 1388.38 521.897 1384.63 529.037 1380.13C548.448 1367.91 569.158 1326.43 569.158 1299.8C569.158 1267.24 517.531 1221.64 480.655 1221.64C463.84 1221.64 437.053 1233.95 421.122 1248.98Z" fill="#0B0B0B"/>
</g>
<defs>
<clipPath id="clip0_1_210">
<rect width="1388" height="1388" fill="white"/>
</clipPath>
</defs>
</svg>
