<svg width="1376" height="1377" viewBox="0 0 1376 1377" fill="none" xmlns="http://www.w3.org/2000/svg">
<g clip-path="url(#clip0_0_184)">
<rect width="1375.16" height="1375.16" transform="translate(0 0.975342)" fill="#FAFAFA"/>
<path fill-rule="evenodd" clip-rule="evenodd" d="M431.001 67.8394C387.938 75.6789 362.456 85.0645 333.136 103.886C285.935 134.182 251.528 181.345 236.643 236.154C231.537 254.955 230.771 262.346 230.771 292.862C230.771 323.377 231.537 330.769 236.643 349.569C247.571 389.803 267.104 423.221 296.806 452.508C380.677 535.197 511.188 541.54 603.862 467.433C641.878 437.033 670.911 390.48 682.378 341.533C688.609 314.936 688.121 266.867 681.346 240.034C660.571 157.741 595.607 93.3137 513.061 73.1321C494.661 68.634 444.431 65.3945 431.001 67.8394ZM190.821 635.818C141.46 644.653 102.562 664.64 67.5502 699.161C32.6277 733.593 12.0933 772.817 3.48928 821.532C0.563977 838.096 0 870.144 0 1019.83V1198.37H386.296C598.759 1198.37 772.592 1197.73 772.592 1196.95C772.592 1196.17 770.034 1188.52 766.909 1179.97C718.869 1048.46 752.335 899.677 852.33 800.229C863.323 789.295 877.422 776.242 883.66 771.224L895.001 762.096L885.46 746.238C845.98 680.616 780.534 639.485 705.705 633.269L688.107 631.806L682.25 650.793C679.026 661.238 648.077 762.992 613.471 876.917C578.867 990.842 550.033 1082.53 549.398 1080.66C547.55 1075.22 486.023 768.588 486.023 764.819C486.023 762.94 505.633 732.386 529.602 696.917L573.179 632.429H458.512H343.845L387.422 696.917C411.391 732.386 431.001 762.995 431.001 764.939C431.001 768.801 369.512 1075.14 367.63 1080.66C366.993 1082.53 338.157 990.842 303.553 876.917C268.947 762.992 238.041 661.378 234.87 651.105L229.109 632.429L218.293 632.633C212.344 632.746 199.982 634.179 190.821 635.818ZM1081.13 804.567C990.908 818.562 914.305 877.073 880.155 958.076C865.959 991.745 861.397 1014.61 861.113 1053.49C860.952 1075.36 862.057 1094.55 864.04 1104.43C889.199 1229.6 1003.24 1317.64 1131.38 1310.83C1262.74 1303.84 1367.71 1200.18 1374.79 1070.47C1381.6 945.677 1295.07 834.29 1170.56 807.566C1150.98 803.362 1099.93 801.651 1081.13 804.567ZM1160.55 829.554L1175.97 832.405L1192.32 860.734C1207.96 887.831 1208.52 889.318 1205.3 894.876C1203.45 898.072 1193.45 915.225 1183.08 932.991L1164.22 965.295L1117.2 964.684L1070.17 964.073L1049.51 928.984C1038.14 909.686 1028.35 892.673 1027.75 891.179C1027.16 889.685 1034.04 875.813 1043.06 860.349L1059.45 832.235L1077.07 829.493C1086.77 827.986 1096.24 826.374 1098.14 825.912C1104.59 824.336 1145.1 826.702 1160.55 829.554ZM1037.96 931.914C1049.62 952.15 1059.16 969.443 1059.16 970.344C1059.16 971.244 1048.7 989.812 1035.92 1011.61L1012.67 1051.23H968.725H924.779L908.248 1022.99L891.718 994.749L896.496 980.743C905.066 955.62 920.91 928.269 939.262 906.912L949.475 895.028L983.111 895.075L1016.75 895.123L1037.96 931.914ZM1295.98 906.912C1314.34 928.269 1330.18 955.62 1338.75 980.743L1343.53 994.749L1327 1022.99L1310.47 1051.23H1266.47H1222.47L1201.13 1014.44C1189.4 994.211 1178.78 975.971 1177.53 973.911C1175.76 970.996 1180.05 961.85 1196.87 932.665L1218.5 895.166L1252.13 895.095L1285.77 895.028L1295.98 906.912ZM1034.05 1099.33C1045.81 1119.57 1056.46 1137.81 1057.71 1139.87C1059.5 1142.8 1055.26 1151.86 1038.38 1181.14L1016.75 1218.65L983.363 1218.7L949.977 1218.75L944.101 1212.52C925.33 1192.63 906.18 1160.6 896.684 1133.2L891.751 1118.97L908.266 1090.76L924.779 1062.55H968.725H1012.67L1034.05 1099.33ZM1326.86 1090.72L1343.44 1118.89L1336.49 1137.86C1328.37 1160.04 1313.98 1184.93 1298.26 1204.03L1287.08 1217.62L1252.79 1218.16L1218.5 1218.7L1197.29 1181.87C1185.63 1161.61 1176.08 1144.27 1176.08 1143.33C1176.08 1142.4 1186.51 1123.84 1199.24 1102.09L1222.41 1062.55H1266.35H1310.29L1326.86 1090.72ZM1185.71 1184.79C1197.04 1204.09 1206.84 1221.13 1207.47 1222.65C1208.11 1224.18 1201.26 1238.05 1192.25 1253.48L1175.88 1281.53L1158.21 1284.66C1136.31 1288.55 1097.76 1288.56 1075.96 1284.7L1059.52 1281.79L1043.29 1253.99C1034.37 1238.7 1027.07 1225.48 1027.07 1224.61C1027.07 1223.74 1032.6 1213.66 1039.35 1202.21C1046.12 1190.76 1055.97 1173.99 1061.26 1164.94L1070.88 1148.48L1118 1149.09L1165.11 1149.7L1185.71 1184.79Z" fill="black"/>
</g>
<defs>
<clipPath id="clip0_0_184">
<rect width="1375.16" height="1375.16" fill="white" transform="translate(0 0.975342)"/>
</clipPath>
</defs>
</svg>
