<svg width="1376" height="1377" viewBox="0 0 1376 1377" fill="none" xmlns="http://www.w3.org/2000/svg">
<rect width="1375.16" height="1375.16" transform="translate(0.460938 0.975342)" fill="#FAFAFA"/>
<circle cx="671.673" cy="705.052" r="523.872" stroke="#929292" stroke-width="32.742"/>
<path d="M822.265 800.566V845.746H505.141V800.566H822.265ZM514.062 800.566V948.768H459.097L458.81 800.566H514.062ZM870.61 800.566L870.035 948.48H815.071V800.566H870.61ZM767.876 426.75V472.218H584.278V426.75H767.876ZM815.646 426.75V845.746H760.394V426.75H815.646ZM565.285 426.75H620.825L612.192 595.385C611.041 620.708 608.643 644.114 604.997 665.601C601.352 686.896 596.844 706.368 591.472 724.018C586.1 741.668 579.961 757.496 573.055 771.501C566.148 785.314 558.762 797.304 550.896 807.472C543.031 817.448 534.781 825.698 526.148 832.22C517.707 838.551 509.17 843.06 500.536 845.746H475.213V800.566H493.054C498.042 795.194 503.702 787.424 510.033 777.256C516.556 767.088 522.983 753.947 529.314 737.831C535.836 721.524 541.496 701.668 546.292 678.263C551.28 654.857 554.637 627.231 556.364 595.385L565.285 426.75Z" fill="#929292"/>
</svg>
