<svg width="101" height="100" viewBox="0 0 101 100" fill="none" xmlns="http://www.w3.org/2000/svg">
<rect x="1.67107" y="1.66668" width="96.6673" height="96.6673" rx="9.2983" stroke="black" stroke-opacity="0.05" stroke-width="3.33335"/>
<path fill-rule="evenodd" clip-rule="evenodd" d="M67.2828 17.1361C65.1574 17.7412 63.418 18.3912 63.418 18.5808C63.418 19.5936 67.4434 29.1241 67.8717 29.1255C68.5878 29.1276 75.2434 27.3143 75.5752 27.0265C75.9832 26.6729 72.1064 15.9571 71.5861 16.0001C71.3447 16.0201 69.4082 16.5313 67.2828 17.1361ZM51.541 21.3689C48.6377 22.1587 46.1956 22.8627 46.1141 22.9332C45.9596 23.0676 46.7747 25.2982 48.9744 30.7634L50.2779 34.0008L55.9596 32.4614C59.0846 31.6147 61.681 30.878 61.7289 30.8249C61.9366 30.5948 57.5323 20.1042 57.1941 20.0227C56.9882 19.9732 54.4443 20.5791 51.541 21.3689ZM34.8566 25.8379C32.3164 26.5455 30.2377 27.2933 30.2377 27.4997C30.2377 27.7057 31.183 30.2152 32.3383 33.0762L34.4392 38.2777L39.3397 36.9394C42.0348 36.2029 44.3205 35.5249 44.4186 35.432C44.5166 35.3395 43.9367 33.6828 43.1294 31.7506C42.3225 29.8185 41.3486 27.3972 40.9655 26.3698C40.5825 25.3423 40.0904 24.5131 39.8721 24.5266C39.6542 24.5405 37.3968 25.1303 34.8566 25.8379ZM19.8689 29.8982C17.7951 30.4927 16.0584 31.0138 16.0098 31.0558C15.9612 31.0978 16.8095 33.6208 17.895 36.6622L19.8689 42.1921L24.1718 40.9975C26.5385 40.3404 28.5124 39.7623 28.5587 39.7125C28.7918 39.461 24.3528 28.7744 24.0236 28.7943C23.8125 28.8067 21.9427 29.3037 19.8689 29.8982ZM20.0574 60.1053V77.9206L21.1595 78.9605L22.2617 80.0004H49.8401C68.0339 80.0004 77.6652 79.8759 78.1437 79.6339C79.9773 78.7083 80.0082 78.3785 80.0082 59.7399V42.29H50.0328H20.0574V60.1053ZM72.0902 55.6338V61.5066L49.9385 61.4148L27.7869 61.3231L27.6832 55.542L27.5795 49.7609H49.8349H72.0902V55.6338Z" fill="black"/>
</svg>
