<svg width="100" height="100" viewBox="0 0 100 100" fill="none" xmlns="http://www.w3.org/2000/svg">
<rect x="1.66667" y="1.66667" width="96.6667" height="96.6667" rx="9.29824" stroke="black" stroke-opacity="0.05" stroke-width="3.33333"/>
<path d="M75 37.5L63.75 31.25L51.25 53.75V63.75L60 61.25L75 37.5Z" fill="black"/>
<path d="M73.1484 32.6738L69.5516 29.9762C67.7451 28.6213 67.4175 26.0407 68.8281 24.2774C70.1777 22.5903 72.6232 22.2799 74.3516 23.5762L77.9484 26.2738C79.7549 27.6287 80.0825 30.2093 78.6719 31.9726C77.3223 33.6597 74.8768 33.9701 73.1484 32.6738Z" fill="black"/>
<path d="M57.5 25H25C22.2386 25 20 27.2386 20 30V73.75C20 76.5114 22.2386 78.75 25 78.75H72.5C75.2614 78.75 77.5 76.5114 77.5 73.75V47.5" stroke="black" stroke-width="7.5" stroke-linecap="round"/>
</svg>
