<svg width="108" height="108" viewBox="0 0 108 108" fill="none" xmlns="http://www.w3.org/2000/svg">
<path d="M45.7932 49.2869V56.3768H28.3028V49.2869H45.7932ZM30.7345 32.0016V74.6581H22.1505V32.0016H30.7345ZM52.0042 32.0016V74.6581H43.508V32.0016H52.0042Z" fill="black"/>
<path d="M70.8207 74.6581H63.2913L63.3499 67.5683H70.8207C72.891 67.5683 74.5024 67.1972 75.6547 66.455C76.8071 65.7128 77.6176 64.5409 78.0864 62.9393C78.5746 61.3378 78.8188 59.2381 78.8188 56.6405V49.99C78.8188 48.0174 78.6918 46.3474 78.4379 44.9802C78.184 43.5935 77.7543 42.4802 77.1488 41.6404C76.5434 40.781 75.7328 40.1462 74.7172 39.7361C73.7016 39.3259 72.4418 39.1208 70.9379 39.1208H63.1449V32.0016H70.9379C73.3988 32.0016 75.6352 32.402 77.6469 33.2028C79.6586 34.0036 81.3872 35.1755 82.8325 36.7185C84.2778 38.2419 85.3911 40.1267 86.1723 42.3728C86.9536 44.6189 87.3442 47.1775 87.3442 50.0486V56.6405C87.3442 59.5311 86.9536 62.0897 86.1723 64.3163C85.3911 66.5429 84.2778 68.4276 82.8325 69.9706C81.4067 71.4941 79.6782 72.6562 77.6469 73.457C75.6156 74.2578 73.3402 74.6581 70.8207 74.6581ZM68.2718 32.0016V74.6581H59.6878V32.0016H68.2718Z" fill="black"/>
<path d="M86.4566 2.335H21.544L21.4695 2.335C18.4621 2.33499 16.1029 2.33498 14.2066 2.48992C12.2752 2.64772 10.6777 2.9745 9.23109 3.71159C6.8546 4.92246 4.92246 6.8546 3.71159 9.23109C2.9745 10.6777 2.64772 12.2752 2.48992 14.2066C2.33498 16.103 2.33499 18.4621 2.335 21.4696L2.335 21.544V86.4566L2.335 86.5311C2.33499 89.5385 2.33498 91.8977 2.48992 93.794C2.64772 95.7254 2.9745 97.3229 3.71159 98.7695C4.92246 101.146 6.8546 103.078 9.23109 104.289C10.6777 105.026 12.2752 105.353 14.2066 105.511C16.103 105.666 18.4622 105.666 21.4699 105.666H21.544H86.4566H86.5312C89.5386 105.666 91.8977 105.666 93.794 105.511C95.7254 105.353 97.3229 105.026 98.7695 104.289C101.146 103.078 103.078 101.146 104.289 98.7695C105.026 97.3229 105.353 95.7254 105.511 93.794C105.666 91.8976 105.666 89.5384 105.666 86.5307V86.4566V21.544V21.4694C105.666 18.462 105.666 16.1029 105.511 14.2066C105.353 12.2752 105.026 10.6777 104.289 9.23109C103.078 6.8546 101.146 4.92246 98.7695 3.71159C97.3229 2.9745 95.7254 2.64772 93.794 2.48992C91.8977 2.33498 89.5385 2.33499 86.5311 2.335L86.4566 2.335Z" stroke="black" stroke-opacity="0.05" stroke-width="3.33"/>
<path d="M63 67.5708L68.5 67.5L68.9566 74.7031H63V67.5708Z" fill="black"/>
<path d="M64.665 73.0381V69.2145L66.9385 69.1852L67.1827 73.0381H64.665Z" stroke="black" stroke-opacity="0.05" stroke-width="3.33"/>
<path d="M63 32.0708L68.5 32L68.9566 39.2031H63V32.0708Z" fill="black"/>
<path d="M64.665 37.5381V33.7145L66.9385 33.6852L67.1827 37.5381H64.665Z" stroke="black" stroke-opacity="0.05" stroke-width="3.33"/>
<path d="M43 49.0708L48.5 49L48.9566 56.2031H43V49.0708Z" fill="black"/>
<path d="M44.665 54.5381V50.7145L46.9385 50.6852L47.1827 54.5381H44.665Z" stroke="black" stroke-opacity="0.05" stroke-width="3.33"/>
<path d="M27 49.0708L32.5 49L32.9566 56.2031H27V49.0708Z" fill="black"/>
<path d="M28.665 54.5381V50.7145L30.9385 50.6852L31.1827 54.5381H28.665Z" stroke="black" stroke-opacity="0.05" stroke-width="3.33"/>
</svg>
