<svg width="100" height="100" viewBox="0 0 100 100" fill="none" xmlns="http://www.w3.org/2000/svg">
<rect x="1.66668" y="1.66668" width="96.6673" height="96.6673" rx="9.2983" stroke="black" stroke-opacity="0.05" stroke-width="3.33335"/>
<g clip-path="url(#clip0_635_1421)">
<path fill-rule="evenodd" clip-rule="evenodd" d="M56.4027 52.6304C56.4027 49.4921 53.884 46.9382 50.7867 46.9382C47.6904 46.9382 45.1707 49.4921 45.1707 52.6304C45.1707 55.7692 47.6904 58.3226 50.7867 58.3226C53.884 58.3226 56.4027 55.7692 56.4027 52.6304ZM64.3157 52.6304C64.3157 60.1918 58.2464 66.3425 50.7867 66.3425C43.327 66.3425 37.2582 60.1918 37.2582 52.6304C37.2582 50.5482 37.7206 48.5747 38.5432 46.8049H22V66.5639C22 74.524 28.3893 81 36.2428 81H64.7478C72.6009 81 78.9901 74.524 78.9901 66.5639V46.8049H63.0307C63.8533 48.5747 64.3157 50.5482 64.3157 52.6304ZM62.461 31.7732C62.461 30.8906 63.1723 30.1695 64.0437 30.1695H68.9329C69.8037 30.1695 70.516 30.8906 70.516 31.7732V36.7293C70.516 37.6119 69.8037 38.3334 68.9329 38.3334H64.0437C63.1723 38.3334 62.461 37.6119 62.461 36.7293V31.7732ZM50.7867 38.9183C53.7032 38.9183 56.4042 39.8612 58.6161 41.458H78.9901V37.4361C78.9901 29.476 72.6009 23 64.7478 23H36.2428C28.3893 23 22 29.476 22 37.4361V41.458H42.9583C45.1697 39.8612 47.8707 38.9183 50.7867 38.9183Z" fill="black"/>
</g>
<defs>
<clipPath id="clip0_635_1421">
<rect width="57" height="58" fill="white" transform="translate(22 23)"/>
</clipPath>
</defs>
</svg>
