<svg width="100" height="100" viewBox="0 0 100 100" fill="none" xmlns="http://www.w3.org/2000/svg">
<rect width="100.001" height="100.001" rx="10.965" fill="#FF3B3B"/>
<rect x="1.66668" y="1.66668" width="96.6673" height="96.6673" rx="9.2983" stroke="black" stroke-opacity="0.05" stroke-width="3.33335"/>
<path fill-rule="evenodd" clip-rule="evenodd" d="M42.5442 22.1351C29.6943 26.5712 22.5346 36.7959 22.5552 50.6825C22.566 58.4865 25.4057 65.4023 30.8195 70.8161C36.3917 76.3882 41.5999 78.6053 50.3482 79.1276C57.4223 79.5506 58.4581 79.3519 64.3647 76.4443C67.8722 74.7171 70.7424 72.9869 70.7424 72.5994C70.7424 72.2128 67.945 69.1223 64.525 65.7337C58.6794 59.9393 58.1433 59.6344 55.5515 60.6199C46.4088 64.096 37.1697 53.714 41.6658 45.0179C42.559 43.2907 44.835 41.1415 46.7226 40.2405L50.1554 38.6037L49.8751 29.7837C49.7206 24.9325 49.1521 20.8318 48.6111 20.6715C48.0701 20.5112 45.3406 21.1702 42.5442 22.1351ZM53.6748 20.9863C53.3246 21.3374 53.0374 25.4519 53.0374 30.1299V38.6372L56.4358 40.2572C58.3046 41.1483 60.5296 43.2228 61.3784 44.8654L62.9237 47.8536H72.1382H81.3526L80.4182 43.6733C78.4874 35.0411 71.5755 26.7355 63.4155 23.2397C58.3302 21.062 54.4882 20.1728 53.6748 20.9863ZM61.9883 54.4242C60.8433 56.9373 61.0863 57.3603 67.2191 63.4931C73.407 69.681 73.708 69.8521 75.1156 67.9882C77.43 64.9233 79.4149 60.4124 80.4231 55.9271L81.3526 51.7881H72.2709C63.3752 51.7881 63.1647 51.8422 61.9883 54.4242Z" fill="black"/>
</svg>
