<svg width="100" height="100" viewBox="0 0 100 100" fill="none" xmlns="http://www.w3.org/2000/svg">
<path d="M0 17.544C0 11.403 0 8.33252 1.19511 5.98698C2.24636 3.92379 3.92379 2.24636 5.98698 1.19511C8.33252 0 11.403 0 17.544 0H82.4566C88.5976 0 91.6681 0 94.0136 1.19511C96.0768 2.24636 97.7542 3.92379 98.8055 5.98698C100.001 8.33252 100.001 11.403 100.001 17.544V82.4566C100.001 88.5976 100.001 91.6681 98.8055 94.0136C97.7542 96.0768 96.0768 97.7542 94.0136 98.8055C91.6681 100.001 88.5976 100.001 82.4566 100.001H17.544C11.403 100.001 8.33252 100.001 5.98698 98.8055C3.92379 97.7542 2.24636 96.0768 1.19511 94.0136C0 91.6681 0 88.5976 0 82.4566V17.544Z" fill="#F9E813"/>
<path fill-rule="evenodd" clip-rule="evenodd" d="M62.3207 19.081C62.0467 19.795 61.9417 34.099 62.0877 50.868L62.3527 81.358H81.3527V18.358L72.0857 18.07C65.1987 17.856 62.6907 18.116 62.3207 19.081ZM40.3147 39.097C40.0367 39.82 39.9317 49.625 40.0817 60.885L40.3527 81.358H59.3527V38.358L50.0857 38.07C43.1407 37.855 40.6927 38.112 40.3147 39.097ZM54.8527 76.858H44.8527V42.858H54.8527V76.858ZM19.0687 57.704C18.1167 58.308 17.8577 61.475 18.0687 69.938L18.3527 81.358H37.3527L37.6377 70.503C37.8247 63.356 37.5267 59.171 36.7647 58.253C35.4777 56.702 21.3387 56.263 19.0687 57.704Z" fill="black"/>
</svg>
