<svg width="21" height="21" viewBox="0 0 21 21" fill="none" xmlns="http://www.w3.org/2000/svg">
<path d="M15.6177 9.11015V16.5936C15.6177 16.8072 15.5756 17.0188 15.4939 17.2162C15.4121 17.4135 15.2923 17.5929 15.1412 17.7439C14.9902 17.895 14.8108 18.0148 14.6134 18.0966C14.4161 18.1784 14.2045 18.2204 13.9909 18.2204H4.22986C3.7984 18.2204 3.38461 18.049 3.07952 17.7439C2.77443 17.4389 2.60303 17.0251 2.60303 16.5936V6.83258C2.60303 6.40112 2.77443 5.98733 3.07952 5.68224C3.38461 5.37715 3.7984 5.20575 4.22986 5.20575H11.0414" stroke="black" stroke-width="1.30365" stroke-linecap="round" stroke-linejoin="round"/>
<path d="M13.6655 2.60327H18.2225V7.16027" stroke="black" stroke-width="1.30365" stroke-linecap="round" stroke-linejoin="round"/>
<path d="M9.10938 11.7148L17.8955 2.92859" stroke="black" stroke-width="1.30365" stroke-linecap="round" stroke-linejoin="round"/>
</svg>
